{"glyphs":{"0":{"ha":819,"x_min":0,"x_max":0,"o":"m 56 458 b 413 -14 56 174 183 -14 b 764 458 642 -14 764 174 b 413 931 764 743 642 931 b 56 458 183 931 56 743 z m 185 446 b 388 875 172 699 231 867 b 639 471 550 883 626 724 b 438 42 651 218 594 50 b 185 446 275 33 197 193 z m 356 458 b 413 403 356 428 381 403 b 467 458 442 403 467 428 b 413 514 467 489 442 514 b 356 458 379 514 356 489 z "},"1":{"ha":542,"x_min":0,"x_max":0,"o":"m 56 0 l 486 0 l 486 28 b 333 133 358 28 333 67 l 333 917 l 278 917 b 56 750 243 779 208 750 l 56 694 l 208 694 l 208 133 b 56 28 208 67 183 28 z "},"2":{"ha":763,"x_min":0,"x_max":0,"o":"m 563 83 l 144 83 b 360 347 144 224 194 271 b 707 681 513 418 707 457 b 414 931 707 863 564 931 b 93 607 257 931 38 869 l 218 635 b 401 875 163 843 329 875 b 582 676 518 875 582 810 b 338 414 582 529 468 472 b 56 0 149 329 56 278 l 689 0 l 693 56 l 707 222 l 679 224 b 563 83 669 108 629 83 z "},"3":{"ha":749,"x_min":0,"x_max":0,"o":"m 504 486 b 679 693 606 517 679 579 b 382 931 679 860 533 931 b 79 607 225 931 21 850 l 204 635 b 369 875 146 807 250 875 b 554 708 488 875 554 818 b 282 514 554 569 471 514 l 282 458 b 568 243 471 458 568 403 b 358 42 568 126 499 42 b 190 272 239 42 132 110 l 65 300 b 375 -14 7 67 211 -14 b 693 244 553 -14 693 71 b 504 486 693 382 613 451 z "},"4":{"ha":846,"x_min":0,"x_max":0,"o":"m 790 181 l 790 264 l 671 264 l 671 917 l 546 917 b 56 264 476 615 224 371 l 56 181 l 546 181 l 546 133 b 476 28 546 67 535 28 l 476 0 l 740 0 l 740 28 b 671 133 682 28 671 67 l 671 181 z m 129 264 b 546 767 282 353 476 549 l 546 264 z "},"5":{"ha":806,"x_min":0,"x_max":0,"o":"m 457 624 b 165 500 336 624 246 588 l 194 833 l 567 833 b 683 693 633 833 674 808 l 711 694 l 697 861 l 693 917 l 150 917 l 103 417 l 165 431 b 425 568 238 522 325 568 b 625 333 561 568 625 478 b 371 42 625 154 531 42 b 192 272 238 42 133 110 l 67 300 b 372 -14 8 67 194 -14 b 750 329 558 -14 750 99 b 457 624 750 564 585 624 z "},"6":{"ha":819,"x_min":0,"x_max":0,"o":"m 181 451 l 181 478 b 432 875 181 722 247 875 b 603 692 547 875 617 821 l 728 664 b 435 931 742 789 649 931 b 56 454 146 931 56 685 b 424 -14 56 210 125 -14 b 764 274 676 -14 764 144 b 181 451 764 629 367 626 z m 421 42 b 182 397 232 42 190 208 b 639 272 419 585 639 518 b 421 42 639 161 581 42 z "},"7":{"ha":794,"x_min":0,"x_max":0,"o":"m 74 917 l 69 860 l 56 701 l 83 700 b 200 833 93 810 133 833 l 643 833 b 260 0 338 569 260 292 l 385 0 b 739 847 385 319 443 569 l 739 917 z "},"8":{"ha":829,"x_min":0,"x_max":0,"o":"m 544 500 b 732 721 621 529 732 601 b 429 931 732 860 588 931 b 97 701 272 931 97 874 b 288 472 97 589 176 524 b 56 215 197 439 56 367 b 415 -14 56 61 221 -14 b 774 244 585 -14 774 43 b 544 500 774 365 679 440 z m 222 739 b 424 875 222 818 292 875 b 635 717 572 875 635 804 b 486 525 635 632 588 574 b 411 553 463 535 438 543 b 222 739 306 590 222 642 z m 408 42 b 153 233 249 42 153 119 b 342 450 153 332 211 390 l 411 425 b 649 218 550 378 649 317 b 408 42 649 99 553 42 z "},"9":{"ha":819,"x_min":0,"x_max":0,"o":"m 396 931 b 56 643 143 931 56 772 b 639 465 56 288 453 290 l 639 439 b 388 42 639 194 572 42 b 217 225 272 42 203 96 l 92 253 b 385 -14 78 128 171 -14 b 764 463 674 -14 764 232 b 396 931 764 707 694 931 z m 181 644 b 399 875 181 756 239 875 b 638 519 588 875 629 708 b 181 644 400 332 181 399 z "}," ":{"ha":333,"x_min":0,"x_max":0,"o":""},"A":{"ha":1058,"x_min":0,"x_max":0,"o":"m 900 125 l 596 917 l 358 917 l 358 889 b 425 818 433 889 439 864 l 158 125 b 28 28 135 63 97 28 l 28 0 l 308 0 l 308 28 b 217 125 192 28 193 63 l 329 418 l 654 418 l 767 125 b 675 28 790 63 792 28 l 675 0 l 1031 0 l 1031 28 b 900 125 961 28 924 63 z m 351 474 l 492 839 l 633 474 z m 417 796 b 415 792 417 794 415 793 z "},"Á":{"ha":1058,"x_min":0,"x_max":0,"o":"m 647 1222 l 508 1194 b 403 1042 508 1107 467 1067 l 444 1014 b 647 1222 536 1038 647 1092 z m 900 125 l 596 917 l 358 917 l 358 889 b 425 818 433 889 439 864 l 158 125 b 28 28 135 63 97 28 l 28 0 l 308 0 l 308 28 b 217 125 192 28 193 63 l 329 418 l 654 418 l 767 125 b 675 28 790 63 792 28 l 675 0 l 1031 0 l 1031 28 b 900 125 961 28 924 63 z m 351 474 l 492 839 l 633 474 z m 417 796 b 415 792 417 794 415 793 z "},"Ă":{"ha":1058,"x_min":0,"x_max":0,"o":"m 532 1014 b 713 1222 678 1014 713 1125 l 657 1222 b 560 1069 657 1117 629 1069 b 463 1222 490 1069 463 1117 l 338 1222 b 532 1014 338 1125 386 1014 z m 900 125 l 596 917 l 358 917 l 358 889 b 425 818 433 889 439 864 l 158 125 b 28 28 135 63 97 28 l 28 0 l 308 0 l 308 28 b 217 125 192 28 193 63 l 329 418 l 654 418 l 767 125 b 675 28 790 63 792 28 l 675 0 l 1031 0 l 1031 28 b 900 125 961 28 924 63 z m 351 474 l 492 839 l 633 474 z m 417 796 b 415 792 417 794 415 793 z "},"Â":{"ha":1058,"x_min":0,"x_max":0,"o":"m 518 1139 l 532 1139 b 685 1014 560 1074 619 1028 l 713 1083 b 588 1222 633 1111 601 1157 l 463 1222 b 338 1083 449 1157 417 1111 l 365 1014 b 518 1139 431 1028 490 1074 z m 900 125 l 596 917 l 358 917 l 358 889 b 425 818 433 889 439 864 l 158 125 b 28 28 135 63 97 28 l 28 0 l 308 0 l 308 28 b 217 125 192 28 193 63 l 329 418 l 654 418 l 767 125 b 675 28 790 63 792 28 l 675 0 l 1031 0 l 1031 28 b 900 125 961 28 924 63 z m 351 474 l 492 839 l 633 474 z m 417 796 b 415 792 417 794 415 793 z "},"Ä":{"ha":1058,"x_min":0,"x_max":0,"o":"m 417 1046 b 489 1119 454 1046 489 1078 b 417 1190 489 1157 454 1190 b 344 1119 378 1190 344 1157 b 417 1046 344 1078 378 1046 z m 633 1046 b 706 1119 671 1046 706 1078 b 633 1190 706 1157 671 1190 b 561 1119 594 1190 561 1157 b 633 1046 561 1078 594 1046 z m 900 125 l 596 917 l 358 917 l 358 889 b 425 818 433 889 439 864 l 158 125 b 28 28 135 63 97 28 l 28 0 l 308 0 l 308 28 b 217 125 192 28 193 63 l 329 418 l 654 418 l 767 125 b 675 28 790 63 792 28 l 675 0 l 1031 0 l 1031 28 b 900 125 961 28 924 63 z m 351 474 l 492 839 l 633 474 z m 417 796 b 415 792 417 794 415 793 z "},"À":{"ha":1058,"x_min":0,"x_max":0,"o":"m 578 1014 l 619 1042 b 514 1194 556 1067 514 1107 l 375 1222 b 578 1014 375 1092 486 1038 z m 900 125 l 596 917 l 358 917 l 358 889 b 425 818 433 889 439 864 l 158 125 b 28 28 135 63 97 28 l 28 0 l 308 0 l 308 28 b 217 125 192 28 193 63 l 329 418 l 654 418 l 767 125 b 675 28 790 63 792 28 l 675 0 l 1031 0 l 1031 28 b 900 125 961 28 924 63 z m 351 474 l 492 839 l 633 474 z m 417 796 b 415 792 417 794 415 793 z "},"Ā":{"ha":1058,"x_min":0,"x_max":0,"o":"m 724 1146 l 325 1146 l 325 1090 l 724 1090 z m 900 125 l 596 917 l 358 917 l 358 889 b 425 818 433 889 439 864 l 158 125 b 28 28 135 63 97 28 l 28 0 l 308 0 l 308 28 b 217 125 192 28 193 63 l 329 418 l 654 418 l 767 125 b 675 28 790 63 792 28 l 675 0 l 1031 0 l 1031 28 b 900 125 961 28 924 63 z m 351 474 l 492 839 l 633 474 z m 417 796 b 415 792 417 794 415 793 z "},"Ą":{"ha":1058,"x_min":0,"x_max":0,"o":"m 921 0 l 1031 0 l 1031 28 b 900 125 961 28 924 63 l 596 917 l 358 917 l 358 889 b 425 818 433 889 439 864 l 158 125 b 28 28 135 63 97 28 l 28 0 l 308 0 l 308 28 b 217 125 192 28 193 63 l 329 418 l 654 418 l 767 125 b 675 28 790 63 792 28 l 675 0 l 851 0 l 851 -14 b 692 -186 740 -65 692 -125 b 994 -247 692 -319 879 -351 l 967 -192 b 789 -156 876 -257 789 -224 b 921 0 789 -122 810 -72 z m 351 474 l 492 839 l 633 474 z m 417 796 b 415 792 417 794 415 793 z "},"Å":{"ha":1058,"x_min":0,"x_max":0,"o":"m 525 1014 b 657 1118 613 1014 657 1060 b 525 1222 657 1174 613 1222 b 393 1118 436 1222 393 1174 b 525 1014 393 1060 436 1014 z m 525 1167 b 574 1118 558 1167 574 1153 b 525 1069 574 1083 558 1069 b 476 1118 492 1069 476 1083 b 525 1167 476 1153 492 1167 z m 900 125 l 596 917 l 358 917 l 358 889 b 425 818 433 889 439 864 l 158 125 b 28 28 135 63 97 28 l 28 0 l 308 0 l 308 28 b 217 125 192 28 193 63 l 329 418 l 654 418 l 767 125 b 675 28 790 63 792 28 l 675 0 l 1031 0 l 1031 28 b 900 125 961 28 924 63 z m 351 474 l 492 839 l 633 474 z m 417 796 b 415 792 417 794 415 793 z "},"Ã":{"ha":1058,"x_min":0,"x_max":0,"o":"m 390 1028 b 415 1139 360 1111 378 1139 b 643 1014 478 1139 517 1014 b 743 1181 719 1014 774 1082 l 660 1208 b 635 1097 690 1125 672 1097 b 407 1222 572 1097 533 1222 b 307 1056 331 1222 276 1154 z m 900 125 l 596 917 l 358 917 l 358 889 b 425 818 433 889 439 864 l 158 125 b 28 28 135 63 97 28 l 28 0 l 308 0 l 308 28 b 217 125 192 28 193 63 l 329 418 l 654 418 l 767 125 b 675 28 790 63 792 28 l 675 0 l 1031 0 l 1031 28 b 900 125 961 28 924 63 z m 351 474 l 492 839 l 633 474 z m 417 796 b 415 792 417 794 415 793 z "},"Æ":{"ha":1310,"x_min":0,"x_max":0,"o":"m 1228 197 b 1104 56 1213 81 1171 56 l 779 56 l 779 438 l 971 438 b 1076 368 1038 438 1076 426 l 1104 368 l 1104 563 l 1076 563 b 971 493 1076 504 1038 493 l 779 493 l 779 861 l 1090 861 b 1214 719 1157 861 1199 836 l 1240 724 l 1221 889 l 1217 917 l 432 917 l 432 889 b 510 799 549 889 540 857 l 158 118 b 28 28 128 60 86 28 l 28 0 l 300 0 l 300 28 b 222 118 183 28 192 60 l 340 349 l 654 349 l 654 133 b 585 28 654 67 643 28 l 585 0 l 1231 0 l 1235 28 l 1254 193 z m 369 404 l 571 796 b 571 861 588 828 592 850 l 654 861 l 654 404 z "},"B":{"ha":864,"x_min":0,"x_max":0,"o":"m 633 492 b 781 694 717 521 781 579 b 383 917 781 917 567 917 l 56 917 l 56 889 b 125 783 114 889 125 850 l 125 133 b 56 28 125 67 114 28 l 56 0 l 411 0 b 808 244 567 0 808 -1 b 633 492 808 393 728 461 z m 250 861 l 397 861 b 656 689 569 861 656 842 b 397 517 656 536 569 517 l 250 517 z m 425 56 l 250 56 l 250 461 l 425 461 b 683 258 597 461 683 411 b 425 56 683 106 597 56 z "},"C":{"ha":892,"x_min":0,"x_max":0,"o":"m 56 458 b 472 -14 56 160 201 -14 b 836 333 700 -14 843 117 l 711 306 b 472 42 725 136 622 42 b 181 458 286 42 181 199 b 486 875 181 718 300 875 b 711 625 622 875 725 781 l 836 597 b 486 931 843 800 700 931 b 56 458 215 931 56 757 z "},"Ć":{"ha":892,"x_min":0,"x_max":0,"o":"m 365 1042 l 407 1014 b 610 1222 499 1038 610 1092 l 471 1194 b 365 1042 471 1107 429 1067 z m 56 458 b 472 -14 56 160 201 -14 b 836 333 700 -14 843 117 l 711 306 b 472 42 725 136 622 42 b 181 458 286 42 181 199 b 486 875 181 718 300 875 b 711 625 622 875 725 781 l 836 597 b 486 931 843 800 700 931 b 56 458 215 931 56 757 z "},"Č":{"ha":892,"x_min":0,"x_max":0,"o":"m 675 1154 l 647 1224 b 494 1099 582 1210 522 1164 l 481 1099 b 328 1224 453 1164 393 1210 l 300 1154 b 425 1015 379 1126 411 1081 l 550 1015 b 675 1154 564 1081 596 1126 z m 56 458 b 472 -14 56 160 201 -14 b 836 333 700 -14 843 117 l 711 306 b 472 42 725 136 622 42 b 181 458 286 42 181 199 b 486 875 181 718 300 875 b 711 625 622 875 725 781 l 836 597 b 486 931 843 800 700 931 b 56 458 215 931 56 757 z "},"Ç":{"ha":892,"x_min":0,"x_max":0,"o":"m 711 306 b 472 42 725 136 622 42 b 181 458 286 42 181 199 b 486 875 181 718 300 875 b 711 625 622 875 725 781 l 836 597 b 486 931 843 800 700 931 b 56 458 215 931 56 757 b 436 -12 56 174 189 1 l 410 -153 l 438 -161 b 528 -139 461 -147 493 -139 b 582 -189 565 -139 582 -158 b 499 -262 582 -237 549 -262 b 451 -210 474 -262 432 -250 l 368 -185 b 504 -318 344 -278 428 -318 b 665 -187 589 -318 665 -278 b 557 -83 665 -111 608 -83 b 475 -106 525 -83 497 -92 l 461 -106 l 515 -12 b 836 333 718 3 843 131 z "},"Ċ":{"ha":892,"x_min":0,"x_max":0,"o":"m 488 1046 b 560 1119 525 1046 560 1078 b 488 1190 560 1157 525 1190 b 415 1119 449 1190 415 1157 b 488 1046 415 1078 449 1046 z m 56 458 b 472 -14 56 160 201 -14 b 836 333 700 -14 843 117 l 711 306 b 472 42 725 136 622 42 b 181 458 286 42 181 199 b 486 875 181 718 300 875 b 711 625 622 875 725 781 l 836 597 b 486 931 843 800 700 931 b 56 458 215 931 56 757 z "},"D":{"ha":933,"x_min":0,"x_max":0,"o":"m 425 917 l 56 917 l 56 889 b 125 783 114 889 125 850 l 125 133 b 56 28 125 67 114 28 l 56 0 l 425 0 b 878 458 581 0 878 54 b 425 917 878 861 581 917 z m 397 56 l 250 56 l 250 861 l 397 861 b 753 458 597 861 753 756 b 397 56 753 161 597 56 z "},"Ð":{"ha":933,"x_min":0,"x_max":0,"o":"m 425 917 l 56 917 l 56 889 b 125 783 114 889 125 850 l 125 486 l 42 486 l 42 431 l 125 431 l 125 133 b 56 28 125 67 114 28 l 56 0 l 425 0 b 878 458 581 0 878 54 b 425 917 878 861 581 917 z m 397 56 l 250 56 l 250 431 l 458 431 l 458 486 l 250 486 l 250 861 l 397 861 b 753 458 597 861 753 756 b 397 56 753 161 597 56 z "},"Ď":{"ha":933,"x_min":0,"x_max":0,"o":"m 321 1015 l 446 1015 b 571 1154 460 1081 492 1126 l 543 1224 b 390 1099 478 1210 418 1164 l 376 1099 b 224 1224 349 1164 289 1210 l 196 1154 b 321 1015 275 1126 307 1081 z m 425 917 l 56 917 l 56 889 b 125 783 114 889 125 850 l 125 133 b 56 28 125 67 114 28 l 56 0 l 425 0 b 878 458 581 0 878 54 b 425 917 878 861 581 917 z m 397 56 l 250 56 l 250 861 l 397 861 b 753 458 597 861 753 756 b 397 56 753 161 597 56 z "},"Đ":{"ha":933,"x_min":0,"x_max":0,"o":"m 425 917 l 56 917 l 56 889 b 125 783 114 889 125 850 l 125 486 l 42 486 l 42 431 l 125 431 l 125 133 b 56 28 125 67 114 28 l 56 0 l 425 0 b 878 458 581 0 878 54 b 425 917 878 861 581 917 z m 397 56 l 250 56 l 250 431 l 458 431 l 458 486 l 250 486 l 250 861 l 397 861 b 753 458 597 861 753 756 b 397 56 753 161 597 56 z "},"E":{"ha":781,"x_min":0,"x_max":0,"o":"m 699 197 b 575 56 683 81 642 56 l 250 56 l 250 438 l 442 438 b 547 368 508 438 547 426 l 575 368 l 575 563 l 547 563 b 442 493 547 504 508 493 l 250 493 l 250 861 l 561 861 b 685 719 628 861 669 836 l 711 724 l 692 889 l 688 917 l 56 917 l 56 889 b 125 783 114 889 125 850 l 125 133 b 56 28 125 67 114 28 l 56 0 l 701 0 l 706 28 l 725 193 z "},"É":{"ha":781,"x_min":0,"x_max":0,"o":"m 526 1222 l 388 1194 b 282 1042 388 1107 346 1067 l 324 1014 b 526 1222 415 1038 526 1092 z m 699 197 b 575 56 683 81 642 56 l 250 56 l 250 438 l 442 438 b 547 368 508 438 547 426 l 575 368 l 575 563 l 547 563 b 442 493 547 504 508 493 l 250 493 l 250 861 l 561 861 b 685 719 628 861 669 836 l 711 724 l 692 889 l 688 917 l 56 917 l 56 889 b 125 783 114 889 125 850 l 125 133 b 56 28 125 67 114 28 l 56 0 l 701 0 l 706 28 l 725 193 z "},"Ě":{"ha":781,"x_min":0,"x_max":0,"o":"m 342 1015 l 467 1015 b 592 1154 481 1081 513 1126 l 564 1224 b 411 1099 499 1210 439 1164 l 397 1099 b 244 1224 369 1164 310 1210 l 217 1154 b 342 1015 296 1126 328 1081 z m 699 197 b 575 56 683 81 642 56 l 250 56 l 250 438 l 442 438 b 547 368 508 438 547 426 l 575 368 l 575 563 l 547 563 b 442 493 547 504 508 493 l 250 493 l 250 861 l 561 861 b 685 719 628 861 669 836 l 711 724 l 692 889 l 688 917 l 56 917 l 56 889 b 125 783 114 889 125 850 l 125 133 b 56 28 125 67 114 28 l 56 0 l 701 0 l 706 28 l 725 193 z "},"Ê":{"ha":781,"x_min":0,"x_max":0,"o":"m 397 1139 l 411 1139 b 564 1014 439 1074 499 1028 l 592 1083 b 467 1222 513 1111 481 1157 l 342 1222 b 217 1083 328 1157 296 1111 l 244 1014 b 397 1139 310 1028 369 1074 z m 699 197 b 575 56 683 81 642 56 l 250 56 l 250 438 l 442 438 b 547 368 508 438 547 426 l 575 368 l 575 563 l 547 563 b 442 493 547 504 508 493 l 250 493 l 250 861 l 561 861 b 685 719 628 861 669 836 l 711 724 l 692 889 l 688 917 l 56 917 l 56 889 b 125 783 114 889 125 850 l 125 133 b 56 28 125 67 114 28 l 56 0 l 701 0 l 706 28 l 725 193 z "},"Ë":{"ha":781,"x_min":0,"x_max":0,"o":"m 296 1046 b 368 1119 333 1046 368 1078 b 296 1190 368 1157 333 1190 b 224 1119 257 1190 224 1157 b 296 1046 224 1078 257 1046 z m 513 1046 b 585 1119 550 1046 585 1078 b 513 1190 585 1157 550 1190 b 440 1119 474 1190 440 1157 b 513 1046 440 1078 474 1046 z m 699 197 b 575 56 683 81 642 56 l 250 56 l 250 438 l 442 438 b 547 368 508 438 547 426 l 575 368 l 575 563 l 547 563 b 442 493 547 504 508 493 l 250 493 l 250 861 l 561 861 b 685 719 628 861 669 836 l 711 724 l 692 889 l 688 917 l 56 917 l 56 889 b 125 783 114 889 125 850 l 125 133 b 56 28 125 67 114 28 l 56 0 l 701 0 l 706 28 l 725 193 z "},"Ė":{"ha":781,"x_min":0,"x_max":0,"o":"m 404 1046 b 476 1119 442 1046 476 1078 b 404 1190 476 1157 442 1190 b 332 1119 365 1190 332 1157 b 404 1046 332 1078 365 1046 z m 699 197 b 575 56 683 81 642 56 l 250 56 l 250 438 l 442 438 b 547 368 508 438 547 426 l 575 368 l 575 563 l 547 563 b 442 493 547 504 508 493 l 250 493 l 250 861 l 561 861 b 685 719 628 861 669 836 l 711 724 l 692 889 l 688 917 l 56 917 l 56 889 b 125 783 114 889 125 850 l 125 133 b 56 28 125 67 114 28 l 56 0 l 701 0 l 706 28 l 725 193 z "},"È":{"ha":781,"x_min":0,"x_max":0,"o":"m 457 1014 l 499 1042 b 393 1194 435 1067 393 1107 l 254 1222 b 457 1014 254 1092 365 1038 z m 699 197 b 575 56 683 81 642 56 l 250 56 l 250 438 l 442 438 b 547 368 508 438 547 426 l 575 368 l 575 563 l 547 563 b 442 493 547 504 508 493 l 250 493 l 250 861 l 561 861 b 685 719 628 861 669 836 l 711 724 l 692 889 l 688 917 l 56 917 l 56 889 b 125 783 114 889 125 850 l 125 133 b 56 28 125 67 114 28 l 56 0 l 701 0 l 706 28 l 725 193 z "},"Ē":{"ha":781,"x_min":0,"x_max":0,"o":"m 603 1146 l 204 1146 l 204 1090 l 603 1090 z m 699 197 b 575 56 683 81 642 56 l 250 56 l 250 438 l 442 438 b 547 368 508 438 547 426 l 575 368 l 575 563 l 547 563 b 442 493 547 504 508 493 l 250 493 l 250 861 l 561 861 b 685 719 628 861 669 836 l 711 724 l 692 889 l 688 917 l 56 917 l 56 889 b 125 783 114 889 125 850 l 125 133 b 56 28 125 67 114 28 l 56 0 l 701 0 l 706 28 l 725 193 z "},"Ę":{"ha":781,"x_min":0,"x_max":0,"o":"m 699 197 b 575 56 683 81 642 56 l 250 56 l 250 438 l 442 438 b 547 368 508 438 547 426 l 575 368 l 575 563 l 547 563 b 442 493 547 504 508 493 l 250 493 l 250 861 l 561 861 b 685 719 628 861 669 836 l 711 724 l 692 889 l 688 917 l 56 917 l 56 889 b 125 783 114 889 125 850 l 125 133 b 56 28 125 67 114 28 l 56 0 l 544 0 l 544 -14 b 385 -186 433 -65 385 -125 b 688 -247 385 -319 572 -351 l 660 -192 b 482 -156 569 -257 482 -224 b 614 0 482 -122 503 -72 l 701 0 l 706 28 l 725 193 z "},"F":{"ha":781,"x_min":0,"x_max":0,"o":"m 699 896 l 696 917 l 56 917 l 56 889 b 125 783 114 889 125 850 l 125 133 b 56 28 125 67 114 28 l 56 0 l 319 0 l 319 28 b 250 133 261 28 250 67 l 250 396 l 497 396 b 603 326 564 396 603 385 l 631 326 l 631 521 l 603 521 b 497 451 603 463 564 451 l 250 451 l 250 861 l 569 861 b 697 685 636 861 679 831 l 725 689 z "},"G":{"ha":999,"x_min":0,"x_max":0,"o":"m 971 414 l 549 461 l 546 433 b 749 306 714 415 749 372 l 749 104 b 493 42 660 58 590 42 b 181 458 307 42 181 178 b 507 875 181 739 300 875 b 753 625 664 875 767 781 l 878 597 b 507 931 885 800 742 931 b 56 458 229 931 56 743 b 493 -14 56 174 208 -14 b 874 118 614 -14 756 22 l 874 292 b 967 386 874 358 886 396 z "},"Ğ":{"ha":999,"x_min":0,"x_max":0,"o":"m 514 1014 b 694 1222 660 1014 694 1125 l 639 1222 b 542 1069 639 1117 611 1069 b 444 1222 472 1069 444 1117 l 319 1222 b 514 1014 319 1125 368 1014 z m 971 414 l 549 461 l 546 433 b 749 306 714 415 749 372 l 749 104 b 493 42 660 58 590 42 b 181 458 307 42 181 178 b 507 875 181 739 300 875 b 753 625 664 875 767 781 l 878 597 b 507 931 885 800 742 931 b 56 458 229 931 56 743 b 493 -14 56 174 208 -14 b 874 118 614 -14 756 22 l 874 292 b 967 386 874 358 886 396 z "},"Ģ":{"ha":999,"x_min":0,"x_max":0,"o":"m 971 414 l 549 461 l 546 433 b 749 306 714 415 749 372 l 749 104 b 493 42 660 58 590 42 b 181 458 307 42 181 178 b 507 875 181 739 300 875 b 753 625 664 875 767 781 l 878 597 b 507 931 885 800 742 931 b 56 458 229 931 56 743 b 493 -14 56 174 208 -14 b 874 118 614 -14 756 22 l 874 292 b 967 386 874 358 886 396 z m 483 -111 b 413 -181 440 -111 413 -143 b 469 -251 413 -218 432 -251 b 506 -240 486 -251 497 -247 b 426 -300 500 -268 474 -285 l 432 -342 b 558 -204 519 -314 558 -274 b 483 -111 558 -137 525 -111 z "},"Ġ":{"ha":999,"x_min":0,"x_max":0,"o":"m 507 1046 b 579 1119 544 1046 579 1078 b 507 1190 579 1157 544 1190 b 435 1119 468 1190 435 1157 b 507 1046 435 1078 468 1046 z m 971 414 l 549 461 l 546 433 b 749 306 714 415 749 372 l 749 104 b 493 42 660 58 590 42 b 181 458 307 42 181 178 b 507 875 181 739 300 875 b 753 625 664 875 767 781 l 878 597 b 507 931 885 800 742 931 b 56 458 229 931 56 743 b 493 -14 56 174 208 -14 b 874 118 614 -14 756 22 l 874 292 b 967 386 874 358 886 396 z "},"H":{"ha":1000,"x_min":0,"x_max":0,"o":"m 944 889 l 944 917 l 681 917 l 681 889 b 750 783 739 889 750 850 l 750 533 l 250 533 l 250 783 b 319 889 250 850 261 889 l 319 917 l 56 917 l 56 889 b 125 783 114 889 125 850 l 125 133 b 56 28 125 67 114 28 l 56 0 l 319 0 l 319 28 b 250 133 261 28 250 67 l 250 478 l 750 478 l 750 133 b 681 28 750 67 739 28 l 681 0 l 944 0 l 944 28 b 875 133 886 28 875 67 l 875 783 b 944 889 875 850 886 889 z "},"Ħ":{"ha":1000,"x_min":0,"x_max":0,"o":"m 944 889 l 944 917 l 681 917 l 681 889 b 750 783 739 889 750 850 l 750 743 l 250 743 l 250 783 b 319 889 250 850 261 889 l 319 917 l 56 917 l 56 889 b 125 783 114 889 125 850 l 125 743 l 56 743 l 56 688 l 125 688 l 125 133 b 56 28 125 67 114 28 l 56 0 l 319 0 l 319 28 b 250 133 261 28 250 67 l 250 478 l 750 478 l 750 133 b 681 28 750 67 739 28 l 681 0 l 944 0 l 944 28 b 875 133 886 28 875 67 l 875 688 l 944 688 l 944 743 l 875 743 l 875 783 b 944 889 875 850 886 889 z m 750 533 l 250 533 l 250 688 l 750 688 z "},"I":{"ha":375,"x_min":0,"x_max":0,"o":"m 56 0 l 319 0 l 319 28 b 250 133 261 28 250 67 l 250 783 b 319 889 250 850 261 889 l 319 917 l 56 917 l 56 889 b 125 783 114 889 125 850 l 125 133 b 56 28 125 67 114 28 z "},"Í":{"ha":375,"x_min":0,"x_max":0,"o":"m 65 1042 l 107 1014 b 310 1222 199 1038 310 1092 l 171 1194 b 65 1042 171 1107 129 1067 z m 56 0 l 319 0 l 319 28 b 250 133 261 28 250 67 l 250 783 b 319 889 250 850 261 889 l 319 917 l 56 917 l 56 889 b 125 783 114 889 125 850 l 125 133 b 56 28 125 67 114 28 z "},"Î":{"ha":375,"x_min":0,"x_max":0,"o":"m 375 1083 b 250 1222 296 1111 264 1157 l 125 1222 b 0 1083 111 1157 79 1111 l 28 1014 b 181 1139 93 1028 153 1074 l 194 1139 b 347 1014 222 1074 282 1028 z m 56 0 l 319 0 l 319 28 b 250 133 261 28 250 67 l 250 783 b 319 889 250 850 261 889 l 319 917 l 56 917 l 56 889 b 125 783 114 889 125 850 l 125 133 b 56 28 125 67 114 28 z "},"Ï":{"ha":375,"x_min":0,"x_max":0,"o":"m 79 1046 b 151 1119 117 1046 151 1078 b 79 1190 151 1157 117 1190 b 7 1119 40 1190 7 1157 b 79 1046 7 1078 40 1046 z m 296 1046 b 368 1119 333 1046 368 1078 b 296 1190 368 1157 333 1190 b 224 1119 257 1190 224 1157 b 296 1046 224 1078 257 1046 z m 56 0 l 319 0 l 319 28 b 250 133 261 28 250 67 l 250 783 b 319 889 250 850 261 889 l 319 917 l 56 917 l 56 889 b 125 783 114 889 125 850 l 125 133 b 56 28 125 67 114 28 z "},"İ":{"ha":375,"x_min":0,"x_max":0,"o":"m 188 1046 b 260 1119 225 1046 260 1078 b 188 1190 260 1157 225 1190 b 115 1119 149 1190 115 1157 b 188 1046 115 1078 149 1046 z m 56 0 l 319 0 l 319 28 b 250 133 261 28 250 67 l 250 783 b 319 889 250 850 261 889 l 319 917 l 56 917 l 56 889 b 125 783 114 889 125 850 l 125 133 b 56 28 125 67 114 28 z "},"Ì":{"ha":375,"x_min":0,"x_max":0,"o":"m 282 1042 b 176 1194 218 1067 176 1107 l 38 1222 b 240 1014 38 1092 149 1038 z m 56 0 l 319 0 l 319 28 b 250 133 261 28 250 67 l 250 783 b 319 889 250 850 261 889 l 319 917 l 56 917 l 56 889 b 125 783 114 889 125 850 l 125 133 b 56 28 125 67 114 28 z "},"Ī":{"ha":375,"x_min":0,"x_max":0,"o":"m -12 1146 l -12 1090 l 386 1090 l 386 1146 z m 56 0 l 319 0 l 319 28 b 250 133 261 28 250 67 l 250 783 b 319 889 250 850 261 889 l 319 917 l 56 917 l 56 889 b 125 783 114 889 125 850 l 125 133 b 56 28 125 67 114 28 z "},"Į":{"ha":375,"x_min":0,"x_max":0,"o":"m 365 -192 b 188 -156 275 -257 188 -224 b 319 0 188 -122 208 -72 l 319 28 b 250 133 261 28 250 67 l 250 783 b 319 889 250 850 261 889 l 319 917 l 56 917 l 56 889 b 125 783 114 889 125 850 l 125 133 b 56 28 125 67 114 28 l 56 0 l 250 0 l 250 -14 b 90 -186 139 -65 90 -125 b 393 -247 90 -319 278 -351 z "},"J":{"ha":358,"x_min":0,"x_max":0,"o":"m 303 917 l 39 917 l 39 889 b 108 783 97 889 108 850 l 108 0 b 14 -250 108 -106 94 -222 l 28 -306 b 233 0 150 -278 233 -190 l 233 783 b 303 889 233 850 244 889 z "},"K":{"ha":892,"x_min":0,"x_max":0,"o":"m 704 235 b 394 542 640 424 574 549 l 394 554 l 658 822 b 835 889 704 869 765 889 l 835 917 l 538 917 l 538 889 b 582 822 654 889 629 869 l 250 486 l 250 783 b 319 889 250 850 261 889 l 319 917 l 56 917 l 56 889 b 125 783 114 889 125 850 l 125 133 b 56 28 125 67 114 28 l 56 0 l 319 0 l 319 28 b 250 133 261 28 250 67 l 250 407 l 335 493 l 333 492 b 586 196 524 492 524 372 b 878 0 643 33 678 0 l 878 28 b 704 235 782 28 756 85 z "},"Ķ":{"ha":892,"x_min":0,"x_max":0,"o":"m 704 235 b 394 542 640 424 574 549 l 394 554 l 658 822 b 835 889 704 869 765 889 l 835 917 l 538 917 l 538 889 b 582 822 654 889 629 869 l 250 486 l 250 783 b 319 889 250 850 261 889 l 319 917 l 56 917 l 56 889 b 125 783 114 889 125 850 l 125 133 b 56 28 125 67 114 28 l 56 0 l 319 0 l 319 28 b 250 133 261 28 250 67 l 250 407 l 335 493 l 333 492 b 586 196 524 492 524 372 b 878 0 643 33 678 0 l 878 28 b 704 235 782 28 756 85 z m 457 -111 b 386 -181 414 -111 386 -143 b 443 -251 386 -218 406 -251 b 479 -240 460 -251 471 -247 b 400 -300 474 -268 447 -285 l 406 -342 b 532 -204 493 -314 532 -274 b 457 -111 532 -137 499 -111 z "},"L":{"ha":767,"x_min":0,"x_max":0,"o":"m 699 197 b 575 56 683 81 642 56 l 250 56 l 250 783 b 319 889 250 850 261 889 l 319 917 l 56 917 l 56 889 b 125 783 114 889 125 850 l 125 133 b 56 28 125 67 114 28 l 56 0 l 701 0 l 706 28 l 725 193 z "},"Ĺ":{"ha":767,"x_min":0,"x_max":0,"o":"m 310 1222 l 171 1194 b 65 1042 171 1107 129 1067 l 107 1014 b 310 1222 199 1038 310 1092 z m 699 197 b 575 56 683 81 642 56 l 250 56 l 250 783 b 319 889 250 850 261 889 l 319 917 l 56 917 l 56 889 b 125 783 114 889 125 850 l 125 133 b 56 28 125 67 114 28 l 56 0 l 701 0 l 706 28 l 725 193 z "},"Ľ":{"ha":767,"x_min":0,"x_max":0,"o":"m 125 1015 l 250 1015 b 375 1154 264 1081 296 1126 l 347 1224 b 194 1099 282 1210 222 1164 l 181 1099 b 28 1224 153 1164 93 1210 l 0 1154 b 125 1015 79 1126 111 1081 z m 699 197 b 575 56 683 81 642 56 l 250 56 l 250 783 b 319 889 250 850 261 889 l 319 917 l 56 917 l 56 889 b 125 783 114 889 125 850 l 125 133 b 56 28 125 67 114 28 l 56 0 l 701 0 l 706 28 l 725 193 z "},"Ļ":{"ha":767,"x_min":0,"x_max":0,"o":"m 699 197 b 575 56 683 81 642 56 l 250 56 l 250 783 b 319 889 250 850 261 889 l 319 917 l 56 917 l 56 889 b 125 783 114 889 125 850 l 125 133 b 56 28 125 67 114 28 l 56 0 l 701 0 l 706 28 l 725 193 z m 388 -111 b 317 -181 344 -111 317 -143 b 374 -251 317 -218 336 -251 b 410 -240 390 -251 401 -247 b 331 -300 404 -268 378 -285 l 336 -342 b 463 -204 424 -314 463 -274 b 388 -111 463 -137 429 -111 z "},"Ł":{"ha":781,"x_min":0,"x_max":0,"o":"m 699 197 b 575 56 683 81 642 56 l 250 56 l 250 583 l 461 638 l 461 694 l 250 640 l 250 783 b 319 889 250 850 261 889 l 319 917 l 56 917 l 56 889 b 125 783 114 889 125 850 l 125 610 l 56 592 l 56 535 l 125 553 l 125 133 b 56 28 125 67 114 28 l 56 0 l 701 0 l 706 28 l 725 193 z "},"M":{"ha":1294,"x_min":0,"x_max":0,"o":"m 1239 890 l 1239 918 l 1156 917 b 985 778 1113 915 1042 900 l 658 64 l 319 778 b 139 917 257 908 225 917 l 56 917 l 56 889 b 125 783 114 889 125 850 l 125 133 b 56 28 125 67 114 28 l 56 0 l 250 0 l 250 28 b 181 133 192 28 181 67 l 181 778 l 551 0 l 690 0 l 1044 778 l 1044 133 b 975 28 1044 67 1033 28 l 975 0 l 1239 0 l 1239 28 b 1169 133 1181 28 1169 67 l 1169 783 b 1239 890 1169 850 1181 889 z "},"N":{"ha":1013,"x_min":0,"x_max":0,"o":"m 56 0 l 250 0 l 250 28 b 181 133 192 28 181 67 l 181 776 l 697 111 b 888 0 767 21 808 0 l 888 783 b 957 889 888 850 899 889 l 957 917 l 763 917 l 763 889 b 832 783 821 889 832 850 l 832 140 l 315 806 b 139 917 250 890 210 914 l 56 917 l 56 889 b 125 783 114 889 125 850 l 125 133 b 56 28 125 67 114 28 z "},"Ń":{"ha":1013,"x_min":0,"x_max":0,"o":"m 385 1042 l 426 1014 b 629 1222 518 1038 629 1092 l 490 1194 b 385 1042 490 1107 449 1067 z m 56 0 l 250 0 l 250 28 b 181 133 192 28 181 67 l 181 776 l 697 111 b 888 0 767 21 808 0 l 888 783 b 957 889 888 850 899 889 l 957 917 l 763 917 l 763 889 b 832 783 821 889 832 850 l 832 140 l 315 806 b 139 917 250 890 210 914 l 56 917 l 56 889 b 125 783 114 889 125 850 l 125 133 b 56 28 125 67 114 28 z "},"Ň":{"ha":1013,"x_min":0,"x_max":0,"o":"m 694 1154 l 667 1224 b 514 1099 601 1210 542 1164 l 500 1099 b 347 1224 472 1164 413 1210 l 319 1154 b 444 1015 399 1126 431 1081 l 569 1015 b 694 1154 583 1081 615 1126 z m 56 0 l 250 0 l 250 28 b 181 133 192 28 181 67 l 181 776 l 697 111 b 888 0 767 21 808 0 l 888 783 b 957 889 888 850 899 889 l 957 917 l 763 917 l 763 889 b 832 783 821 889 832 850 l 832 140 l 315 806 b 139 917 250 890 210 914 l 56 917 l 56 889 b 125 783 114 889 125 850 l 125 133 b 56 28 125 67 114 28 z "},"Ņ":{"ha":1013,"x_min":0,"x_max":0,"o":"m 56 0 l 250 0 l 250 28 b 181 133 192 28 181 67 l 181 776 l 697 111 b 888 0 767 21 808 0 l 888 783 b 957 889 888 850 899 889 l 957 917 l 763 917 l 763 889 b 832 783 821 889 832 850 l 832 140 l 315 806 b 139 917 250 890 210 914 l 56 917 l 56 889 b 125 783 114 889 125 850 l 125 133 b 56 28 125 67 114 28 z m 447 -300 l 453 -342 b 579 -204 540 -314 579 -274 b 504 -111 579 -137 546 -111 b 433 -181 461 -111 433 -143 b 490 -251 433 -218 453 -251 b 526 -240 507 -251 518 -247 b 447 -300 521 -268 494 -285 z "},"Ŋ":{"ha":1013,"x_min":0,"x_max":0,"o":"m 957 917 l 763 917 l 763 889 b 832 783 821 889 832 850 l 832 140 l 315 806 b 139 917 250 890 210 914 l 56 917 l 56 889 b 125 783 114 889 125 850 l 125 133 b 56 28 125 67 114 28 l 56 0 l 250 0 l 250 28 b 181 133 192 28 181 67 l 181 776 l 697 111 b 729 72 708 96 719 83 b 674 -236 836 -58 774 -236 b 589 -208 644 -236 625 -231 l 561 -264 b 682 -292 618 -289 651 -292 b 888 0 804 -292 888 -218 l 888 783 b 957 889 888 850 899 889 z "},"Ñ":{"ha":1013,"x_min":0,"x_max":0,"o":"m 625 1014 b 725 1181 701 1014 756 1082 l 642 1208 b 617 1097 672 1125 654 1097 b 389 1222 554 1097 515 1222 b 289 1056 313 1222 258 1154 l 372 1028 b 397 1139 342 1111 360 1139 b 625 1014 460 1139 499 1014 z m 56 0 l 250 0 l 250 28 b 181 133 192 28 181 67 l 181 776 l 697 111 b 888 0 767 21 808 0 l 888 783 b 957 889 888 850 899 889 l 957 917 l 763 917 l 763 889 b 832 783 821 889 832 850 l 832 140 l 315 806 b 139 917 250 890 210 914 l 56 917 l 56 889 b 125 783 114 889 125 850 l 125 133 b 56 28 125 67 114 28 z "},"O":{"ha":986,"x_min":0,"x_max":0,"o":"m 56 458 b 493 -14 56 188 222 -14 b 931 458 764 -14 931 188 b 493 931 931 729 764 931 b 56 458 222 931 56 729 z m 183 421 b 428 869 151 671 243 847 b 803 496 642 896 772 747 b 558 47 835 246 743 69 b 183 421 344 21 214 169 z "},"Ó":{"ha":986,"x_min":0,"x_max":0,"o":"m 371 1042 l 413 1014 b 615 1222 504 1038 615 1092 l 476 1194 b 371 1042 476 1107 435 1067 z m 56 458 b 493 -14 56 188 222 -14 b 931 458 764 -14 931 188 b 493 931 931 729 764 931 b 56 458 222 931 56 729 z m 183 421 b 428 869 151 671 243 847 b 803 496 642 896 772 747 b 558 47 835 246 743 69 b 183 421 344 21 214 169 z "},"Ô":{"ha":986,"x_min":0,"x_max":0,"o":"m 681 1083 b 556 1222 601 1111 569 1157 l 431 1222 b 306 1083 417 1157 385 1111 l 333 1014 b 486 1139 399 1028 458 1074 l 500 1139 b 653 1014 528 1074 588 1028 z m 56 458 b 493 -14 56 188 222 -14 b 931 458 764 -14 931 188 b 493 931 931 729 764 931 b 56 458 222 931 56 729 z m 183 421 b 428 869 151 671 243 847 b 803 496 642 896 772 747 b 558 47 835 246 743 69 b 183 421 344 21 214 169 z "},"Ö":{"ha":986,"x_min":0,"x_max":0,"o":"m 385 1046 b 457 1119 422 1046 457 1078 b 385 1190 457 1157 422 1190 b 313 1119 346 1190 313 1157 b 385 1046 313 1078 346 1046 z m 601 1046 b 674 1119 639 1046 674 1078 b 601 1190 674 1157 639 1190 b 529 1119 563 1190 529 1157 b 601 1046 529 1078 563 1046 z m 56 458 b 493 -14 56 188 222 -14 b 931 458 764 -14 931 188 b 493 931 931 729 764 931 b 56 458 222 931 56 729 z m 183 421 b 428 869 151 671 243 847 b 803 496 642 896 772 747 b 558 47 835 246 743 69 b 183 421 344 21 214 169 z "},"Ò":{"ha":986,"x_min":0,"x_max":0,"o":"m 588 1042 b 482 1194 524 1067 482 1107 l 343 1222 b 546 1014 343 1092 454 1038 z m 56 458 b 493 -14 56 188 222 -14 b 931 458 764 -14 931 188 b 493 931 931 729 764 931 b 56 458 222 931 56 729 z m 183 421 b 428 869 151 671 243 847 b 803 496 642 896 772 747 b 558 47 835 246 743 69 b 183 421 344 21 214 169 z "},"Ő":{"ha":986,"x_min":0,"x_max":0,"o":"m 503 1069 l 544 1042 b 747 1250 636 1065 747 1119 l 608 1222 b 503 1069 608 1135 567 1094 z m 294 1042 l 336 1014 b 539 1222 428 1038 539 1092 l 400 1194 b 294 1042 400 1107 358 1067 z m 56 458 b 493 -14 56 188 222 -14 b 931 458 764 -14 931 188 b 493 931 931 729 764 931 b 56 458 222 931 56 729 z m 183 421 b 428 869 151 671 243 847 b 803 496 642 896 772 747 b 558 47 835 246 743 69 b 183 421 344 21 214 169 z "},"Ō":{"ha":986,"x_min":0,"x_max":0,"o":"m 293 1146 l 293 1090 l 692 1090 l 692 1146 z m 56 458 b 493 -14 56 188 222 -14 b 931 458 764 -14 931 188 b 493 931 931 729 764 931 b 56 458 222 931 56 729 z m 183 421 b 428 869 151 671 243 847 b 803 496 642 896 772 747 b 558 47 835 246 743 69 b 183 421 344 21 214 169 z "},"Ø":{"ha":986,"x_min":0,"x_max":0,"o":"m 693 888 l 738 1000 l 678 1000 l 642 908 b 493 931 596 922 547 931 b 56 458 222 931 56 729 b 293 29 56 263 143 103 l 249 -83 l 308 -83 l 344 8 b 493 -14 390 -6 439 -14 b 931 458 764 -14 931 188 b 693 888 931 654 843 814 z m 183 421 b 428 869 151 671 243 847 b 614 840 500 878 563 868 l 325 108 b 183 421 249 172 200 281 z m 558 47 b 372 76 486 39 424 49 l 661 808 b 803 496 738 744 786 636 b 558 47 835 246 743 69 z "},"Õ":{"ha":986,"x_min":0,"x_max":0,"o":"m 611 1014 b 711 1181 688 1014 742 1082 l 628 1208 b 603 1097 658 1125 640 1097 b 375 1222 540 1097 501 1222 b 275 1056 299 1222 244 1154 l 358 1028 b 383 1139 328 1111 346 1139 b 611 1014 446 1139 485 1014 z m 56 458 b 493 -14 56 188 222 -14 b 931 458 764 -14 931 188 b 493 931 931 729 764 931 b 56 458 222 931 56 729 z m 183 421 b 428 869 151 671 243 847 b 803 496 642 896 772 747 b 558 47 835 246 743 69 b 183 421 344 21 214 169 z "},"Œ":{"ha":1465,"x_min":0,"x_max":0,"o":"m 1383 197 b 1260 56 1368 81 1326 56 l 935 56 l 935 438 l 1126 438 b 1232 368 1193 438 1232 426 l 1260 368 l 1260 563 l 1232 563 b 1126 493 1232 504 1193 493 l 935 493 l 935 861 l 1246 861 b 1369 719 1313 861 1354 836 l 1396 724 l 1376 889 l 1372 917 l 810 917 l 810 800 b 493 931 735 882 626 931 b 56 458 222 931 56 729 b 493 -14 56 188 222 -14 b 810 117 626 -14 735 35 l 810 0 l 1386 0 l 1390 28 l 1410 193 z m 558 47 b 183 421 344 21 214 169 b 428 869 151 671 243 847 b 803 496 642 896 772 747 b 558 47 835 246 743 69 z "},"P":{"ha":864,"x_min":0,"x_max":0,"o":"m 397 917 l 56 917 l 56 889 b 125 783 114 889 125 850 l 125 133 b 56 28 125 67 114 28 l 56 0 l 319 0 l 319 28 b 250 133 261 28 250 67 l 250 317 l 397 317 b 808 617 553 317 808 315 b 397 917 808 917 553 917 z m 411 372 l 250 372 l 250 861 l 411 861 b 683 617 583 861 683 811 b 411 372 683 422 583 372 z "},"Þ":{"ha":864,"x_min":0,"x_max":0,"o":"m 397 778 l 250 778 l 250 783 b 319 889 250 850 261 889 l 319 917 l 56 917 l 56 889 b 125 783 114 889 125 850 l 125 133 b 56 28 125 67 114 28 l 56 0 l 319 0 l 319 28 b 250 133 261 28 250 67 l 250 178 l 397 178 b 808 478 553 178 808 176 b 397 778 808 778 553 778 z m 411 233 l 250 233 l 250 722 l 411 722 b 683 478 583 722 683 672 b 411 233 683 283 583 233 z "},"Q":{"ha":986,"x_min":0,"x_max":0,"o":"m 738 -69 b 713 -229 781 -156 769 -229 b 618 -133 665 -229 650 -183 b 488 -14 590 -87 551 -37 l 493 -14 b 931 458 764 -14 931 188 b 493 931 931 729 764 931 b 56 458 222 931 56 729 b 379 -1 56 228 176 47 b 190 -112 296 -7 239 -47 l 236 -137 b 371 -56 272 -90 308 -56 b 489 -160 432 -56 469 -125 b 690 -285 549 -265 613 -285 b 863 -42 818 -285 892 -158 z m 183 421 b 428 869 151 671 243 847 b 803 496 642 896 772 747 b 558 47 835 246 743 69 b 183 421 344 21 214 169 z "},"R":{"ha":892,"x_min":0,"x_max":0,"o":"m 686 267 b 535 492 657 383 610 453 b 725 700 633 508 725 558 b 383 917 725 917 496 917 l 56 917 l 56 889 b 125 783 114 889 125 850 l 125 133 b 56 28 125 67 114 28 l 56 0 l 319 0 l 319 28 b 250 133 261 28 250 67 l 250 483 l 268 483 b 567 228 458 483 514 436 b 878 0 621 14 706 0 l 878 28 b 686 267 804 28 736 64 z m 250 539 l 250 861 l 397 861 b 600 700 528 861 600 811 b 397 539 600 589 528 539 z "},"Ŕ":{"ha":892,"x_min":0,"x_max":0,"o":"m 513 1222 l 374 1194 b 268 1042 374 1107 332 1067 l 310 1014 b 513 1222 401 1038 513 1092 z m 686 267 b 535 492 657 383 610 453 b 725 700 633 508 725 558 b 383 917 725 917 496 917 l 56 917 l 56 889 b 125 783 114 889 125 850 l 125 133 b 56 28 125 67 114 28 l 56 0 l 319 0 l 319 28 b 250 133 261 28 250 67 l 250 483 l 268 483 b 567 228 458 483 514 436 b 878 0 621 14 706 0 l 878 28 b 686 267 804 28 736 64 z m 250 539 l 250 861 l 397 861 b 600 700 528 861 600 811 b 397 539 600 589 528 539 z "},"Ř":{"ha":892,"x_min":0,"x_max":0,"o":"m 328 1015 l 453 1015 b 578 1154 467 1081 499 1126 l 550 1224 b 397 1099 485 1210 425 1164 l 383 1099 b 231 1224 356 1164 296 1210 l 203 1154 b 328 1015 282 1126 314 1081 z m 686 267 b 535 492 657 383 610 453 b 725 700 633 508 725 558 b 383 917 725 917 496 917 l 56 917 l 56 889 b 125 783 114 889 125 850 l 125 133 b 56 28 125 67 114 28 l 56 0 l 319 0 l 319 28 b 250 133 261 28 250 67 l 250 483 l 268 483 b 567 228 458 483 514 436 b 878 0 621 14 706 0 l 878 28 b 686 267 804 28 736 64 z m 250 539 l 250 861 l 397 861 b 600 700 528 861 600 811 b 397 539 600 589 528 539 z "},"Ŗ":{"ha":892,"x_min":0,"x_max":0,"o":"m 686 267 b 535 492 657 383 610 453 b 725 700 633 508 725 558 b 383 917 725 917 496 917 l 56 917 l 56 889 b 125 783 114 889 125 850 l 125 133 b 56 28 125 67 114 28 l 56 0 l 319 0 l 319 28 b 250 133 261 28 250 67 l 250 483 l 268 483 b 567 228 458 483 514 436 b 878 0 621 14 706 0 l 878 28 b 686 267 804 28 736 64 z m 250 539 l 250 861 l 397 861 b 600 700 528 861 600 811 b 397 539 600 589 528 539 z m 471 -111 b 400 -181 428 -111 400 -143 b 457 -251 400 -218 419 -251 b 493 -240 474 -251 485 -247 b 414 -300 488 -268 461 -285 l 419 -342 b 546 -204 507 -314 546 -274 b 471 -111 546 -137 513 -111 z "},"S":{"ha":847,"x_min":0,"x_max":0,"o":"m 88 688 b 443 411 88 508 258 469 b 681 218 583 367 681 331 b 457 42 681 99 604 42 b 193 340 293 42 121 108 l 68 368 b 454 -14 -4 67 240 -14 b 806 244 636 -14 806 43 b 443 539 806 431 647 475 b 213 717 324 576 213 614 b 439 875 213 818 286 875 b 632 644 593 875 704 807 l 757 617 b 440 931 829 850 632 931 b 88 688 254 931 88 860 z "},"Ś":{"ha":847,"x_min":0,"x_max":0,"o":"m 322 1042 l 364 1014 b 567 1222 456 1038 567 1092 l 428 1194 b 322 1042 428 1107 386 1067 z m 88 688 b 443 411 88 508 258 469 b 681 218 583 367 681 331 b 457 42 681 99 604 42 b 193 340 293 42 121 108 l 68 368 b 454 -14 -4 67 240 -14 b 806 244 636 -14 806 43 b 443 539 806 431 647 475 b 213 717 324 576 213 614 b 439 875 213 818 286 875 b 632 644 593 875 704 807 l 757 617 b 440 931 829 850 632 931 b 88 688 254 931 88 860 z "},"Š":{"ha":847,"x_min":0,"x_max":0,"o":"m 632 1154 l 604 1224 b 451 1099 539 1210 479 1164 l 438 1099 b 285 1224 410 1164 350 1210 l 257 1154 b 382 1015 336 1126 368 1081 l 507 1015 b 632 1154 521 1081 553 1126 z m 88 688 b 443 411 88 508 258 469 b 681 218 583 367 681 331 b 457 42 681 99 604 42 b 193 340 293 42 121 108 l 68 368 b 454 -14 -4 67 240 -14 b 806 244 636 -14 806 43 b 443 539 806 431 647 475 b 213 717 324 576 213 614 b 439 875 213 818 286 875 b 632 644 593 875 704 807 l 757 617 b 440 931 829 850 632 931 b 88 688 254 931 88 860 z "},"Ş":{"ha":847,"x_min":0,"x_max":0,"o":"m 806 244 b 443 539 806 431 647 475 b 213 717 324 576 213 614 b 439 875 213 818 286 875 b 632 644 593 875 704 807 l 757 617 b 440 931 829 850 632 931 b 88 688 254 931 88 860 b 443 411 88 508 258 469 b 681 218 583 367 681 331 b 457 42 681 99 604 42 b 193 340 293 42 121 108 l 68 368 b 392 -11 3 96 196 4 l 365 -153 l 393 -161 b 483 -139 417 -147 449 -139 b 538 -189 521 -139 538 -158 b 454 -262 538 -237 504 -262 b 407 -210 429 -262 388 -250 l 324 -185 b 460 -318 300 -278 383 -318 b 621 -187 544 -318 621 -278 b 513 -83 621 -111 564 -83 b 431 -106 481 -83 453 -92 l 417 -106 l 469 -14 b 806 244 646 -11 806 49 z "},"Ș":{"ha":847,"x_min":0,"x_max":0,"o":"m 88 688 b 443 411 88 508 258 469 b 681 218 583 367 681 331 b 457 42 681 99 604 42 b 193 340 293 42 121 108 l 68 368 b 454 -14 -4 67 240 -14 b 806 244 636 -14 806 43 b 443 539 806 431 647 475 b 213 717 324 576 213 614 b 439 875 213 818 286 875 b 632 644 593 875 704 807 l 757 617 b 440 931 829 850 632 931 b 88 688 254 931 88 860 z m 383 -300 l 389 -342 b 515 -204 476 -314 515 -274 b 440 -111 515 -137 482 -111 b 369 -181 397 -111 369 -143 b 426 -251 369 -218 389 -251 b 463 -240 443 -251 454 -247 b 383 -300 457 -268 431 -285 z "},"T":{"ha":881,"x_min":0,"x_max":0,"o":"m 819 889 l 815 917 l 65 917 l 61 889 l 42 724 l 68 719 b 192 861 83 836 125 861 l 378 861 l 378 133 b 308 28 378 67 367 28 l 308 0 l 572 0 l 572 28 b 503 133 514 28 503 67 l 503 861 l 689 861 b 813 719 756 861 797 836 l 839 724 z "},"Ŧ":{"ha":881,"x_min":0,"x_max":0,"o":"m 819 889 l 815 917 l 65 917 l 61 889 l 42 724 l 68 719 b 192 861 83 836 125 861 l 378 861 l 378 486 l 232 486 l 232 431 l 378 431 l 378 133 b 308 28 378 67 367 28 l 308 0 l 572 0 l 572 28 b 503 133 514 28 503 67 l 503 431 l 649 431 l 649 486 l 503 486 l 503 861 l 689 861 b 813 719 756 861 797 836 l 839 724 z "},"Ť":{"ha":881,"x_min":0,"x_max":0,"o":"m 378 1015 l 503 1015 b 628 1154 517 1081 549 1126 l 600 1224 b 447 1099 535 1210 475 1164 l 433 1099 b 281 1224 406 1164 346 1210 l 253 1154 b 378 1015 332 1126 364 1081 z m 819 889 l 815 917 l 65 917 l 61 889 l 42 724 l 68 719 b 192 861 83 836 125 861 l 378 861 l 378 133 b 308 28 378 67 367 28 l 308 0 l 572 0 l 572 28 b 503 133 514 28 503 67 l 503 861 l 689 861 b 813 719 756 861 797 836 l 839 724 z "},"Ţ":{"ha":881,"x_min":0,"x_max":0,"o":"m 819 889 l 815 917 l 65 917 l 61 889 l 42 724 l 68 719 b 192 861 83 836 125 861 l 378 861 l 378 133 b 308 28 378 67 367 28 l 308 0 l 392 0 l 363 -153 l 390 -161 b 481 -139 414 -147 446 -139 b 535 -189 518 -139 535 -158 b 451 -262 535 -237 501 -262 b 404 -210 426 -262 385 -250 l 321 -185 b 457 -318 297 -278 381 -318 b 618 -187 542 -318 618 -278 b 510 -83 618 -111 561 -83 b 428 -106 478 -83 450 -92 l 414 -106 l 475 0 l 572 0 l 572 28 b 503 133 514 28 503 67 l 503 861 l 689 861 b 813 719 756 861 797 836 l 839 724 z "},"Ț":{"ha":881,"x_min":0,"x_max":0,"o":"m 819 889 l 815 917 l 65 917 l 61 889 l 42 724 l 68 719 b 192 861 83 836 125 861 l 378 861 l 378 133 b 308 28 378 67 367 28 l 308 0 l 572 0 l 572 28 b 503 133 514 28 503 67 l 503 861 l 689 861 b 813 719 756 861 797 836 l 839 724 z m 438 -111 b 367 -181 394 -111 367 -143 b 424 -251 367 -218 386 -251 b 460 -240 440 -251 451 -247 b 381 -300 454 -268 428 -285 l 386 -342 b 513 -204 474 -314 513 -274 b 438 -111 513 -137 479 -111 z "},"U":{"ha":958,"x_min":0,"x_max":0,"o":"m 917 917 l 724 917 l 724 889 b 793 783 782 889 793 850 l 792 465 b 507 42 786 193 725 42 b 235 465 300 42 235 163 l 236 783 b 306 889 236 850 247 889 l 306 917 l 42 917 l 42 889 b 111 783 100 889 111 850 l 111 465 b 493 -14 113 154 178 -14 b 846 465 776 -14 840 158 l 847 783 b 917 889 847 850 858 889 z "},"Ú":{"ha":958,"x_min":0,"x_max":0,"o":"m 629 1222 l 490 1194 b 385 1042 490 1107 449 1067 l 426 1014 b 629 1222 518 1038 629 1092 z m 917 917 l 724 917 l 724 889 b 793 783 782 889 793 850 l 792 465 b 507 42 786 193 725 42 b 235 465 300 42 235 163 l 236 783 b 306 889 236 850 247 889 l 306 917 l 42 917 l 42 889 b 111 783 100 889 111 850 l 111 465 b 493 -14 113 154 178 -14 b 846 465 776 -14 840 158 l 847 783 b 917 889 847 850 858 889 z "},"Û":{"ha":958,"x_min":0,"x_max":0,"o":"m 500 1139 l 514 1139 b 667 1014 542 1074 601 1028 l 694 1083 b 569 1222 615 1111 583 1157 l 444 1222 b 319 1083 431 1157 399 1111 l 347 1014 b 500 1139 413 1028 472 1074 z m 917 917 l 724 917 l 724 889 b 793 783 782 889 793 850 l 792 465 b 507 42 786 193 725 42 b 235 465 300 42 235 163 l 236 783 b 306 889 236 850 247 889 l 306 917 l 42 917 l 42 889 b 111 783 100 889 111 850 l 111 465 b 493 -14 113 154 178 -14 b 846 465 776 -14 840 158 l 847 783 b 917 889 847 850 858 889 z "},"Ü":{"ha":958,"x_min":0,"x_max":0,"o":"m 399 1046 b 471 1119 436 1046 471 1078 b 399 1190 471 1157 436 1190 b 326 1119 360 1190 326 1157 b 399 1046 326 1078 360 1046 z m 615 1046 b 688 1119 653 1046 688 1078 b 615 1190 688 1157 653 1190 b 543 1119 576 1190 543 1157 b 615 1046 543 1078 576 1046 z m 917 917 l 724 917 l 724 889 b 793 783 782 889 793 850 l 792 465 b 507 42 786 193 725 42 b 235 465 300 42 235 163 l 236 783 b 306 889 236 850 247 889 l 306 917 l 42 917 l 42 889 b 111 783 100 889 111 850 l 111 465 b 493 -14 113 154 178 -14 b 846 465 776 -14 840 158 l 847 783 b 917 889 847 850 858 889 z "},"Ù":{"ha":958,"x_min":0,"x_max":0,"o":"m 560 1014 l 601 1042 b 496 1194 538 1067 496 1107 l 357 1222 b 560 1014 357 1092 468 1038 z m 917 917 l 724 917 l 724 889 b 793 783 782 889 793 850 l 792 465 b 507 42 786 193 725 42 b 235 465 300 42 235 163 l 236 783 b 306 889 236 850 247 889 l 306 917 l 42 917 l 42 889 b 111 783 100 889 111 850 l 111 465 b 493 -14 113 154 178 -14 b 846 465 776 -14 840 158 l 847 783 b 917 889 847 850 858 889 z "},"Ű":{"ha":958,"x_min":0,"x_max":0,"o":"m 558 1042 b 761 1250 650 1065 761 1119 l 622 1222 b 517 1069 622 1135 581 1094 z m 553 1222 l 414 1194 b 308 1042 414 1107 372 1067 l 350 1014 b 553 1222 442 1038 553 1092 z m 917 917 l 724 917 l 724 889 b 793 783 782 889 793 850 l 792 465 b 507 42 786 193 725 42 b 235 465 300 42 235 163 l 236 783 b 306 889 236 850 247 889 l 306 917 l 42 917 l 42 889 b 111 783 100 889 111 850 l 111 465 b 493 -14 113 154 178 -14 b 846 465 776 -14 840 158 l 847 783 b 917 889 847 850 858 889 z "},"Ū":{"ha":958,"x_min":0,"x_max":0,"o":"m 706 1146 l 307 1146 l 307 1090 l 706 1090 z m 917 917 l 724 917 l 724 889 b 793 783 782 889 793 850 l 792 465 b 507 42 786 193 725 42 b 235 465 300 42 235 163 l 236 783 b 306 889 236 850 247 889 l 306 917 l 42 917 l 42 889 b 111 783 100 889 111 850 l 111 465 b 493 -14 113 154 178 -14 b 846 465 776 -14 840 158 l 847 783 b 917 889 847 850 858 889 z "},"Ų":{"ha":958,"x_min":0,"x_max":0,"o":"m 917 917 l 724 917 l 724 889 b 793 783 782 889 793 850 l 792 465 b 507 42 786 193 725 42 b 235 465 300 42 235 163 l 236 783 b 306 889 236 850 247 889 l 306 917 l 42 917 l 42 889 b 111 783 100 889 111 850 l 111 465 b 493 -14 113 154 178 -14 b 546 -11 511 -14 529 -12 l 546 -14 b 386 -186 435 -65 386 -125 b 689 -247 386 -319 574 -351 l 661 -192 b 483 -156 571 -257 483 -224 b 615 0 483 -122 504 -72 b 846 465 796 46 842 208 l 847 783 b 917 889 847 850 858 889 z "},"Ů":{"ha":958,"x_min":0,"x_max":0,"o":"m 507 1014 b 639 1118 594 1014 639 1060 b 507 1222 639 1174 594 1222 b 375 1118 418 1222 375 1174 b 507 1014 375 1060 418 1014 z m 507 1167 b 556 1118 540 1167 556 1153 b 507 1069 556 1083 540 1069 b 458 1118 474 1069 458 1083 b 507 1167 458 1153 474 1167 z m 917 917 l 724 917 l 724 889 b 793 783 782 889 793 850 l 792 465 b 507 42 786 193 725 42 b 235 465 300 42 235 163 l 236 783 b 306 889 236 850 247 889 l 306 917 l 42 917 l 42 889 b 111 783 100 889 111 850 l 111 465 b 493 -14 113 154 178 -14 b 846 465 776 -14 840 158 l 847 783 b 917 889 847 850 858 889 z "},"V":{"ha":1031,"x_min":0,"x_max":0,"o":"m 1017 917 l 736 917 l 736 889 b 828 792 853 889 851 854 l 553 78 l 278 792 b 369 889 254 854 253 889 l 369 917 l 14 917 l 14 889 b 144 792 83 889 121 854 l 449 0 l 582 0 l 886 792 b 1017 889 910 854 947 889 z "},"W":{"ha":1665,"x_min":0,"x_max":0,"o":"m 1610 917 l 1329 917 l 1329 889 b 1425 790 1446 889 1447 853 l 1190 90 l 933 917 l 803 917 l 544 90 l 313 790 b 410 889 292 853 293 889 l 410 917 l 56 917 l 56 889 b 181 790 125 889 160 853 l 444 0 l 575 0 l 832 825 l 1088 0 l 1218 0 l 1483 790 b 1610 889 1506 854 1540 889 z "},"Ẃ":{"ha":1665,"x_min":0,"x_max":0,"o":"m 990 1222 l 851 1194 b 746 1042 851 1107 810 1067 l 788 1014 b 990 1222 879 1038 990 1092 z m 1610 917 l 1329 917 l 1329 889 b 1425 790 1446 889 1447 853 l 1190 90 l 933 917 l 803 917 l 544 90 l 313 790 b 410 889 292 853 293 889 l 410 917 l 56 917 l 56 889 b 181 790 125 889 160 853 l 444 0 l 575 0 l 832 825 l 1088 0 l 1218 0 l 1483 790 b 1610 889 1506 854 1540 889 z "},"Ŵ":{"ha":1665,"x_min":0,"x_max":0,"o":"m 861 1139 l 875 1139 b 1028 1014 903 1074 963 1028 l 1056 1083 b 931 1222 976 1111 944 1157 l 806 1222 b 681 1083 792 1157 760 1111 l 708 1014 b 861 1139 774 1028 833 1074 z m 1610 917 l 1329 917 l 1329 889 b 1425 790 1446 889 1447 853 l 1190 90 l 933 917 l 803 917 l 544 90 l 313 790 b 410 889 292 853 293 889 l 410 917 l 56 917 l 56 889 b 181 790 125 889 160 853 l 444 0 l 575 0 l 832 825 l 1088 0 l 1218 0 l 1483 790 b 1610 889 1506 854 1540 889 z "},"Ẅ":{"ha":1665,"x_min":0,"x_max":0,"o":"m 760 1046 b 832 1119 797 1046 832 1078 b 760 1190 832 1157 797 1190 b 688 1119 721 1190 688 1157 b 760 1046 688 1078 721 1046 z m 976 1046 b 1049 1119 1014 1046 1049 1078 b 976 1190 1049 1157 1014 1190 b 904 1119 938 1190 904 1157 b 976 1046 904 1078 938 1046 z m 1610 917 l 1329 917 l 1329 889 b 1425 790 1446 889 1447 853 l 1190 90 l 933 917 l 803 917 l 544 90 l 313 790 b 410 889 292 853 293 889 l 410 917 l 56 917 l 56 889 b 181 790 125 889 160 853 l 444 0 l 575 0 l 832 825 l 1088 0 l 1218 0 l 1483 790 b 1610 889 1506 854 1540 889 z "},"Ẁ":{"ha":1665,"x_min":0,"x_max":0,"o":"m 921 1014 l 963 1042 b 857 1194 899 1067 857 1107 l 718 1222 b 921 1014 718 1092 829 1038 z m 1610 917 l 1329 917 l 1329 889 b 1425 790 1446 889 1447 853 l 1190 90 l 933 917 l 803 917 l 544 90 l 313 790 b 410 889 292 853 293 889 l 410 917 l 56 917 l 56 889 b 181 790 125 889 160 853 l 444 0 l 575 0 l 832 825 l 1088 0 l 1218 0 l 1483 790 b 1610 889 1506 854 1540 889 z "},"X":{"ha":965,"x_min":0,"x_max":0,"o":"m 938 889 l 938 917 l 654 917 l 654 889 b 738 807 789 889 775 863 l 525 506 l 314 807 b 397 889 276 863 263 889 l 397 917 l 28 917 l 28 889 b 160 808 75 889 122 863 l 406 460 l 160 110 b 28 28 122 54 75 28 l 28 0 l 311 0 l 311 28 b 228 110 176 28 190 54 l 440 411 l 651 110 b 568 28 689 54 703 28 l 568 0 l 938 0 l 938 28 b 806 108 890 28 843 54 l 560 457 l 806 807 b 938 889 843 863 890 889 z "},"Y":{"ha":936,"x_min":0,"x_max":0,"o":"m 922 917 l 639 917 l 639 889 b 713 800 756 889 744 858 l 508 442 l 303 801 b 375 889 269 858 258 889 l 375 917 l 14 917 l 14 889 b 157 801 78 889 124 858 l 406 369 l 406 133 b 336 28 406 67 394 28 l 336 0 l 600 0 l 600 28 b 531 133 542 28 531 67 l 531 369 l 779 801 b 922 889 813 858 858 889 z "},"Ý":{"ha":936,"x_min":0,"x_max":0,"o":"m 592 1222 l 453 1194 b 347 1042 453 1107 411 1067 l 389 1014 b 592 1222 481 1038 592 1092 z m 922 917 l 639 917 l 639 889 b 713 800 756 889 744 858 l 508 442 l 303 801 b 375 889 269 858 258 889 l 375 917 l 14 917 l 14 889 b 157 801 78 889 124 858 l 406 369 l 406 133 b 336 28 406 67 394 28 l 336 0 l 600 0 l 600 28 b 531 133 542 28 531 67 l 531 369 l 779 801 b 922 889 813 858 858 889 z "},"Ŷ":{"ha":936,"x_min":0,"x_max":0,"o":"m 463 1139 l 476 1139 b 629 1014 504 1074 564 1028 l 657 1083 b 532 1222 578 1111 546 1157 l 407 1222 b 282 1083 393 1157 361 1111 l 310 1014 b 463 1139 375 1028 435 1074 z m 922 917 l 639 917 l 639 889 b 713 800 756 889 744 858 l 508 442 l 303 801 b 375 889 269 858 258 889 l 375 917 l 14 917 l 14 889 b 157 801 78 889 124 858 l 406 369 l 406 133 b 336 28 406 67 394 28 l 336 0 l 600 0 l 600 28 b 531 133 542 28 531 67 l 531 369 l 779 801 b 922 889 813 858 858 889 z "},"Ÿ":{"ha":936,"x_min":0,"x_max":0,"o":"m 361 1046 b 433 1119 399 1046 433 1078 b 361 1190 433 1157 399 1190 b 289 1119 322 1190 289 1157 b 361 1046 289 1078 322 1046 z m 578 1046 b 650 1119 615 1046 650 1078 b 578 1190 650 1157 615 1190 b 506 1119 539 1190 506 1157 b 578 1046 506 1078 539 1046 z m 922 917 l 639 917 l 639 889 b 713 800 756 889 744 858 l 508 442 l 303 801 b 375 889 269 858 258 889 l 375 917 l 14 917 l 14 889 b 157 801 78 889 124 858 l 406 369 l 406 133 b 336 28 406 67 394 28 l 336 0 l 600 0 l 600 28 b 531 133 542 28 531 67 l 531 369 l 779 801 b 922 889 813 858 858 889 z "},"Ỳ":{"ha":936,"x_min":0,"x_max":0,"o":"m 522 1014 l 564 1042 b 458 1194 500 1067 458 1107 l 319 1222 b 522 1014 319 1092 431 1038 z m 922 917 l 639 917 l 639 889 b 713 800 756 889 744 858 l 508 442 l 303 801 b 375 889 269 858 258 889 l 375 917 l 14 917 l 14 889 b 157 801 78 889 124 858 l 406 369 l 406 133 b 336 28 406 67 394 28 l 336 0 l 600 0 l 600 28 b 531 133 542 28 531 67 l 531 369 l 779 801 b 922 889 813 858 858 889 z "},"Z":{"ha":833,"x_min":0,"x_max":0,"o":"m 751 197 b 628 56 736 81 694 56 l 215 56 l 764 875 l 764 917 l 79 917 l 75 889 l 56 724 l 82 719 b 206 861 97 836 139 861 l 604 861 l 56 42 l 56 0 l 754 0 l 758 28 l 778 193 z "},"Ź":{"ha":833,"x_min":0,"x_max":0,"o":"m 539 1222 l 400 1194 b 294 1042 400 1107 358 1067 l 336 1014 b 539 1222 428 1038 539 1092 z m 751 197 b 628 56 736 81 694 56 l 215 56 l 764 875 l 764 917 l 79 917 l 75 889 l 56 724 l 82 719 b 206 861 97 836 139 861 l 604 861 l 56 42 l 56 0 l 754 0 l 758 28 l 778 193 z "},"Ž":{"ha":833,"x_min":0,"x_max":0,"o":"m 354 1015 l 479 1015 b 604 1154 493 1081 525 1126 l 576 1224 b 424 1099 511 1210 451 1164 l 410 1099 b 257 1224 382 1164 322 1210 l 229 1154 b 354 1015 308 1126 340 1081 z m 751 197 b 628 56 736 81 694 56 l 215 56 l 764 875 l 764 917 l 79 917 l 75 889 l 56 724 l 82 719 b 206 861 97 836 139 861 l 604 861 l 56 42 l 56 0 l 754 0 l 758 28 l 778 193 z "},"Ż":{"ha":833,"x_min":0,"x_max":0,"o":"m 417 1046 b 489 1119 454 1046 489 1078 b 417 1190 489 1157 454 1190 b 344 1119 378 1190 344 1157 b 417 1046 344 1078 378 1046 z m 751 197 b 628 56 736 81 694 56 l 215 56 l 764 875 l 764 917 l 79 917 l 75 889 l 56 724 l 82 719 b 206 861 97 836 139 861 l 604 861 l 56 42 l 56 0 l 754 0 l 758 28 l 778 193 z "},"a":{"ha":768,"x_min":0,"x_max":0,"o":"m 671 147 l 671 367 b 394 708 671 608 596 708 b 110 429 175 708 68 582 l 235 457 b 388 653 193 572 256 653 b 544 426 514 653 539 575 b 56 157 350 404 56 361 b 254 -14 56 38 140 -14 b 532 119 364 -14 475 38 l 546 119 l 546 96 b 639 0 546 18 601 0 b 740 56 681 0 725 19 l 740 83 b 671 147 701 56 671 60 z m 546 283 l 546 267 b 292 42 546 158 407 42 b 181 158 221 42 181 79 b 546 372 181 289 356 354 z "},"á":{"ha":768,"x_min":0,"x_max":0,"o":"m 513 1000 l 374 972 b 268 819 374 885 332 844 l 310 792 b 513 1000 401 815 513 869 z m 671 147 l 671 367 b 394 708 671 608 596 708 b 110 429 175 708 68 582 l 235 457 b 388 653 193 572 256 653 b 544 426 514 653 539 575 b 56 157 350 404 56 361 b 254 -14 56 38 140 -14 b 532 119 364 -14 475 38 l 546 119 l 546 96 b 639 0 546 18 601 0 b 740 56 681 0 725 19 l 740 83 b 671 147 701 56 671 60 z m 546 283 l 546 267 b 292 42 546 158 407 42 b 181 158 221 42 181 79 b 546 372 181 289 356 354 z "},"ă":{"ha":768,"x_min":0,"x_max":0,"o":"m 397 792 b 578 1000 543 792 578 903 l 522 1000 b 425 847 522 894 494 847 b 328 1000 356 847 328 894 l 203 1000 b 397 792 203 903 251 792 z m 671 147 l 671 367 b 394 708 671 608 596 708 b 110 429 175 708 68 582 l 235 457 b 388 653 193 572 256 653 b 544 426 514 653 539 575 b 56 157 350 404 56 361 b 254 -14 56 38 140 -14 b 532 119 364 -14 475 38 l 546 119 l 546 96 b 639 0 546 18 601 0 b 740 56 681 0 725 19 l 740 83 b 671 147 701 56 671 60 z m 546 283 l 546 267 b 292 42 546 158 407 42 b 181 158 221 42 181 79 b 546 372 181 289 356 354 z "},"â":{"ha":768,"x_min":0,"x_max":0,"o":"m 383 917 l 397 917 b 550 792 425 851 485 806 l 578 861 b 453 1000 499 889 467 935 l 328 1000 b 203 861 314 935 282 889 l 231 792 b 383 917 296 806 356 851 z m 671 147 l 671 367 b 394 708 671 608 596 708 b 110 429 175 708 68 582 l 235 457 b 388 653 193 572 256 653 b 544 426 514 653 539 575 b 56 157 350 404 56 361 b 254 -14 56 38 140 -14 b 532 119 364 -14 475 38 l 546 119 l 546 96 b 639 0 546 18 601 0 b 740 56 681 0 725 19 l 740 83 b 671 147 701 56 671 60 z m 546 283 l 546 267 b 292 42 546 158 407 42 b 181 158 221 42 181 79 b 546 372 181 289 356 354 z "},"ä":{"ha":768,"x_min":0,"x_max":0,"o":"m 282 824 b 354 897 319 824 354 856 b 282 968 354 935 319 968 b 210 897 243 968 210 935 b 282 824 210 856 243 824 z m 499 824 b 571 897 536 824 571 856 b 499 968 571 935 536 968 b 426 897 460 968 426 935 b 499 824 426 856 460 824 z m 671 147 l 671 367 b 394 708 671 608 596 708 b 110 429 175 708 68 582 l 235 457 b 388 653 193 572 256 653 b 544 426 514 653 539 575 b 56 157 350 404 56 361 b 254 -14 56 38 140 -14 b 532 119 364 -14 475 38 l 546 119 l 546 96 b 639 0 546 18 601 0 b 740 56 681 0 725 19 l 740 83 b 671 147 701 56 671 60 z m 546 283 l 546 267 b 292 42 546 158 407 42 b 181 158 221 42 181 79 b 546 372 181 289 356 354 z "},"à":{"ha":768,"x_min":0,"x_max":0,"o":"m 443 792 l 485 819 b 379 972 421 844 379 885 l 240 1000 b 443 792 240 869 351 815 z m 671 147 l 671 367 b 394 708 671 608 596 708 b 110 429 175 708 68 582 l 235 457 b 388 653 193 572 256 653 b 544 426 514 653 539 575 b 56 157 350 404 56 361 b 254 -14 56 38 140 -14 b 532 119 364 -14 475 38 l 546 119 l 546 96 b 639 0 546 18 601 0 b 740 56 681 0 725 19 l 740 83 b 671 147 701 56 671 60 z m 546 283 l 546 267 b 292 42 546 158 407 42 b 181 158 221 42 181 79 b 546 372 181 289 356 354 z "},"ā":{"ha":768,"x_min":0,"x_max":0,"o":"m 589 924 l 190 924 l 190 868 l 589 868 z m 671 147 l 671 367 b 394 708 671 608 596 708 b 110 429 175 708 68 582 l 235 457 b 388 653 193 572 256 653 b 544 426 514 653 539 575 b 56 157 350 404 56 361 b 254 -14 56 38 140 -14 b 532 119 364 -14 475 38 l 546 119 l 546 96 b 639 0 546 18 601 0 b 740 56 681 0 725 19 l 740 83 b 671 147 701 56 671 60 z m 546 283 l 546 267 b 292 42 546 158 407 42 b 181 158 221 42 181 79 b 546 372 181 289 356 354 z "},"ą":{"ha":796,"x_min":0,"x_max":0,"o":"m 751 -192 b 574 -156 661 -257 574 -224 b 740 56 574 -62 704 -32 l 740 83 b 671 147 701 56 671 60 l 671 367 b 394 708 671 608 596 708 b 110 429 175 708 68 582 l 235 457 b 388 653 193 572 256 653 b 544 426 514 653 539 575 b 56 157 350 404 56 361 b 254 -14 56 38 140 -14 b 532 119 364 -14 475 38 l 546 119 l 546 96 b 636 0 546 19 599 1 l 636 -14 b 476 -186 525 -65 476 -125 b 779 -247 476 -319 664 -351 z m 546 283 l 546 267 b 292 42 546 158 407 42 b 181 158 221 42 181 79 b 546 372 181 289 356 354 z "},"å":{"ha":768,"x_min":0,"x_max":0,"o":"m 390 792 b 522 896 478 792 522 838 b 390 1000 522 951 478 1000 b 258 896 301 1000 258 951 b 390 792 258 838 301 792 z m 390 944 b 439 896 424 944 439 931 b 390 847 439 861 424 847 b 342 896 357 847 342 861 b 390 944 342 931 357 944 z m 671 147 l 671 367 b 394 708 671 608 596 708 b 110 429 175 708 68 582 l 235 457 b 388 653 193 572 256 653 b 544 426 514 653 539 575 b 56 157 350 404 56 361 b 254 -14 56 38 140 -14 b 532 119 364 -14 475 38 l 546 119 l 546 96 b 639 0 546 18 601 0 b 740 56 681 0 725 19 l 740 83 b 671 147 701 56 671 60 z m 546 283 l 546 267 b 292 42 546 158 407 42 b 181 158 221 42 181 79 b 546 372 181 289 356 354 z "},"ã":{"ha":768,"x_min":0,"x_max":0,"o":"m 256 806 b 281 917 225 889 243 917 b 508 792 343 917 382 792 b 608 958 585 792 639 860 l 525 986 b 500 875 556 903 538 875 b 272 1000 438 875 399 1000 b 172 833 196 1000 142 932 z m 671 147 l 671 367 b 394 708 671 608 596 708 b 110 429 175 708 68 582 l 235 457 b 388 653 193 572 256 653 b 544 426 514 653 539 575 b 56 157 350 404 56 361 b 254 -14 56 38 140 -14 b 532 119 364 -14 475 38 l 546 119 l 546 96 b 639 0 546 18 601 0 b 740 56 681 0 725 19 l 740 83 b 671 147 701 56 671 60 z m 546 283 l 546 267 b 292 42 546 158 407 42 b 181 158 221 42 181 79 b 546 372 181 289 356 354 z "},"æ":{"ha":1254,"x_min":0,"x_max":0,"o":"m 1065 225 b 894 42 1079 96 1010 42 b 671 319 771 42 671 136 l 671 342 b 1199 504 854 283 1199 289 b 921 708 1199 626 1093 708 b 626 579 797 708 693 663 b 390 708 583 660 508 708 b 110 429 171 708 68 582 l 235 457 b 383 653 193 572 251 653 b 544 426 510 653 538 542 b 56 157 350 404 56 361 b 268 -14 56 38 140 -14 b 568 186 393 -14 519 38 b 908 -14 611 67 717 -14 b 1190 253 1108 -14 1204 128 z m 921 653 b 1074 519 1024 653 1074 596 b 676 400 1074 390 950 331 b 921 653 697 544 775 653 z m 292 42 b 181 158 221 42 181 79 b 546 372 181 289 356 354 l 546 329 b 292 42 546 158 435 42 z "},"b":{"ha":861,"x_min":0,"x_max":0,"o":"m 806 347 b 479 708 806 575 665 708 b 236 547 367 708 274 643 l 222 547 l 222 917 b 111 1000 222 993 164 1000 l 28 1000 l 28 972 b 97 867 86 972 97 933 l 97 0 b 222 83 139 0 222 0 l 222 147 l 236 147 b 479 -14 274 51 367 -14 b 806 347 665 -14 806 119 z m 667 347 b 451 42 667 182 603 42 b 236 347 300 42 236 182 b 451 653 236 513 300 653 b 667 347 603 653 667 513 z "},"c":{"ha":781,"x_min":0,"x_max":0,"o":"m 56 347 b 403 -14 56 160 160 -14 b 725 306 603 -14 732 117 l 600 278 b 403 42 614 136 525 42 b 181 347 244 42 181 178 b 403 653 181 517 244 653 b 586 431 525 653 600 558 l 711 403 b 403 708 718 578 603 708 b 56 347 160 708 56 535 z "},"ć":{"ha":781,"x_min":0,"x_max":0,"o":"m 282 819 l 324 792 b 526 1000 415 815 526 869 l 388 972 b 282 819 388 885 346 844 z m 56 347 b 403 -14 56 160 160 -14 b 725 306 603 -14 732 117 l 600 278 b 403 42 614 136 525 42 b 181 347 244 42 181 178 b 403 653 181 517 244 653 b 586 431 525 653 600 558 l 711 403 b 403 708 718 578 603 708 b 56 347 160 708 56 535 z "},"č":{"ha":781,"x_min":0,"x_max":0,"o":"m 592 932 l 564 1001 b 411 876 499 988 439 942 l 397 876 b 244 1001 369 942 310 988 l 217 932 b 342 793 296 904 328 858 l 467 793 b 592 932 481 858 513 904 z m 56 347 b 403 -14 56 160 160 -14 b 725 306 603 -14 732 117 l 600 278 b 403 42 614 136 525 42 b 181 347 244 42 181 178 b 403 653 181 517 244 653 b 586 431 525 653 600 558 l 711 403 b 403 708 718 578 603 708 b 56 347 160 708 56 535 z "},"ç":{"ha":781,"x_min":0,"x_max":0,"o":"m 725 306 l 600 278 b 403 42 614 136 525 42 b 181 347 244 42 181 178 b 403 653 181 517 244 653 b 586 431 525 653 600 558 l 711 403 b 403 708 718 578 603 708 b 56 347 160 708 56 535 b 367 -12 56 169 150 4 l 340 -153 l 368 -161 b 458 -139 392 -147 424 -139 b 513 -189 496 -139 513 -158 b 429 -262 513 -237 479 -262 b 382 -210 404 -262 363 -250 l 299 -185 b 435 -318 275 -278 358 -318 b 596 -187 519 -318 596 -278 b 488 -83 596 -111 539 -83 b 406 -106 456 -83 428 -92 l 392 -106 l 446 -11 b 725 306 621 6 732 131 z "},"ċ":{"ha":781,"x_min":0,"x_max":0,"o":"m 404 824 b 476 897 442 824 476 856 b 404 968 476 935 442 968 b 332 897 365 968 332 935 b 404 824 332 856 365 824 z m 56 347 b 403 -14 56 160 160 -14 b 725 306 603 -14 732 117 l 600 278 b 403 42 614 136 525 42 b 181 347 244 42 181 178 b 403 653 181 517 244 653 b 586 431 525 653 600 558 l 711 403 b 403 708 718 578 603 708 b 56 347 160 708 56 535 z "},"d":{"ha":875,"x_min":0,"x_max":0,"o":"m 56 347 b 382 -14 56 119 196 -14 b 625 147 494 -14 588 51 l 639 147 l 639 83 b 750 0 639 8 707 1 l 833 0 l 833 28 b 764 133 775 28 764 67 l 764 917 b 653 1000 764 993 706 1000 l 569 1000 l 569 972 b 639 867 628 972 639 933 l 639 547 l 625 547 b 382 708 588 643 494 708 b 56 347 196 708 56 575 z m 194 347 b 410 653 194 513 258 653 b 625 347 561 653 625 513 b 410 42 625 182 561 42 b 194 347 258 42 194 182 z "},"ð":{"ha":803,"x_min":0,"x_max":0,"o":"m 571 882 l 719 950 l 696 1000 l 521 921 b 213 1000 446 969 346 1000 l 185 944 b 446 886 294 944 381 922 l 297 818 l 321 768 l 500 850 b 664 506 621 756 656 610 l 650 506 b 379 708 599 643 492 708 b 56 361 193 708 56 574 b 407 -14 56 118 221 -14 b 747 375 603 -14 747 114 b 571 882 747 536 719 751 z m 444 44 b 193 321 294 25 214 157 b 369 650 174 485 219 632 b 621 374 519 669 600 538 b 444 44 640 210 594 63 z "},"ď":{"ha":1014,"x_min":0,"x_max":0,"o":"m 903 663 l 944 663 b 986 940 951 807 986 876 b 924 1014 986 972 978 1014 b 861 940 868 1014 861 972 b 903 663 861 876 896 807 z m 56 347 b 382 -14 56 119 196 -14 b 625 147 494 -14 588 51 l 639 147 l 639 83 b 750 0 639 8 707 1 l 833 0 l 833 28 b 764 133 775 28 764 67 l 764 917 b 653 1000 764 993 706 1000 l 569 1000 l 569 972 b 639 867 628 972 639 933 l 639 547 l 625 547 b 382 708 588 643 494 708 b 56 347 196 708 56 575 z m 194 347 b 410 653 194 513 258 653 b 625 347 561 653 625 513 b 410 42 625 182 561 42 b 194 347 258 42 194 182 z "},"đ":{"ha":875,"x_min":0,"x_max":0,"o":"m 847 757 l 847 813 l 764 813 l 764 917 b 653 1000 764 993 706 1000 l 569 1000 l 569 972 b 639 867 628 972 639 933 l 639 813 l 431 813 l 431 757 l 639 757 l 639 547 l 625 547 b 382 708 588 643 494 708 b 56 347 196 708 56 575 b 382 -14 56 119 196 -14 b 625 147 494 -14 588 51 l 639 147 l 639 83 b 750 0 639 8 707 1 l 833 0 l 833 28 b 764 133 775 28 764 67 l 764 757 z m 410 42 b 194 347 258 42 194 182 b 410 653 194 513 258 653 b 625 347 561 653 625 513 b 410 42 625 182 561 42 z "},"e":{"ha":764,"x_min":0,"x_max":0,"o":"m 575 225 b 404 42 589 96 519 42 b 181 319 281 42 181 136 l 181 342 b 708 504 364 283 708 289 b 431 708 708 626 603 708 b 56 329 214 708 56 565 b 418 -14 56 135 157 -14 b 700 253 618 -14 714 128 z m 431 653 b 583 519 533 653 583 596 b 186 400 583 390 460 331 b 431 653 207 544 285 653 z "},"é":{"ha":764,"x_min":0,"x_max":0,"o":"m 574 1000 l 435 972 b 329 819 435 885 393 844 l 371 792 b 574 1000 463 815 574 869 z m 575 225 b 404 42 589 96 519 42 b 181 319 281 42 181 136 l 181 342 b 708 504 364 283 708 289 b 431 708 708 626 603 708 b 56 329 214 708 56 565 b 418 -14 56 135 157 -14 b 700 253 618 -14 714 128 z m 431 653 b 583 519 533 653 583 596 b 186 400 583 390 460 331 b 431 653 207 544 285 653 z "},"ě":{"ha":764,"x_min":0,"x_max":0,"o":"m 389 793 l 514 793 b 639 932 528 858 560 904 l 611 1001 b 458 876 546 988 486 942 l 444 876 b 292 1001 417 942 357 988 l 264 932 b 389 793 343 904 375 858 z m 575 225 b 404 42 589 96 519 42 b 181 319 281 42 181 136 l 181 342 b 708 504 364 283 708 289 b 431 708 708 626 603 708 b 56 329 214 708 56 565 b 418 -14 56 135 157 -14 b 700 253 618 -14 714 128 z m 431 653 b 583 519 533 653 583 596 b 186 400 583 390 460 331 b 431 653 207 544 285 653 z "},"ê":{"ha":764,"x_min":0,"x_max":0,"o":"m 444 917 l 458 917 b 611 792 486 851 546 806 l 639 861 b 514 1000 560 889 528 935 l 389 1000 b 264 861 375 935 343 889 l 292 792 b 444 917 357 806 417 851 z m 575 225 b 404 42 589 96 519 42 b 181 319 281 42 181 136 l 181 342 b 708 504 364 283 708 289 b 431 708 708 626 603 708 b 56 329 214 708 56 565 b 418 -14 56 135 157 -14 b 700 253 618 -14 714 128 z m 431 653 b 583 519 533 653 583 596 b 186 400 583 390 460 331 b 431 653 207 544 285 653 z "},"ë":{"ha":764,"x_min":0,"x_max":0,"o":"m 343 824 b 415 897 381 824 415 856 b 343 968 415 935 381 968 b 271 897 304 968 271 935 b 343 824 271 856 304 824 z m 560 824 b 632 897 597 824 632 856 b 560 968 632 935 597 968 b 488 897 521 968 488 935 b 560 824 488 856 521 824 z m 575 225 b 404 42 589 96 519 42 b 181 319 281 42 181 136 l 181 342 b 708 504 364 283 708 289 b 431 708 708 626 603 708 b 56 329 214 708 56 565 b 418 -14 56 135 157 -14 b 700 253 618 -14 714 128 z m 431 653 b 583 519 533 653 583 596 b 186 400 583 390 460 331 b 431 653 207 544 285 653 z "},"ė":{"ha":764,"x_min":0,"x_max":0,"o":"m 451 824 b 524 897 489 824 524 856 b 451 968 524 935 489 968 b 379 897 413 968 379 935 b 451 824 379 856 413 824 z m 575 225 b 404 42 589 96 519 42 b 181 319 281 42 181 136 l 181 342 b 708 504 364 283 708 289 b 431 708 708 626 603 708 b 56 329 214 708 56 565 b 418 -14 56 135 157 -14 b 700 253 618 -14 714 128 z m 431 653 b 583 519 533 653 583 596 b 186 400 583 390 460 331 b 431 653 207 544 285 653 z "},"è":{"ha":764,"x_min":0,"x_max":0,"o":"m 504 792 l 546 819 b 440 972 482 844 440 885 l 301 1000 b 504 792 301 869 413 815 z m 575 225 b 404 42 589 96 519 42 b 181 319 281 42 181 136 l 181 342 b 708 504 364 283 708 289 b 431 708 708 626 603 708 b 56 329 214 708 56 565 b 418 -14 56 135 157 -14 b 700 253 618 -14 714 128 z m 431 653 b 583 519 533 653 583 596 b 186 400 583 390 460 331 b 431 653 207 544 285 653 z "},"ē":{"ha":764,"x_min":0,"x_max":0,"o":"m 650 924 l 251 924 l 251 868 l 650 868 z m 575 225 b 404 42 589 96 519 42 b 181 319 281 42 181 136 l 181 342 b 708 504 364 283 708 289 b 431 708 708 626 603 708 b 56 329 214 708 56 565 b 418 -14 56 135 157 -14 b 700 253 618 -14 714 128 z m 431 653 b 583 519 533 653 583 596 b 186 400 583 390 460 331 b 431 653 207 544 285 653 z "},"ę":{"ha":764,"x_min":0,"x_max":0,"o":"m 575 225 b 404 42 589 96 519 42 b 181 319 281 42 181 136 l 181 342 b 708 504 364 283 708 289 b 431 708 708 626 603 708 b 56 329 214 708 56 565 b 418 -14 56 135 157 -14 b 450 -12 429 -14 440 -14 l 450 -14 b 290 -186 339 -65 290 -125 b 593 -247 290 -319 478 -351 l 565 -192 b 388 -156 475 -257 388 -224 b 519 0 388 -122 408 -72 b 700 253 650 39 711 151 z m 431 653 b 583 519 533 653 583 596 b 186 400 583 390 460 331 b 431 653 207 544 285 653 z "},"f":{"ha":563,"x_min":0,"x_max":0,"o":"m 533 790 b 371 1014 575 901 535 1014 b 153 756 239 1014 153 953 l 153 694 l 56 694 l 56 639 l 153 639 l 153 133 b 83 28 153 67 142 28 l 83 0 l 347 0 l 347 28 b 278 133 289 28 278 67 l 278 639 l 432 639 b 474 694 474 639 474 667 l 278 694 b 376 958 278 829 278 958 b 408 818 447 958 450 892 z "},"g":{"ha":808,"x_min":0,"x_max":0,"o":"m 792 603 b 699 708 803 643 790 708 b 561 647 649 708 603 694 b 357 708 513 686 443 708 b 65 458 169 708 65 604 b 179 251 65 368 104 294 b 93 119 128 218 93 174 b 383 21 93 39 157 3 b 596 -79 518 32 596 21 b 388 -236 596 -185 518 -236 b 190 -37 274 -236 135 -204 l 65 -10 b 386 -292 10 -231 201 -292 b 721 -57 564 -292 721 -224 b 383 132 721 108 582 149 b 176 165 224 118 176 119 b 217 233 176 188 189 204 b 357 208 256 217 303 208 b 649 458 544 208 649 313 b 589 622 649 522 628 579 b 649 653 601 639 624 653 b 681 575 675 653 692 633 z m 417 272 b 196 418 304 244 219 319 b 297 644 171 517 210 622 b 518 499 410 672 494 597 b 417 272 543 400 504 294 z "},"ğ":{"ha":808,"x_min":0,"x_max":0,"o":"m 364 792 b 544 1000 510 792 544 903 l 489 1000 b 392 847 489 894 461 847 b 294 1000 322 847 294 894 l 169 1000 b 364 792 169 903 218 792 z m 792 603 b 699 708 803 643 790 708 b 561 647 649 708 603 694 b 357 708 513 686 443 708 b 65 458 169 708 65 604 b 179 251 65 368 104 294 b 93 119 128 218 93 174 b 383 21 93 39 157 3 b 596 -79 518 32 596 21 b 388 -236 596 -185 518 -236 b 190 -37 274 -236 135 -204 l 65 -10 b 386 -292 10 -231 201 -292 b 721 -57 564 -292 721 -224 b 383 132 721 108 582 149 b 176 165 224 118 176 119 b 217 233 176 188 189 204 b 357 208 256 217 303 208 b 649 458 544 208 649 313 b 589 622 649 522 628 579 b 649 653 601 639 624 653 b 681 575 675 653 692 633 z m 417 272 b 196 418 304 244 219 319 b 297 644 171 517 210 622 b 518 499 410 672 494 597 b 417 272 543 400 504 294 z "},"ģ":{"ha":808,"x_min":0,"x_max":0,"o":"m 358 813 b 429 882 401 813 429 844 b 372 953 429 919 410 953 b 336 942 356 953 344 949 b 415 1015 336 972 368 1000 l 410 1043 b 283 906 322 1025 283 964 b 358 813 283 839 317 813 z m 792 603 b 699 708 803 643 790 708 b 561 647 649 708 603 694 b 357 708 513 686 443 708 b 65 458 169 708 65 604 b 179 251 65 368 104 294 b 93 119 128 218 93 174 b 383 21 93 39 157 3 b 596 -79 518 32 596 21 b 388 -236 596 -185 518 -236 b 190 -37 274 -236 135 -204 l 65 -10 b 386 -292 10 -231 201 -292 b 721 -57 564 -292 721 -224 b 383 132 721 108 582 149 b 176 165 224 118 176 119 b 217 233 176 188 189 204 b 357 208 256 217 303 208 b 649 458 544 208 649 313 b 589 622 649 522 628 579 b 649 653 601 639 624 653 b 681 575 675 653 692 633 z m 417 272 b 196 418 304 244 219 319 b 297 644 171 517 210 622 b 518 499 410 672 494 597 b 417 272 543 400 504 294 z "},"ġ":{"ha":808,"x_min":0,"x_max":0,"o":"m 357 824 b 429 897 394 824 429 856 b 357 968 429 935 394 968 b 285 897 318 968 285 935 b 357 824 285 856 318 824 z m 792 603 b 699 708 803 643 790 708 b 561 647 649 708 603 694 b 357 708 513 686 443 708 b 65 458 169 708 65 604 b 179 251 65 368 104 294 b 93 119 128 218 93 174 b 383 21 93 39 157 3 b 596 -79 518 32 596 21 b 388 -236 596 -185 518 -236 b 190 -37 274 -236 135 -204 l 65 -10 b 386 -292 10 -231 201 -292 b 721 -57 564 -292 721 -224 b 383 132 721 108 582 149 b 176 165 224 118 176 119 b 217 233 176 188 189 204 b 357 208 256 217 303 208 b 649 458 544 208 649 313 b 589 622 649 522 628 579 b 649 653 601 639 624 653 b 681 575 675 653 692 633 z m 417 272 b 196 418 304 244 219 319 b 297 644 171 517 210 622 b 518 499 410 672 494 597 b 417 272 543 400 504 294 z "},"h":{"ha":863,"x_min":0,"x_max":0,"o":"m 738 133 l 738 443 b 506 708 738 624 656 708 b 264 478 374 708 292 625 l 250 478 l 250 917 b 139 1000 250 993 192 1000 l 56 1000 l 56 972 b 125 867 114 972 125 933 l 125 133 b 56 28 125 67 114 28 l 56 0 l 319 0 l 319 28 b 250 133 261 28 250 67 l 250 250 b 478 653 250 440 314 653 b 613 457 576 653 613 583 l 613 133 b 543 28 613 67 601 28 l 543 0 l 807 0 l 807 28 b 738 133 749 28 738 67 z "},"ħ":{"ha":863,"x_min":0,"x_max":0,"o":"m 738 133 l 738 443 b 506 708 738 624 656 708 b 264 478 374 708 292 625 l 250 478 l 250 757 l 444 757 l 444 813 l 250 813 l 250 917 b 139 1000 250 993 192 1000 l 56 1000 l 56 972 b 125 867 114 972 125 933 l 125 813 l 28 813 l 28 757 l 125 757 l 125 133 b 56 28 125 67 114 28 l 56 0 l 319 0 l 319 28 b 250 133 261 28 250 67 l 250 250 b 478 653 250 440 314 653 b 613 457 576 653 613 583 l 613 133 b 543 28 613 67 601 28 l 543 0 l 807 0 l 807 28 b 738 133 749 28 738 67 z "},"i":{"ha":375,"x_min":0,"x_max":0,"o":"m 178 786 b 250 860 215 786 250 818 b 178 931 250 897 215 931 b 106 860 139 931 106 897 b 178 786 106 818 139 786 z m 250 615 b 139 694 250 689 201 694 l 56 694 l 56 667 b 125 561 114 667 125 628 l 125 133 b 56 28 125 67 114 28 l 56 0 l 319 0 l 319 28 b 250 133 261 28 250 67 z "},"ı":{"ha":375,"x_min":0,"x_max":0,"o":"m 250 629 b 139 694 250 689 192 694 l 56 694 l 56 667 b 125 561 114 667 125 628 l 125 133 b 56 28 125 67 114 28 l 56 0 l 319 0 l 319 28 b 250 133 261 28 250 67 z "},"í":{"ha":375,"x_min":0,"x_max":0,"o":"m 65 819 l 107 792 b 310 1000 199 815 310 869 l 171 972 b 65 819 171 885 129 844 z m 250 629 b 139 694 250 689 192 694 l 56 694 l 56 667 b 125 561 114 667 125 628 l 125 133 b 56 28 125 67 114 28 l 56 0 l 319 0 l 319 28 b 250 133 261 28 250 67 z "},"î":{"ha":375,"x_min":0,"x_max":0,"o":"m 375 861 b 250 1000 296 889 264 935 l 125 1000 b 0 861 111 935 79 889 l 28 792 b 181 917 93 806 153 851 l 194 917 b 347 792 222 851 282 806 z m 250 629 b 139 694 250 689 192 694 l 56 694 l 56 667 b 125 561 114 667 125 628 l 125 133 b 56 28 125 67 114 28 l 56 0 l 319 0 l 319 28 b 250 133 261 28 250 67 z "},"ï":{"ha":375,"x_min":0,"x_max":0,"o":"m 79 824 b 151 897 117 824 151 856 b 79 968 151 935 117 968 b 7 897 40 968 7 935 b 79 824 7 856 40 824 z m 296 824 b 368 897 333 824 368 856 b 296 968 368 935 333 968 b 224 897 257 968 224 935 b 296 824 224 856 257 824 z m 250 629 b 139 694 250 689 192 694 l 56 694 l 56 667 b 125 561 114 667 125 628 l 125 133 b 56 28 125 67 114 28 l 56 0 l 319 0 l 319 28 b 250 133 261 28 250 67 z "},"ì":{"ha":375,"x_min":0,"x_max":0,"o":"m 282 819 b 176 972 218 844 176 885 l 38 1000 b 240 792 38 869 149 815 z m 250 629 b 139 694 250 689 192 694 l 56 694 l 56 667 b 125 561 114 667 125 628 l 125 133 b 56 28 125 67 114 28 l 56 0 l 319 0 l 319 28 b 250 133 261 28 250 67 z "},"ī":{"ha":375,"x_min":0,"x_max":0,"o":"m -12 924 l -12 868 l 386 868 l 386 924 z m 250 629 b 139 694 250 689 192 694 l 56 694 l 56 667 b 125 561 114 667 125 628 l 125 133 b 56 28 125 67 114 28 l 56 0 l 319 0 l 319 28 b 250 133 261 28 250 67 z "},"į":{"ha":375,"x_min":0,"x_max":0,"o":"m 188 824 b 260 897 225 824 260 856 b 188 968 260 935 225 968 b 115 897 149 968 115 935 b 188 824 115 856 149 824 z m 365 -192 b 188 -156 275 -257 188 -224 b 319 0 188 -122 208 -72 l 319 28 b 250 133 261 28 250 67 l 250 629 b 139 694 250 689 192 694 l 56 694 l 56 667 b 125 561 114 667 125 628 l 125 133 b 56 28 125 67 114 28 l 56 0 l 250 0 l 250 -14 b 90 -186 139 -65 90 -125 b 393 -247 90 -319 278 -351 z "},"j":{"ha":331,"x_min":0,"x_max":0,"o":"m 161 786 b 233 860 199 786 233 818 b 161 931 233 897 199 931 b 89 860 122 931 89 897 b 161 786 89 818 122 786 z m 122 694 l 39 694 l 39 667 b 108 561 97 667 108 628 l 108 0 b 14 -250 108 -106 94 -222 l 28 -306 b 233 0 150 -278 233 -190 l 233 615 b 122 694 233 688 175 694 z "},"k":{"ha":842,"x_min":0,"x_max":0,"o":"m 640 235 b 410 431 593 372 524 431 l 410 443 l 607 608 b 779 667 658 651 721 667 l 779 694 l 486 694 l 486 667 b 522 610 603 667 574 651 l 250 382 l 250 917 b 139 1000 250 993 192 1000 l 56 1000 l 56 972 b 125 867 114 972 125 933 l 125 133 b 56 28 125 67 114 28 l 56 0 l 319 0 l 319 28 b 250 133 261 28 250 67 l 250 310 l 335 381 b 522 196 424 381 467 351 b 814 0 579 33 614 0 l 814 28 b 640 235 718 28 692 85 z "},"ķ":{"ha":906,"x_min":0,"x_max":0,"o":"m 640 235 b 410 431 593 372 524 431 l 410 443 l 607 608 b 779 667 658 651 721 667 l 779 694 l 486 694 l 486 667 b 522 610 603 667 574 651 l 250 382 l 250 917 b 139 1000 250 993 192 1000 l 56 1000 l 56 972 b 125 867 114 972 125 933 l 125 133 b 56 28 125 67 114 28 l 56 0 l 319 0 l 319 28 b 250 133 261 28 250 67 l 250 310 l 335 381 b 522 196 424 381 467 351 b 814 0 579 33 614 0 l 814 28 b 640 235 718 28 692 85 z m 450 -111 b 379 -181 407 -111 379 -143 b 436 -251 379 -218 399 -251 b 472 -240 453 -251 464 -247 b 393 -300 467 -268 440 -285 l 399 -342 b 525 -204 486 -314 525 -274 b 450 -111 525 -137 492 -111 z "},"l":{"ha":361,"x_min":0,"x_max":0,"o":"m 250 917 b 139 1000 250 993 192 1000 l 56 1000 l 56 972 b 125 867 114 972 125 933 l 125 133 b 56 28 125 67 114 28 l 56 0 l 319 0 l 319 28 b 250 133 261 28 250 67 z "},"ĺ":{"ha":361,"x_min":0,"x_max":0,"o":"m 51 1125 l 93 1097 b 296 1306 185 1121 296 1175 l 157 1278 b 51 1125 157 1190 115 1150 z m 250 917 b 139 1000 250 993 192 1000 l 56 1000 l 56 972 b 125 867 114 972 125 933 l 125 133 b 56 28 125 67 114 28 l 56 0 l 319 0 l 319 28 b 250 133 261 28 250 67 z "},"ľ":{"ha":361,"x_min":0,"x_max":0,"o":"m 361 1238 l 333 1307 b 181 1182 268 1293 208 1247 l 167 1182 b 14 1307 139 1247 79 1293 l -14 1238 b 111 1099 65 1210 97 1164 l 236 1099 b 361 1238 250 1164 282 1210 z m 250 917 b 139 1000 250 993 192 1000 l 56 1000 l 56 972 b 125 867 114 972 125 933 l 125 133 b 56 28 125 67 114 28 l 56 0 l 319 0 l 319 28 b 250 133 261 28 250 67 z "},"ļ":{"ha":361,"x_min":0,"x_max":0,"o":"m 250 917 b 139 1000 250 993 192 1000 l 56 1000 l 56 972 b 125 867 114 972 125 933 l 125 133 b 56 28 125 67 114 28 l 56 0 l 319 0 l 319 28 b 250 133 261 28 250 67 z m 128 -300 l 133 -342 b 260 -204 221 -314 260 -274 b 185 -111 260 -137 226 -111 b 114 -181 142 -111 114 -143 b 171 -251 114 -218 133 -251 b 207 -240 188 -251 199 -247 b 128 -300 201 -268 175 -285 z "},"ł":{"ha":375,"x_min":0,"x_max":0,"o":"m 347 635 l 347 694 l 250 664 l 250 917 b 139 1000 250 993 192 1000 l 56 1000 l 56 972 b 125 867 114 972 125 933 l 125 625 l 28 594 l 28 535 l 125 565 l 125 133 b 56 28 125 67 114 28 l 56 0 l 319 0 l 319 28 b 250 133 261 28 250 67 l 250 604 z "},"m":{"ha":1239,"x_min":0,"x_max":0,"o":"m 1114 133 l 1114 478 b 924 708 1114 644 1046 708 b 696 478 806 708 738 639 l 682 478 b 492 708 682 644 614 708 b 264 478 374 708 306 639 l 250 478 l 250 629 b 139 694 250 689 192 694 l 56 694 l 56 667 b 125 561 114 667 125 628 l 125 133 b 56 28 125 67 114 28 l 56 0 l 319 0 l 319 28 b 250 133 261 28 250 67 l 250 250 b 464 653 250 468 342 653 b 557 513 528 653 557 597 l 557 133 b 488 28 557 67 546 28 l 488 0 l 751 0 l 751 28 b 682 133 693 28 682 67 l 682 250 b 896 653 682 468 774 653 b 989 513 960 653 989 597 l 989 133 b 919 28 989 67 978 28 l 919 0 l 1183 0 l 1183 28 b 1114 133 1125 28 1114 67 z "},"n":{"ha":863,"x_min":0,"x_max":0,"o":"m 738 133 l 738 443 b 506 708 738 624 656 708 b 264 478 374 708 292 625 l 250 478 l 250 629 b 139 694 250 689 192 694 l 56 694 l 56 667 b 125 561 114 667 125 628 l 125 133 b 56 28 125 67 114 28 l 56 0 l 319 0 l 319 28 b 250 133 261 28 250 67 l 250 250 b 478 653 250 440 314 653 b 613 457 576 653 613 583 l 613 133 b 543 28 613 67 601 28 l 543 0 l 807 0 l 807 28 b 738 133 749 28 738 67 z "},"ń":{"ha":863,"x_min":0,"x_max":0,"o":"m 554 1000 l 415 972 b 310 819 415 885 374 844 l 351 792 b 554 1000 443 815 554 869 z m 738 133 l 738 443 b 506 708 738 624 656 708 b 264 478 374 708 292 625 l 250 478 l 250 629 b 139 694 250 689 192 694 l 56 694 l 56 667 b 125 561 114 667 125 628 l 125 133 b 56 28 125 67 114 28 l 56 0 l 319 0 l 319 28 b 250 133 261 28 250 67 l 250 250 b 478 653 250 440 314 653 b 613 457 576 653 613 583 l 613 133 b 543 28 613 67 601 28 l 543 0 l 807 0 l 807 28 b 738 133 749 28 738 67 z "},"ň":{"ha":863,"x_min":0,"x_max":0,"o":"m 369 793 l 494 793 b 619 932 508 858 540 904 l 592 1001 b 439 876 526 988 467 942 l 425 876 b 272 1001 397 942 338 988 l 244 932 b 369 793 324 904 356 858 z m 738 133 l 738 443 b 506 708 738 624 656 708 b 264 478 374 708 292 625 l 250 478 l 250 629 b 139 694 250 689 192 694 l 56 694 l 56 667 b 125 561 114 667 125 628 l 125 133 b 56 28 125 67 114 28 l 56 0 l 319 0 l 319 28 b 250 133 261 28 250 67 l 250 250 b 478 653 250 440 314 653 b 613 457 576 653 613 583 l 613 133 b 543 28 613 67 601 28 l 543 0 l 807 0 l 807 28 b 738 133 749 28 738 67 z "},"ņ":{"ha":863,"x_min":0,"x_max":0,"o":"m 738 133 l 738 443 b 506 708 738 624 656 708 b 264 478 374 708 292 625 l 250 478 l 250 629 b 139 694 250 689 192 694 l 56 694 l 56 667 b 125 561 114 667 125 628 l 125 133 b 56 28 125 67 114 28 l 56 0 l 319 0 l 319 28 b 250 133 261 28 250 67 l 250 250 b 478 653 250 440 314 653 b 613 457 576 653 613 583 l 613 133 b 543 28 613 67 601 28 l 543 0 l 807 0 l 807 28 b 738 133 749 28 738 67 z m 429 -111 b 358 -181 386 -111 358 -143 b 415 -251 358 -218 378 -251 b 451 -240 432 -251 443 -247 b 372 -300 446 -268 419 -285 l 378 -342 b 504 -204 465 -314 504 -274 b 429 -111 504 -137 471 -111 z "},"ŋ":{"ha":793,"x_min":0,"x_max":0,"o":"m 506 708 b 264 478 374 708 292 625 l 250 478 l 250 629 b 139 694 250 689 192 694 l 56 694 l 56 667 b 125 561 114 667 125 628 l 125 133 b 56 28 125 67 114 28 l 56 0 l 319 0 l 319 28 b 250 133 261 28 250 67 l 250 250 b 478 653 250 440 314 653 b 613 457 576 653 613 583 l 613 0 b 518 -236 613 -133 599 -236 b 439 -208 494 -236 475 -231 l 411 -264 b 532 -292 468 -289 501 -292 b 738 0 654 -292 738 -218 l 738 443 b 506 708 738 624 656 708 z "},"ñ":{"ha":863,"x_min":0,"x_max":0,"o":"m 297 806 b 322 917 267 889 285 917 b 550 792 385 917 424 792 b 650 958 626 792 681 860 l 567 986 b 542 875 597 903 579 875 b 314 1000 479 875 440 1000 b 214 833 238 1000 183 932 z m 738 133 l 738 443 b 506 708 738 624 656 708 b 264 478 374 708 292 625 l 250 478 l 250 629 b 139 694 250 689 192 694 l 56 694 l 56 667 b 125 561 114 667 125 628 l 125 133 b 56 28 125 67 114 28 l 56 0 l 319 0 l 319 28 b 250 133 261 28 250 67 l 250 250 b 478 653 250 440 314 653 b 613 457 576 653 613 583 l 613 133 b 543 28 613 67 601 28 l 543 0 l 807 0 l 807 28 b 738 133 749 28 738 67 z "},"o":{"ha":806,"x_min":0,"x_max":0,"o":"m 56 347 b 403 -14 56 160 174 -14 b 750 347 632 -14 750 160 b 403 708 750 535 632 708 b 56 347 174 708 56 535 z m 182 319 b 365 650 161 489 207 631 b 624 375 524 669 603 542 b 440 44 644 206 599 64 b 182 319 282 25 203 153 z "},"ó":{"ha":806,"x_min":0,"x_max":0,"o":"m 281 819 l 322 792 b 525 1000 414 815 525 869 l 386 972 b 281 819 386 885 344 844 z m 56 347 b 403 -14 56 160 174 -14 b 750 347 632 -14 750 160 b 403 708 750 535 632 708 b 56 347 174 708 56 535 z m 182 319 b 365 650 161 489 207 631 b 624 375 524 669 603 542 b 440 44 644 206 599 64 b 182 319 282 25 203 153 z "},"ô":{"ha":806,"x_min":0,"x_max":0,"o":"m 590 861 b 465 1000 511 889 479 935 l 340 1000 b 215 861 326 935 294 889 l 243 792 b 396 917 308 806 368 851 l 410 917 b 563 792 438 851 497 806 z m 56 347 b 403 -14 56 160 174 -14 b 750 347 632 -14 750 160 b 403 708 750 535 632 708 b 56 347 174 708 56 535 z m 182 319 b 365 650 161 489 207 631 b 624 375 524 669 603 542 b 440 44 644 206 599 64 b 182 319 282 25 203 153 z "},"ö":{"ha":806,"x_min":0,"x_max":0,"o":"m 294 824 b 367 897 332 824 367 856 b 294 968 367 935 332 968 b 222 897 256 968 222 935 b 294 824 222 856 256 824 z m 511 824 b 583 897 549 824 583 856 b 511 968 583 935 549 968 b 439 897 472 968 439 935 b 511 824 439 856 472 824 z m 56 347 b 403 -14 56 160 174 -14 b 750 347 632 -14 750 160 b 403 708 750 535 632 708 b 56 347 174 708 56 535 z m 182 319 b 365 650 161 489 207 631 b 624 375 524 669 603 542 b 440 44 644 206 599 64 b 182 319 282 25 203 153 z "},"ò":{"ha":806,"x_min":0,"x_max":0,"o":"m 497 819 b 392 972 433 844 392 885 l 253 1000 b 456 792 253 869 364 815 z m 56 347 b 403 -14 56 160 174 -14 b 750 347 632 -14 750 160 b 403 708 750 535 632 708 b 56 347 174 708 56 535 z m 182 319 b 365 650 161 489 207 631 b 624 375 524 669 603 542 b 440 44 644 206 599 64 b 182 319 282 25 203 153 z "},"ő":{"ha":806,"x_min":0,"x_max":0,"o":"m 413 847 l 454 819 b 657 1028 546 843 657 897 l 518 1000 b 413 847 518 913 476 872 z m 204 819 l 246 792 b 449 1000 338 815 449 869 l 310 972 b 204 819 310 885 268 844 z m 56 347 b 403 -14 56 160 174 -14 b 750 347 632 -14 750 160 b 403 708 750 535 632 708 b 56 347 174 708 56 535 z m 182 319 b 365 650 161 489 207 631 b 624 375 524 669 603 542 b 440 44 644 206 599 64 b 182 319 282 25 203 153 z "},"ō":{"ha":806,"x_min":0,"x_max":0,"o":"m 203 924 l 203 868 l 601 868 l 601 924 z m 56 347 b 403 -14 56 160 174 -14 b 750 347 632 -14 750 160 b 403 708 750 535 632 708 b 56 347 174 708 56 535 z m 182 319 b 365 650 161 489 207 631 b 624 375 524 669 603 542 b 440 44 644 206 599 64 b 182 319 282 25 203 153 z "},"ø":{"ha":806,"x_min":0,"x_max":0,"o":"m 563 675 l 647 889 l 588 889 l 510 694 b 403 708 478 703 442 708 b 56 347 174 708 56 535 b 243 19 56 210 119 79 l 158 -194 l 218 -194 l 296 0 b 403 -14 328 -8 364 -14 b 750 347 632 -14 750 160 b 563 675 750 485 686 615 z m 182 319 b 365 650 161 489 207 631 b 486 632 413 656 451 649 l 274 97 b 182 319 222 147 193 228 z m 440 44 b 319 63 393 39 354 46 l 532 597 b 624 375 583 547 613 467 b 440 44 644 206 599 64 z "},"õ":{"ha":806,"x_min":0,"x_max":0,"o":"m 521 792 b 621 958 597 792 651 860 l 538 986 b 513 875 568 903 550 875 b 285 1000 450 875 411 1000 b 185 833 208 1000 154 932 l 268 806 b 293 917 238 889 256 917 b 521 792 356 917 394 792 z m 56 347 b 403 -14 56 160 174 -14 b 750 347 632 -14 750 160 b 403 708 750 535 632 708 b 56 347 174 708 56 535 z m 182 319 b 365 650 161 489 207 631 b 624 375 524 669 603 542 b 440 44 644 206 599 64 b 182 319 282 25 203 153 z "},"œ":{"ha":1338,"x_min":0,"x_max":0,"o":"m 1149 225 b 978 42 1163 96 1093 42 b 754 319 854 42 754 136 l 754 342 b 1282 504 938 283 1282 289 b 1004 708 1282 626 1176 708 b 693 557 871 708 758 654 b 403 708 638 646 540 708 b 56 347 174 708 56 535 b 403 -14 56 160 174 -14 b 683 122 532 -14 625 42 b 992 -14 738 39 836 -14 b 1274 253 1192 -14 1288 128 z m 440 44 b 182 319 282 25 203 153 b 365 650 161 489 207 631 b 624 375 524 669 603 542 b 440 44 644 206 599 64 z m 1004 653 b 1157 519 1107 653 1157 596 b 760 400 1157 390 1033 331 b 1004 653 781 544 858 653 z "},"p":{"ha":889,"x_min":0,"x_max":0,"o":"m 833 347 b 507 708 833 575 693 708 b 264 547 394 708 301 643 l 250 547 l 250 611 b 139 694 250 688 192 694 l 56 694 l 56 667 b 125 561 114 667 125 628 l 125 -172 b 56 -278 125 -239 114 -278 l 56 -306 l 319 -306 l 319 -278 b 250 -172 261 -278 250 -239 l 250 147 l 264 147 b 507 -14 301 51 394 -14 b 833 347 693 -14 833 119 z m 694 347 b 479 42 694 182 631 42 b 264 347 328 42 264 182 b 479 653 264 513 328 653 b 694 347 631 653 694 513 z "},"þ":{"ha":889,"x_min":0,"x_max":0,"o":"m 833 347 b 507 708 833 575 693 708 b 264 547 394 708 301 643 l 250 547 l 250 917 b 139 1000 250 993 192 1000 l 56 1000 l 56 972 b 125 867 114 972 125 933 l 125 -172 b 56 -278 125 -239 114 -278 l 56 -306 l 319 -306 l 319 -278 b 250 -172 261 -278 250 -239 l 250 147 l 264 147 b 507 -14 301 51 394 -14 b 833 347 693 -14 833 119 z m 694 347 b 479 42 694 182 631 42 b 264 347 328 42 264 182 b 479 653 264 513 328 653 b 694 347 631 653 694 513 z "},"q":{"ha":889,"x_min":0,"x_max":0,"o":"m 56 347 b 382 -14 56 119 196 -14 b 625 147 494 -14 588 51 l 639 147 l 639 -172 b 569 -278 639 -239 628 -278 l 569 -306 l 833 -306 l 833 -278 b 764 -172 775 -278 764 -239 l 764 561 b 833 667 764 628 775 667 l 833 694 l 750 694 b 639 611 697 694 639 688 l 639 547 l 625 547 b 382 708 588 643 494 708 b 56 347 196 708 56 575 z m 194 347 b 410 653 194 513 258 653 b 625 347 561 653 625 513 b 410 42 625 182 561 42 b 194 347 258 42 194 182 z "},"r":{"ha":706,"x_min":0,"x_max":0,"o":"m 506 708 b 264 478 360 708 292 583 l 250 478 l 250 629 b 139 694 250 689 192 694 l 56 694 l 56 667 b 125 561 114 667 125 628 l 125 133 b 56 28 125 67 114 28 l 56 0 l 319 0 l 319 28 b 250 133 261 28 250 67 l 250 250 b 478 653 250 440 342 653 b 515 457 554 653 571 586 l 640 429 b 506 708 696 596 656 708 z "},"ŕ":{"ha":706,"x_min":0,"x_max":0,"o":"m 479 1000 l 340 972 b 235 819 340 885 299 844 l 276 792 b 479 1000 368 815 479 869 z m 506 708 b 264 478 360 708 292 583 l 250 478 l 250 629 b 139 694 250 689 192 694 l 56 694 l 56 667 b 125 561 114 667 125 628 l 125 133 b 56 28 125 67 114 28 l 56 0 l 319 0 l 319 28 b 250 133 261 28 250 67 l 250 250 b 478 653 250 440 342 653 b 515 457 554 653 571 586 l 640 429 b 506 708 696 596 656 708 z "},"ř":{"ha":706,"x_min":0,"x_max":0,"o":"m 294 793 l 419 793 b 544 932 433 858 465 904 l 517 1001 b 364 876 451 988 392 942 l 350 876 b 197 1001 322 942 263 988 l 169 932 b 294 793 249 904 281 858 z m 506 708 b 264 478 360 708 292 583 l 250 478 l 250 629 b 139 694 250 689 192 694 l 56 694 l 56 667 b 125 561 114 667 125 628 l 125 133 b 56 28 125 67 114 28 l 56 0 l 319 0 l 319 28 b 250 133 261 28 250 67 l 250 250 b 478 653 250 440 342 653 b 515 457 554 653 571 586 l 640 429 b 506 708 696 596 656 708 z "},"ŗ":{"ha":706,"x_min":0,"x_max":0,"o":"m 506 708 b 264 478 360 708 292 583 l 250 478 l 250 629 b 139 694 250 689 192 694 l 56 694 l 56 667 b 125 561 114 667 125 628 l 125 133 b 56 28 125 67 114 28 l 56 0 l 319 0 l 319 28 b 250 133 261 28 250 67 l 250 250 b 478 653 250 440 342 653 b 515 457 554 653 571 586 l 640 429 b 506 708 696 596 656 708 z m 196 -111 b 125 -181 153 -111 125 -143 b 182 -251 125 -218 144 -251 b 218 -240 199 -251 210 -247 b 139 -300 213 -268 186 -285 l 144 -342 b 271 -204 232 -314 271 -274 b 196 -111 271 -137 238 -111 z "},"s":{"ha":693,"x_min":0,"x_max":0,"o":"m 56 515 b 356 303 56 378 171 351 b 526 164 461 269 526 257 b 367 42 526 93 469 42 b 176 254 253 42 121 74 l 51 282 b 365 -14 -4 47 181 -14 b 651 193 515 -14 651 40 b 356 424 651 344 525 379 b 181 551 235 460 181 465 b 340 653 181 601 224 653 b 489 496 426 653 544 621 l 614 468 b 342 708 669 647 499 708 b 56 515 178 708 56 654 z "},"ś":{"ha":693,"x_min":0,"x_max":0,"o":"m 225 819 l 267 792 b 469 1000 358 815 469 869 l 331 972 b 225 819 331 885 289 844 z m 56 515 b 356 303 56 378 171 351 b 526 164 461 269 526 257 b 367 42 526 93 469 42 b 176 254 253 42 121 74 l 51 282 b 365 -14 -4 47 181 -14 b 651 193 515 -14 651 40 b 356 424 651 344 525 379 b 181 551 235 460 181 465 b 340 653 181 601 224 653 b 489 496 426 653 544 621 l 614 468 b 342 708 669 647 499 708 b 56 515 178 708 56 654 z "},"š":{"ha":693,"x_min":0,"x_max":0,"o":"m 535 932 l 507 1001 b 354 876 442 988 382 942 l 340 876 b 188 1001 313 942 253 988 l 160 932 b 285 793 239 904 271 858 l 410 793 b 535 932 424 858 456 904 z m 56 515 b 356 303 56 378 171 351 b 526 164 461 269 526 257 b 367 42 526 93 469 42 b 176 254 253 42 121 74 l 51 282 b 365 -14 -4 47 181 -14 b 651 193 515 -14 651 40 b 356 424 651 344 525 379 b 181 551 235 460 181 465 b 340 653 181 601 224 653 b 489 496 426 653 544 621 l 614 468 b 342 708 669 647 499 708 b 56 515 178 708 56 654 z "},"ş":{"ha":693,"x_min":0,"x_max":0,"o":"m 651 193 b 356 424 651 344 525 379 b 181 551 235 460 181 465 b 340 653 181 601 224 653 b 489 496 426 653 544 621 l 614 468 b 342 708 669 647 499 708 b 56 515 178 708 56 654 b 356 303 56 378 171 351 b 526 164 461 269 526 257 b 367 42 526 93 469 42 b 176 254 253 42 121 74 l 51 282 b 297 -11 3 76 138 4 l 269 -153 l 297 -161 b 388 -139 321 -147 353 -139 b 442 -189 425 -139 442 -158 b 358 -262 442 -237 408 -262 b 311 -210 333 -262 292 -250 l 228 -185 b 364 -318 204 -278 288 -318 b 525 -187 449 -318 525 -278 b 417 -83 525 -111 468 -83 b 335 -106 385 -83 357 -92 l 321 -106 l 374 -14 b 651 193 521 -11 651 43 z "},"ș":{"ha":693,"x_min":0,"x_max":0,"o":"m 56 515 b 356 303 56 378 171 351 b 526 164 461 269 526 257 b 367 42 526 93 469 42 b 176 254 253 42 121 74 l 51 282 b 365 -14 -4 47 181 -14 b 651 193 515 -14 651 40 b 356 424 651 344 525 379 b 181 551 235 460 181 465 b 340 653 181 601 224 653 b 489 496 426 653 544 621 l 614 468 b 342 708 669 647 499 708 b 56 515 178 708 56 654 z m 288 -300 l 293 -342 b 419 -204 381 -314 419 -274 b 344 -111 419 -137 386 -111 b 274 -181 301 -111 274 -143 b 331 -251 274 -218 293 -251 b 367 -240 347 -251 358 -247 b 288 -300 361 -268 335 -285 z "},"ß":{"ha":808,"x_min":0,"x_max":0,"o":"m 125 611 l 125 133 b 56 28 125 67 114 28 l 56 0 l 139 0 b 250 83 182 1 250 8 l 250 639 b 415 875 250 807 296 875 b 544 700 519 875 544 818 b 356 522 450 686 356 649 b 656 147 356 301 656 324 b 543 42 656 99 628 42 b 458 244 438 42 400 110 l 333 272 b 546 -14 275 67 410 -14 b 781 188 682 -14 781 71 b 481 574 781 435 481 401 b 669 665 481 657 574 665 b 414 931 669 874 538 931 b 125 611 257 931 125 874 z "},"t":{"ha":507,"x_min":0,"x_max":0,"o":"m 382 90 b 335 42 379 60 367 42 b 264 236 276 42 264 101 l 264 639 l 390 639 b 432 694 432 639 432 667 l 264 694 l 264 917 l 208 917 b 56 694 208 739 146 708 l 56 639 l 139 639 l 139 203 b 322 -14 139 18 238 -14 b 465 63 381 -14 438 0 z "},"ŧ":{"ha":507,"x_min":0,"x_max":0,"o":"m 382 90 b 335 42 379 60 367 42 b 264 236 276 42 264 101 l 264 389 l 431 389 l 431 444 l 264 444 l 264 639 l 390 639 b 432 694 432 639 432 667 l 264 694 l 264 917 l 208 917 b 56 694 208 739 146 708 l 56 639 l 139 639 l 139 444 l 56 444 l 56 389 l 139 389 l 139 203 b 322 -14 139 18 238 -14 b 465 63 381 -14 438 0 z "},"ť":{"ha":507,"x_min":0,"x_max":0,"o":"m 410 778 b 458 951 424 867 458 890 b 396 1014 458 972 450 1014 b 333 951 340 1014 333 972 b 382 778 333 890 368 867 z m 382 90 b 335 42 379 60 367 42 b 264 236 276 42 264 101 l 264 639 l 390 639 b 432 694 432 639 432 667 l 264 694 l 264 917 l 208 917 b 56 694 208 739 146 708 l 56 639 l 139 639 l 139 203 b 322 -14 139 18 238 -14 b 465 63 381 -14 438 0 z "},"ţ":{"ha":507,"x_min":0,"x_max":0,"o":"m 386 -83 b 304 -106 354 -83 326 -92 l 290 -106 l 344 -12 b 465 63 394 -10 440 8 l 382 90 b 335 42 379 60 367 42 b 264 236 276 42 264 101 l 264 639 l 390 639 b 432 694 432 639 432 667 l 264 694 l 264 917 l 208 917 b 56 694 208 739 146 708 l 56 639 l 139 639 l 139 203 b 267 -8 139 58 200 7 l 239 -153 l 267 -161 b 357 -139 290 -147 322 -139 b 411 -189 394 -139 411 -158 b 328 -262 411 -237 378 -262 b 281 -210 303 -262 261 -250 l 197 -185 b 333 -318 174 -278 257 -318 b 494 -187 418 -318 494 -278 b 386 -83 494 -111 438 -83 z "},"ț":{"ha":507,"x_min":0,"x_max":0,"o":"m 382 90 b 335 42 379 60 367 42 b 264 236 276 42 264 101 l 264 639 l 390 639 b 432 694 432 639 432 667 l 264 694 l 264 917 l 208 917 b 56 694 208 739 146 708 l 56 639 l 139 639 l 139 203 b 322 -14 139 18 238 -14 b 465 63 381 -14 438 0 z m 314 -111 b 243 -181 271 -111 243 -143 b 300 -251 243 -218 263 -251 b 336 -240 317 -251 328 -247 b 257 -300 331 -268 304 -285 l 263 -342 b 389 -204 350 -314 389 -274 b 314 -111 389 -137 356 -111 z "},"u":{"ha":863,"x_min":0,"x_max":0,"o":"m 807 667 l 807 694 l 543 694 l 543 667 b 613 561 601 667 613 628 l 613 444 b 385 42 613 254 549 42 b 250 238 286 42 250 111 l 250 561 b 319 667 250 628 261 667 l 319 694 l 56 694 l 56 667 b 125 561 114 667 125 628 l 125 251 b 357 -14 125 71 207 -14 b 599 217 489 -14 571 69 l 613 217 l 613 65 b 724 0 613 6 671 0 l 807 0 l 807 28 b 738 133 749 28 738 67 l 738 561 b 807 667 738 628 749 667 z "},"ú":{"ha":863,"x_min":0,"x_max":0,"o":"m 554 1000 l 415 972 b 310 819 415 885 374 844 l 351 792 b 554 1000 443 815 554 869 z m 807 667 l 807 694 l 543 694 l 543 667 b 613 561 601 667 613 628 l 613 444 b 385 42 613 254 549 42 b 250 238 286 42 250 111 l 250 561 b 319 667 250 628 261 667 l 319 694 l 56 694 l 56 667 b 125 561 114 667 125 628 l 125 251 b 357 -14 125 71 207 -14 b 599 217 489 -14 571 69 l 613 217 l 613 65 b 724 0 613 6 671 0 l 807 0 l 807 28 b 738 133 749 28 738 67 l 738 561 b 807 667 738 628 749 667 z "},"û":{"ha":863,"x_min":0,"x_max":0,"o":"m 425 917 l 439 917 b 592 792 467 851 526 806 l 619 861 b 494 1000 540 889 508 935 l 369 1000 b 244 861 356 935 324 889 l 272 792 b 425 917 338 806 397 851 z m 807 667 l 807 694 l 543 694 l 543 667 b 613 561 601 667 613 628 l 613 444 b 385 42 613 254 549 42 b 250 238 286 42 250 111 l 250 561 b 319 667 250 628 261 667 l 319 694 l 56 694 l 56 667 b 125 561 114 667 125 628 l 125 251 b 357 -14 125 71 207 -14 b 599 217 489 -14 571 69 l 613 217 l 613 65 b 724 0 613 6 671 0 l 807 0 l 807 28 b 738 133 749 28 738 67 l 738 561 b 807 667 738 628 749 667 z "},"ü":{"ha":863,"x_min":0,"x_max":0,"o":"m 324 824 b 396 897 361 824 396 856 b 324 968 396 935 361 968 b 251 897 285 968 251 935 b 324 824 251 856 285 824 z m 540 824 b 613 897 578 824 613 856 b 540 968 613 935 578 968 b 468 897 501 968 468 935 b 540 824 468 856 501 824 z m 807 667 l 807 694 l 543 694 l 543 667 b 613 561 601 667 613 628 l 613 444 b 385 42 613 254 549 42 b 250 238 286 42 250 111 l 250 561 b 319 667 250 628 261 667 l 319 694 l 56 694 l 56 667 b 125 561 114 667 125 628 l 125 251 b 357 -14 125 71 207 -14 b 599 217 489 -14 571 69 l 613 217 l 613 65 b 724 0 613 6 671 0 l 807 0 l 807 28 b 738 133 749 28 738 67 l 738 561 b 807 667 738 628 749 667 z "},"ù":{"ha":863,"x_min":0,"x_max":0,"o":"m 485 792 l 526 819 b 421 972 463 844 421 885 l 282 1000 b 485 792 282 869 393 815 z m 807 667 l 807 694 l 543 694 l 543 667 b 613 561 601 667 613 628 l 613 444 b 385 42 613 254 549 42 b 250 238 286 42 250 111 l 250 561 b 319 667 250 628 261 667 l 319 694 l 56 694 l 56 667 b 125 561 114 667 125 628 l 125 251 b 357 -14 125 71 207 -14 b 599 217 489 -14 571 69 l 613 217 l 613 65 b 724 0 613 6 671 0 l 807 0 l 807 28 b 738 133 749 28 738 67 l 738 561 b 807 667 738 628 749 667 z "},"ű":{"ha":863,"x_min":0,"x_max":0,"o":"m 483 819 b 686 1028 575 843 686 897 l 547 1000 b 442 847 547 913 506 872 z m 478 1000 l 339 972 b 233 819 339 885 297 844 l 275 792 b 478 1000 367 815 478 869 z m 807 667 l 807 694 l 543 694 l 543 667 b 613 561 601 667 613 628 l 613 444 b 385 42 613 254 549 42 b 250 238 286 42 250 111 l 250 561 b 319 667 250 628 261 667 l 319 694 l 56 694 l 56 667 b 125 561 114 667 125 628 l 125 251 b 357 -14 125 71 207 -14 b 599 217 489 -14 571 69 l 613 217 l 613 65 b 724 0 613 6 671 0 l 807 0 l 807 28 b 738 133 749 28 738 67 l 738 561 b 807 667 738 628 749 667 z "},"ū":{"ha":863,"x_min":0,"x_max":0,"o":"m 631 924 l 232 924 l 232 868 l 631 868 z m 807 667 l 807 694 l 543 694 l 543 667 b 613 561 601 667 613 628 l 613 444 b 385 42 613 254 549 42 b 250 238 286 42 250 111 l 250 561 b 319 667 250 628 261 667 l 319 694 l 56 694 l 56 667 b 125 561 114 667 125 628 l 125 251 b 357 -14 125 71 207 -14 b 599 217 489 -14 571 69 l 613 217 l 613 65 b 724 0 613 6 671 0 l 807 0 l 807 28 b 738 133 749 28 738 67 l 738 561 b 807 667 738 628 749 667 z "},"ų":{"ha":863,"x_min":0,"x_max":0,"o":"m 831 -192 b 653 -156 740 -257 653 -224 b 785 0 653 -122 674 -72 l 807 0 l 807 28 b 738 133 749 28 738 67 l 738 561 b 807 667 738 628 749 667 l 807 694 l 543 694 l 543 667 b 613 561 601 667 613 628 l 613 444 b 385 42 613 254 549 42 b 250 238 286 42 250 111 l 250 561 b 319 667 250 628 261 667 l 319 694 l 56 694 l 56 667 b 125 561 114 667 125 628 l 125 251 b 357 -14 125 71 207 -14 b 599 217 489 -14 571 69 l 613 217 l 613 65 b 724 0 613 6 671 0 l 715 0 l 715 -14 b 556 -186 604 -65 556 -125 b 858 -247 556 -319 743 -351 z "},"ů":{"ha":863,"x_min":0,"x_max":0,"o":"m 432 792 b 564 896 519 792 564 838 b 432 1000 564 951 519 1000 b 300 896 343 1000 300 951 b 432 792 300 838 343 792 z m 432 944 b 481 896 465 944 481 931 b 432 847 481 861 465 847 b 383 896 399 847 383 861 b 432 944 383 931 399 944 z m 807 667 l 807 694 l 543 694 l 543 667 b 613 561 601 667 613 628 l 613 444 b 385 42 613 254 549 42 b 250 238 286 42 250 111 l 250 561 b 319 667 250 628 261 667 l 319 694 l 56 694 l 56 667 b 125 561 114 667 125 628 l 125 251 b 357 -14 125 71 207 -14 b 599 217 489 -14 571 69 l 613 217 l 613 65 b 724 0 613 6 671 0 l 807 0 l 807 28 b 738 133 749 28 738 67 l 738 561 b 807 667 738 628 749 667 z "},"v":{"ha":861,"x_min":0,"x_max":0,"o":"m 847 694 l 565 694 l 565 667 b 657 569 682 667 681 632 l 468 78 l 278 569 b 369 667 254 632 253 667 l 369 694 l 14 694 l 14 667 b 144 569 83 667 121 632 l 364 0 l 497 0 l 717 569 b 847 667 740 632 778 667 z "},"w":{"ha":1233,"x_min":0,"x_max":0,"o":"m 1219 694 l 932 694 l 932 667 b 1031 568 1049 667 1050 631 l 878 89 l 674 694 l 615 694 l 425 92 l 274 568 b 372 667 254 631 256 667 l 372 694 l 14 694 l 14 667 b 144 567 90 667 124 631 l 322 0 l 454 0 l 610 490 l 776 0 l 908 0 l 1089 568 b 1219 667 1108 631 1143 667 z "},"ẃ":{"ha":1233,"x_min":0,"x_max":0,"o":"m 738 1000 l 599 972 b 493 819 599 885 557 844 l 535 792 b 738 1000 626 815 738 869 z m 1219 694 l 932 694 l 932 667 b 1031 568 1049 667 1050 631 l 878 89 l 674 694 l 615 694 l 425 92 l 274 568 b 372 667 254 631 256 667 l 372 694 l 14 694 l 14 667 b 144 567 90 667 124 631 l 322 0 l 454 0 l 610 490 l 776 0 l 908 0 l 1089 568 b 1219 667 1108 631 1143 667 z "},"ŵ":{"ha":1233,"x_min":0,"x_max":0,"o":"m 608 917 l 622 917 b 775 792 650 851 710 806 l 803 861 b 678 1000 724 889 692 935 l 553 1000 b 428 861 539 935 507 889 l 456 792 b 608 917 521 806 581 851 z m 1219 694 l 932 694 l 932 667 b 1031 568 1049 667 1050 631 l 878 89 l 674 694 l 615 694 l 425 92 l 274 568 b 372 667 254 631 256 667 l 372 694 l 14 694 l 14 667 b 144 567 90 667 124 631 l 322 0 l 454 0 l 610 490 l 776 0 l 908 0 l 1089 568 b 1219 667 1108 631 1143 667 z "},"ẅ":{"ha":1233,"x_min":0,"x_max":0,"o":"m 507 824 b 579 897 544 824 579 856 b 507 968 579 935 544 968 b 435 897 468 968 435 935 b 507 824 435 856 468 824 z m 724 824 b 796 897 761 824 796 856 b 724 968 796 935 761 968 b 651 897 685 968 651 935 b 724 824 651 856 685 824 z m 1219 694 l 932 694 l 932 667 b 1031 568 1049 667 1050 631 l 878 89 l 674 694 l 615 694 l 425 92 l 274 568 b 372 667 254 631 256 667 l 372 694 l 14 694 l 14 667 b 144 567 90 667 124 631 l 322 0 l 454 0 l 610 490 l 776 0 l 908 0 l 1089 568 b 1219 667 1108 631 1143 667 z "},"ẁ":{"ha":1233,"x_min":0,"x_max":0,"o":"m 668 792 l 710 819 b 604 972 646 844 604 885 l 465 1000 b 668 792 465 869 576 815 z m 1219 694 l 932 694 l 932 667 b 1031 568 1049 667 1050 631 l 878 89 l 674 694 l 615 694 l 425 92 l 274 568 b 372 667 254 631 256 667 l 372 694 l 14 694 l 14 667 b 144 567 90 667 124 631 l 322 0 l 454 0 l 610 490 l 776 0 l 908 0 l 1089 568 b 1219 667 1108 631 1143 667 z "},"x":{"ha":857,"x_min":0,"x_max":0,"o":"m 829 667 l 829 694 l 554 694 l 554 667 b 615 586 671 667 654 640 l 472 390 l 328 588 b 388 667 288 640 271 667 l 388 694 l 28 694 l 28 667 b 176 588 86 667 136 640 l 350 351 l 175 108 b 28 28 136 54 86 28 l 28 0 l 303 0 l 303 28 b 242 108 186 28 203 54 l 385 304 l 529 107 b 469 28 569 54 586 28 l 469 0 l 829 0 l 829 28 b 681 107 771 28 721 54 l 507 343 l 682 586 b 829 667 721 640 771 667 z "},"y":{"ha":863,"x_min":0,"x_max":0,"o":"m 849 694 l 565 694 l 565 667 b 656 569 682 667 681 632 l 467 79 l 278 569 b 369 667 254 632 253 667 l 369 694 l 14 694 l 14 667 b 144 569 83 667 121 632 l 364 0 l 436 0 l 414 -57 b 265 -222 372 -164 329 -222 b 249 -56 210 -222 185 -183 l 124 -28 b 267 -278 67 -181 140 -278 b 474 -57 388 -278 421 -192 l 496 0 l 497 0 l 496 1 l 717 571 b 849 667 742 632 779 667 z "},"ý":{"ha":863,"x_min":0,"x_max":0,"o":"m 582 1000 l 443 972 b 338 819 443 885 401 844 l 379 792 b 582 1000 471 815 582 869 z m 849 694 l 565 694 l 565 667 b 656 569 682 667 681 632 l 467 79 l 278 569 b 369 667 254 632 253 667 l 369 694 l 14 694 l 14 667 b 144 569 83 667 121 632 l 364 0 l 436 0 l 414 -57 b 265 -222 372 -164 329 -222 b 249 -56 210 -222 185 -183 l 124 -28 b 267 -278 67 -181 140 -278 b 474 -57 388 -278 421 -192 l 496 0 l 497 0 l 496 1 l 717 571 b 849 667 742 632 779 667 z "},"ŷ":{"ha":863,"x_min":0,"x_max":0,"o":"m 453 917 l 467 917 b 619 792 494 851 554 806 l 647 861 b 522 1000 568 889 536 935 l 397 1000 b 272 861 383 935 351 889 l 300 792 b 453 917 365 806 425 851 z m 849 694 l 565 694 l 565 667 b 656 569 682 667 681 632 l 467 79 l 278 569 b 369 667 254 632 253 667 l 369 694 l 14 694 l 14 667 b 144 569 83 667 121 632 l 364 0 l 436 0 l 414 -57 b 265 -222 372 -164 329 -222 b 249 -56 210 -222 185 -183 l 124 -28 b 267 -278 67 -181 140 -278 b 474 -57 388 -278 421 -192 l 496 0 l 497 0 l 496 1 l 717 571 b 849 667 742 632 779 667 z "},"ÿ":{"ha":863,"x_min":0,"x_max":0,"o":"m 351 824 b 424 897 389 824 424 856 b 351 968 424 935 389 968 b 279 897 313 968 279 935 b 351 824 279 856 313 824 z m 568 824 b 640 897 606 824 640 856 b 568 968 640 935 606 968 b 496 897 529 968 496 935 b 568 824 496 856 529 824 z m 849 694 l 565 694 l 565 667 b 656 569 682 667 681 632 l 467 79 l 278 569 b 369 667 254 632 253 667 l 369 694 l 14 694 l 14 667 b 144 569 83 667 121 632 l 364 0 l 436 0 l 414 -57 b 265 -222 372 -164 329 -222 b 249 -56 210 -222 185 -183 l 124 -28 b 267 -278 67 -181 140 -278 b 474 -57 388 -278 421 -192 l 496 0 l 497 0 l 496 1 l 717 571 b 849 667 742 632 779 667 z "},"ỳ":{"ha":863,"x_min":0,"x_max":0,"o":"m 513 792 l 554 819 b 449 972 490 844 449 885 l 310 1000 b 513 792 310 869 421 815 z m 849 694 l 565 694 l 565 667 b 656 569 682 667 681 632 l 467 79 l 278 569 b 369 667 254 632 253 667 l 369 694 l 14 694 l 14 667 b 144 569 83 667 121 632 l 364 0 l 436 0 l 414 -57 b 265 -222 372 -164 329 -222 b 249 -56 210 -222 185 -183 l 124 -28 b 267 -278 67 -181 140 -278 b 474 -57 388 -278 421 -192 l 496 0 l 497 0 l 496 1 l 717 571 b 849 667 742 632 779 667 z "},"z":{"ha":722,"x_min":0,"x_max":0,"o":"m 489 639 l 56 42 l 56 0 l 643 0 l 647 28 l 667 193 l 640 197 b 517 56 625 81 583 56 l 219 56 l 653 653 l 653 694 l 79 694 l 75 667 l 56 501 l 82 497 b 206 639 97 614 139 639 z "},"ź":{"ha":722,"x_min":0,"x_max":0,"o":"m 239 819 l 281 792 b 483 1000 372 815 483 869 l 344 972 b 239 819 344 885 303 844 z m 489 639 l 56 42 l 56 0 l 643 0 l 647 28 l 667 193 l 640 197 b 517 56 625 81 583 56 l 219 56 l 653 653 l 653 694 l 79 694 l 75 667 l 56 501 l 82 497 b 206 639 97 614 139 639 z "},"ž":{"ha":722,"x_min":0,"x_max":0,"o":"m 549 932 l 521 1001 b 368 876 456 988 396 942 l 354 876 b 201 1001 326 942 267 988 l 174 932 b 299 793 253 904 285 858 l 424 793 b 549 932 438 858 469 904 z m 489 639 l 56 42 l 56 0 l 643 0 l 647 28 l 667 193 l 640 197 b 517 56 625 81 583 56 l 219 56 l 653 653 l 653 694 l 79 694 l 75 667 l 56 501 l 82 497 b 206 639 97 614 139 639 z "},"ż":{"ha":722,"x_min":0,"x_max":0,"o":"m 361 824 b 433 897 399 824 433 856 b 361 968 433 935 399 968 b 289 897 322 968 289 935 b 361 824 289 856 322 824 z m 489 639 l 56 42 l 56 0 l 643 0 l 647 28 l 667 193 l 640 197 b 517 56 625 81 583 56 l 219 56 l 653 653 l 653 694 l 79 694 l 75 667 l 56 501 l 82 497 b 206 639 97 614 139 639 z "},"⁄":{"ha":600,"x_min":0,"x_max":0,"o":"m 544 1000 l 485 1000 l 56 -83 l 115 -83 z "},".":{"ha":292,"x_min":0,"x_max":0,"o":"m 146 -14 b 236 78 200 -14 236 26 b 146 167 236 125 200 167 b 56 78 90 167 56 125 b 146 -14 56 26 90 -14 z "},",":{"ha":299,"x_min":0,"x_max":0,"o":"m 56 -157 l 63 -185 b 243 39 175 -150 243 -54 b 146 167 243 125 200 167 b 56 78 90 167 56 125 b 139 -14 56 28 86 -14 b 181 0 156 -14 169 -10 b 56 -157 181 -75 117 -128 z "},":":{"ha":292,"x_min":0,"x_max":0,"o":"m 146 486 b 236 578 200 486 236 526 b 146 667 236 625 200 667 b 56 578 90 667 56 625 b 146 486 56 526 90 486 z m 146 -14 b 236 78 200 -14 236 26 b 146 167 236 125 200 167 b 56 78 90 167 56 125 b 146 -14 56 26 90 -14 z "},";":{"ha":299,"x_min":0,"x_max":0,"o":"m 146 486 b 236 578 200 486 236 526 b 146 667 236 625 200 667 b 56 578 90 667 56 625 b 146 486 56 526 90 486 z m 56 -157 l 63 -185 b 243 39 175 -150 243 -54 b 146 167 243 125 200 167 b 56 78 90 167 56 125 b 139 -14 56 28 86 -14 b 181 0 156 -14 169 -10 b 56 -157 181 -75 117 -128 z "},"…":{"ha":792,"x_min":0,"x_max":0,"o":"m 146 -14 b 236 78 200 -14 236 26 b 146 167 236 125 200 167 b 56 78 90 167 56 125 b 146 -14 56 26 90 -14 z m 396 -14 b 486 78 450 -14 486 26 b 396 167 486 125 450 167 b 306 78 340 167 306 125 b 396 -14 306 26 340 -14 z m 646 -14 b 736 78 700 -14 736 26 b 646 167 736 125 700 167 b 556 78 590 167 556 125 b 646 -14 556 26 590 -14 z "},"!":{"ha":292,"x_min":0,"x_max":0,"o":"m 118 306 l 174 306 b 201 811 174 556 201 694 b 146 931 201 889 200 931 b 90 811 90 931 90 889 b 118 306 90 694 118 556 z m 146 -14 b 236 78 200 -14 236 26 b 146 167 236 125 200 167 b 56 78 90 167 56 125 b 146 -14 56 26 90 -14 z "},"¡":{"ha":292,"x_min":0,"x_max":0,"o":"m 146 708 b 56 617 90 708 56 668 b 146 528 56 569 90 528 b 236 617 200 528 236 569 b 146 708 236 668 200 708 z m 118 389 b 90 -117 118 139 90 0 b 146 -236 90 -194 90 -236 b 201 -117 200 -236 201 -194 b 174 389 201 0 174 139 z "},"?":{"ha":679,"x_min":0,"x_max":0,"o":"m 624 736 b 358 931 624 863 508 931 b 65 621 201 931 10 869 l 190 649 b 346 875 135 843 274 875 b 499 732 463 875 499 810 b 401 576 499 668 472 614 b 268 306 315 531 225 488 l 324 306 b 456 526 310 460 349 474 b 624 736 540 568 624 621 z m 303 -14 b 393 78 357 -14 393 26 b 303 167 393 125 357 167 b 213 78 247 167 213 125 b 303 -14 213 26 247 -14 z "},"¿":{"ha":679,"x_min":0,"x_max":0,"o":"m 376 708 b 286 617 322 708 286 668 b 376 528 286 569 322 528 b 467 617 432 528 467 569 b 376 708 467 668 432 708 z m 56 -42 b 321 -236 56 -168 171 -236 b 614 74 478 -236 669 -175 l 489 46 b 333 -181 544 -149 406 -181 b 181 -37 217 -181 181 -115 b 278 118 181 26 207 81 b 411 389 364 164 454 207 l 356 389 b 224 168 369 235 331 221 b 56 -42 139 126 56 74 z "},"·":{"ha":292,"x_min":0,"x_max":0,"o":"m 146 257 b 236 349 200 257 236 297 b 146 438 236 396 200 438 b 56 349 90 438 56 396 b 146 257 56 297 90 257 z "},"•":{"ha":406,"x_min":0,"x_max":0,"o":"m 203 200 b 350 349 292 200 350 265 b 203 494 350 426 292 494 b 56 349 113 494 56 426 b 203 200 56 265 113 200 z "},"*":{"ha":544,"x_min":0,"x_max":0,"o":"m 465 726 b 285 774 428 747 369 729 b 465 821 369 818 428 800 b 481 893 486 833 497 865 b 410 917 463 924 431 929 b 279 786 372 896 360 836 b 328 964 283 881 328 921 b 272 1014 328 989 306 1014 b 217 964 238 1014 217 989 b 265 785 217 921 261 879 b 135 917 185 835 172 896 b 64 894 114 929 81 922 b 79 821 47 864 58 833 b 258 774 117 800 175 818 b 79 726 175 729 117 747 b 64 653 58 714 47 683 b 135 631 81 625 114 618 b 265 763 172 651 185 713 b 217 583 261 668 217 626 b 272 533 217 558 238 533 b 328 583 306 533 328 558 b 279 761 328 626 283 667 b 410 631 360 711 372 651 b 481 654 431 618 463 624 b 465 726 497 682 486 714 z "},"#":{"ha":1086,"x_min":0,"x_max":0,"o":"m 1031 639 l 1031 694 l 815 694 l 906 1000 l 846 1000 l 756 694 l 468 694 l 558 1000 l 499 1000 l 408 694 l 172 694 l 172 639 l 393 639 l 286 278 l 56 278 l 56 222 l 271 222 l 181 -83 l 240 -83 l 331 222 l 618 222 l 528 -83 l 588 -83 l 678 222 l 914 222 l 914 278 l 693 278 l 800 639 z m 633 278 l 346 278 l 453 639 l 740 639 z "},"/":{"ha":600,"x_min":0,"x_max":0,"o":"m 544 1000 l 485 1000 l 56 -83 l 115 -83 z "},"\\":{"ha":600,"x_min":0,"x_max":0,"o":"m 56 1000 l 485 -83 l 544 -83 l 115 1000 z "},"(":{"ha":469,"x_min":0,"x_max":0,"o":"m 56 417 b 386 -167 56 142 201 -42 l 414 -132 b 181 417 285 -7 181 199 b 414 965 181 654 285 840 l 386 1000 b 56 417 201 875 56 715 z "},")":{"ha":469,"x_min":0,"x_max":0,"o":"m 414 417 b 83 1000 414 715 268 875 l 56 965 b 289 417 185 840 289 654 b 56 -132 289 199 185 -7 l 83 -167 b 414 417 268 -42 414 142 z "},"{":{"ha":457,"x_min":0,"x_max":0,"o":"m 56 389 b 218 174 246 389 236 310 b 401 -167 192 -21 192 -194 l 401 -111 b 343 174 268 -125 332 43 b 167 410 354 310 301 410 l 167 424 b 343 660 301 424 354 522 b 401 944 332 790 268 958 l 401 1000 b 218 660 192 1028 192 854 b 56 444 236 524 246 444 z "},"}":{"ha":457,"x_min":0,"x_max":0,"o":"m 401 389 l 401 444 b 239 660 211 444 221 524 b 56 1000 265 854 265 1028 l 56 944 b 114 660 189 958 125 790 b 290 424 103 522 156 424 l 290 410 b 114 174 156 410 103 310 b 56 -111 125 43 189 -125 l 56 -167 b 239 174 265 -194 265 -21 b 401 389 221 310 211 389 z "},"[":{"ha":400,"x_min":0,"x_max":0,"o":"m 56 -167 l 344 -167 l 344 -111 l 181 -111 l 181 944 l 344 944 l 344 1000 l 56 1000 z "},"]":{"ha":400,"x_min":0,"x_max":0,"o":"m 344 -167 l 344 1000 l 56 1000 l 56 944 l 219 944 l 219 -111 l 56 -111 l 56 -167 z "},"-":{"ha":578,"x_min":0,"x_max":0,"o":"m 111 389 b 56 306 56 389 56 347 l 467 306 b 522 389 522 306 522 347 z "},"–":{"ha":828,"x_min":0,"x_max":0,"o":"m 111 389 b 56 306 56 389 56 347 l 717 306 b 772 389 772 306 772 347 z "},"—":{"ha":1167,"x_min":0,"x_max":0,"o":"m 111 389 b 56 306 56 389 56 347 l 1056 306 b 1111 389 1111 306 1111 347 z "},"_":{"ha":1008,"x_min":0,"x_max":0,"o":"m 111 -83 b 56 -167 56 -83 56 -125 l 897 -167 b 953 -83 953 -167 953 -125 z "},"‚":{"ha":299,"x_min":0,"x_max":0,"o":"m 56 -157 l 63 -185 b 243 39 175 -150 243 -54 b 146 167 243 125 200 167 b 56 78 90 167 56 125 b 139 -14 56 28 86 -14 b 181 0 156 -14 169 -10 b 56 -157 181 -75 117 -128 z "},"„":{"ha":299,"x_min":0,"x_max":0,"o":"m 146 167 b 56 78 90 167 56 125 b 139 -14 56 28 86 -14 b 181 0 156 -14 169 -10 b 56 -157 181 -75 117 -128 l 63 -185 b 243 39 175 -150 243 -54 b 146 167 243 125 200 167 z "},"“":{"ha":556,"x_min":0,"x_max":0,"o":"m 243 1004 l 236 1032 b 56 808 124 997 56 901 b 153 681 56 722 99 681 b 243 769 208 681 243 722 b 160 861 243 819 213 861 b 118 847 143 861 129 857 b 243 1004 118 922 182 975 z m 500 1004 l 493 1032 b 313 808 381 997 313 901 b 410 681 313 722 356 681 b 500 769 465 681 500 722 b 417 861 500 819 469 861 b 375 847 400 861 386 857 b 500 1004 375 922 439 975 z "},"”":{"ha":556,"x_min":0,"x_max":0,"o":"m 56 690 l 63 663 b 243 886 175 697 243 793 b 146 1014 243 972 200 1014 b 56 925 90 1014 56 972 b 139 833 56 875 86 833 b 181 847 156 833 169 838 b 56 690 181 772 117 719 z m 313 690 l 319 663 b 500 886 432 697 500 793 b 403 1014 500 972 457 1014 b 313 925 347 1014 313 972 b 396 833 313 875 343 833 b 438 847 413 833 426 838 b 313 690 438 772 374 719 z "},"‘":{"ha":299,"x_min":0,"x_max":0,"o":"m 243 1004 l 236 1032 b 56 808 124 997 56 901 b 153 681 56 722 99 681 b 243 769 208 681 243 722 b 160 861 243 819 213 861 b 118 847 143 861 129 857 b 243 1004 118 922 182 975 z "},"’":{"ha":299,"x_min":0,"x_max":0,"o":"m 56 690 l 63 663 b 243 886 175 697 243 793 b 146 1014 243 972 200 1014 b 56 925 90 1014 56 972 b 139 833 56 875 86 833 b 181 847 156 833 169 838 b 56 690 181 772 117 719 z "},"«":{"ha":725,"x_min":0,"x_max":0,"o":"m 218 660 b 56 375 246 525 260 375 l 56 319 b 218 35 260 319 246 169 l 343 35 b 139 340 371 169 315 340 l 139 354 b 343 660 315 354 371 525 z m 538 660 b 375 375 565 525 579 375 l 375 319 b 538 35 579 319 565 169 l 663 35 b 458 340 690 169 635 340 l 458 354 b 663 660 635 354 690 525 z "},"»":{"ha":725,"x_min":0,"x_max":0,"o":"m 188 660 l 63 660 b 267 354 35 525 90 354 l 267 340 b 63 35 90 340 35 169 l 188 35 b 350 319 160 169 146 319 l 350 375 b 188 660 146 375 160 525 z m 507 660 l 382 660 b 586 354 354 525 410 354 l 586 340 b 382 35 410 340 354 169 l 507 35 b 669 319 479 169 465 319 l 669 375 b 507 660 465 375 479 525 z "},"‹":{"ha":406,"x_min":0,"x_max":0,"o":"m 218 660 b 56 375 246 525 260 375 l 56 319 b 218 35 260 319 246 169 l 343 35 b 139 340 371 169 315 340 l 139 354 b 343 660 315 354 371 525 z "},"›":{"ha":406,"x_min":0,"x_max":0,"o":"m 188 660 l 63 660 b 267 354 35 525 90 354 l 267 340 b 63 35 90 340 35 169 l 188 35 b 350 319 160 169 146 319 l 350 375 b 188 660 146 375 160 525 z "},"\"":{"ha":431,"x_min":0,"x_max":0,"o":"m 97 663 l 139 663 b 181 940 146 807 181 876 b 118 1014 181 972 172 1014 b 56 940 63 1014 56 972 b 97 663 56 876 90 807 z m 292 663 l 333 663 b 375 940 340 807 375 876 b 313 1014 375 972 367 1014 b 250 940 257 1014 250 972 b 292 663 250 876 285 807 z "},"'":{"ha":236,"x_min":0,"x_max":0,"o":"m 97 663 l 139 663 b 181 940 146 807 181 876 b 118 1014 181 972 172 1014 b 56 940 63 1014 56 972 b 97 663 56 876 90 807 z "},"¢":{"ha":781,"x_min":0,"x_max":0,"o":"m 725 403 l 600 375 b 454 144 613 254 549 168 l 413 750 b 586 528 529 746 600 653 l 711 500 b 408 806 718 674 604 803 l 394 1000 l 339 997 l 353 803 b 56 444 146 781 56 618 b 403 83 56 257 160 83 l 417 -111 l 472 -108 l 458 88 b 725 403 626 108 732 232 z m 181 444 b 357 746 181 596 232 721 l 399 139 b 181 444 243 142 181 276 z "},"¤":{"ha":740,"x_min":0,"x_max":0,"o":"m 625 443 b 572 606 625 506 606 561 l 685 718 l 646 758 l 533 644 b 371 697 490 678 436 697 b 210 643 307 697 251 678 l 94 758 l 56 718 l 169 604 b 117 443 136 560 117 504 b 169 282 117 382 136 326 l 56 168 l 96 129 l 210 243 b 371 189 251 208 307 189 b 532 242 435 189 490 208 l 644 129 l 685 168 l 571 282 b 625 443 606 325 625 382 z m 394 246 b 201 422 288 232 217 301 b 347 640 186 543 239 626 b 540 464 454 654 525 585 b 394 246 556 343 503 260 z "},"$":{"ha":721,"x_min":0,"x_max":0,"o":"m 665 290 b 397 514 665 433 553 472 l 381 749 b 503 593 461 743 553 706 l 628 565 b 376 806 681 736 526 800 l 363 1001 l 308 997 l 322 804 b 69 613 175 797 69 742 b 349 406 69 481 176 451 l 368 139 b 190 351 257 142 138 178 l 65 379 b 371 83 11 147 189 85 l 385 -111 l 440 -108 l 426 85 b 665 290 557 96 665 154 z m 194 649 b 325 749 194 694 231 742 l 340 529 b 194 649 240 558 194 569 z m 422 142 l 406 389 b 540 261 490 363 540 343 b 422 142 540 200 499 154 z "},"€":{"ha":1017,"x_min":0,"x_max":0,"o":"m 836 306 b 597 42 850 136 747 42 b 314 338 442 42 343 151 l 606 338 l 606 393 l 308 393 b 306 458 307 414 306 436 l 306 463 l 633 463 l 633 518 l 308 518 b 611 875 325 742 440 875 b 836 625 747 875 850 781 l 961 597 b 611 931 968 800 825 931 b 183 518 358 931 203 781 l 83 518 l 83 463 l 181 463 l 181 458 b 183 393 181 436 182 414 l 56 393 l 56 338 l 189 338 b 597 -14 225 114 365 -14 b 961 333 825 -14 968 117 z "},"£":{"ha":708,"x_min":0,"x_max":0,"o":"m 625 224 b 508 83 615 108 575 83 l 144 83 l 144 97 b 333 338 236 121 333 196 b 324 407 333 361 331 385 l 546 407 l 546 463 l 306 463 b 194 735 265 561 194 647 b 361 875 194 810 231 875 b 503 649 447 875 558 843 l 628 621 b 349 931 683 869 519 931 b 69 722 185 931 69 863 b 169 463 69 622 128 544 l 56 463 l 56 407 l 193 407 b 208 322 203 381 208 351 b 56 83 208 260 188 128 l 56 0 l 635 0 l 639 56 l 653 222 z "},"¥":{"ha":1019,"x_min":0,"x_max":0,"o":"m 964 917 l 681 917 l 681 889 b 754 800 797 889 786 858 l 550 442 l 344 801 b 417 889 311 858 300 889 l 417 917 l 56 917 l 56 889 b 199 801 119 889 165 858 l 410 435 l 203 435 l 203 379 l 442 379 l 447 369 l 447 310 l 203 310 l 203 254 l 447 254 l 447 133 b 378 28 447 67 436 28 l 378 0 l 642 0 l 642 28 b 572 133 583 28 572 67 l 572 254 l 836 254 l 836 310 l 572 310 l 572 369 l 578 379 l 836 379 l 836 435 l 610 435 l 821 801 b 964 889 854 858 900 889 z "},"+":{"ha":633,"x_min":0,"x_max":0,"o":"m 439 389 b 347 378 390 389 369 382 b 358 469 351 400 358 421 l 358 608 l 275 608 l 275 469 b 286 378 275 421 282 400 b 194 389 264 382 243 389 l 56 389 l 56 306 l 194 306 b 286 317 243 306 264 313 b 275 225 282 294 275 274 l 275 86 l 358 86 l 358 225 b 347 317 358 274 351 294 b 439 306 369 313 390 306 l 578 306 l 578 389 z "},"−":{"ha":633,"x_min":0,"x_max":0,"o":"m 56 389 l 56 306 l 578 306 l 578 389 z "},"×":{"ha":539,"x_min":0,"x_max":0,"o":"m 313 347 b 385 404 332 360 351 369 l 483 501 l 425 561 l 326 463 b 269 390 292 428 282 408 b 213 463 257 408 247 428 l 114 561 l 56 501 l 154 404 b 226 347 188 369 207 360 b 154 290 207 333 188 324 l 56 192 l 114 132 l 213 231 b 269 303 247 265 257 285 b 326 231 282 285 292 265 l 425 132 l 483 192 l 385 290 b 313 347 351 324 332 333 z "},"÷":{"ha":633,"x_min":0,"x_max":0,"o":"m 317 458 b 389 532 360 458 389 490 b 317 603 389 569 360 603 b 244 532 272 603 244 569 b 317 458 244 490 272 458 z m 56 389 l 56 306 l 578 306 l 578 389 z m 317 92 b 389 165 360 92 389 124 b 317 236 389 203 360 236 b 244 165 272 236 244 203 b 317 92 244 124 272 92 z "},"=":{"ha":633,"x_min":0,"x_max":0,"o":"m 56 500 l 56 417 l 578 417 l 578 500 z m 56 278 l 56 194 l 578 194 l 578 278 z "},"≠":{"ha":633,"x_min":0,"x_max":0,"o":"m 578 417 l 578 500 l 408 500 l 485 694 l 425 694 l 349 500 l 56 500 l 56 417 l 315 417 l 260 278 l 56 278 l 56 194 l 226 194 l 150 0 l 210 0 l 286 194 l 578 194 l 578 278 l 319 278 l 375 417 z "},">":{"ha":633,"x_min":0,"x_max":0,"o":"m 56 83 l 578 306 l 578 389 l 56 611 l 56 521 l 367 389 b 494 354 435 358 464 354 l 494 340 b 367 306 464 340 435 336 l 56 174 z "},"<":{"ha":633,"x_min":0,"x_max":0,"o":"m 578 83 l 578 174 l 267 306 b 139 340 199 336 169 340 l 139 354 b 267 389 169 354 199 358 l 578 521 l 578 611 l 56 389 l 56 306 z "},"≥":{"ha":633,"x_min":0,"x_max":0,"o":"m 578 429 l 56 651 l 56 561 l 367 429 b 494 394 435 399 464 394 l 494 381 b 367 346 464 381 435 376 l 56 214 l 56 49 l 578 49 l 578 132 l 75 132 l 578 346 z "},"≤":{"ha":633,"x_min":0,"x_max":0,"o":"m 267 429 l 578 561 l 578 651 l 56 429 l 56 346 l 558 132 l 56 132 l 56 49 l 578 49 l 578 214 l 267 346 b 139 381 199 376 169 381 l 139 394 b 267 429 169 394 199 399 z "},"±":{"ha":633,"x_min":0,"x_max":0,"o":"m 578 343 l 578 426 l 439 426 b 347 415 390 426 369 419 b 358 507 351 438 358 458 l 358 646 l 275 646 l 275 507 b 286 415 275 458 282 438 b 194 426 264 419 243 426 l 56 426 l 56 343 l 194 343 b 286 354 243 343 264 350 b 275 263 282 332 275 311 l 275 132 l 56 132 l 56 49 l 578 49 l 578 132 l 358 132 l 358 263 b 347 354 358 311 351 332 b 439 343 369 350 390 343 z "},"≈":{"ha":633,"x_min":0,"x_max":0,"o":"m 469 347 b 569 514 546 347 600 401 l 514 542 b 483 431 558 431 499 431 b 164 569 385 431 290 569 b 64 403 88 569 33 515 l 119 375 b 150 486 75 486 135 486 b 469 347 249 486 343 347 z m 469 125 b 569 292 546 125 600 179 l 514 319 b 483 208 558 208 499 208 b 164 347 385 208 290 347 b 64 181 88 347 33 293 l 119 153 b 150 264 75 264 135 264 b 469 125 249 264 343 125 z "},"~":{"ha":633,"x_min":0,"x_max":0,"o":"m 469 236 b 569 403 546 236 600 290 l 514 431 b 483 319 558 319 499 319 b 164 458 385 319 290 458 b 64 292 88 458 33 404 l 119 264 b 150 375 75 375 135 375 b 469 236 249 375 343 236 z "},"¬":{"ha":633,"x_min":0,"x_max":0,"o":"m 56 389 l 56 306 l 494 306 l 494 138 l 578 138 l 578 389 z "},"^":{"ha":639,"x_min":0,"x_max":0,"o":"m 583 478 l 363 1000 l 279 1000 l 56 478 l 146 478 l 279 789 b 314 917 308 857 314 886 l 326 917 b 363 789 328 886 333 857 l 494 478 z "},"∅":{"ha":833,"x_min":0,"x_max":0,"o":"m 692 585 l 769 663 l 732 700 l 654 622 b 417 708 593 676 511 708 b 56 347 204 708 56 546 b 140 108 56 256 86 172 l 64 32 l 101 -6 l 178 71 b 417 -14 240 18 322 -14 b 778 347 628 -14 778 147 b 692 585 778 438 746 521 z m 139 347 b 417 625 139 500 253 625 b 594 563 486 625 549 601 l 200 168 b 139 347 161 217 139 279 z m 417 69 b 238 131 346 69 285 93 l 632 525 b 694 347 672 478 694 415 b 417 69 694 193 579 69 z "},"∞":{"ha":1117,"x_min":0,"x_max":0,"o":"m 831 610 b 564 426 700 610 628 524 b 285 610 504 503 432 610 b 56 349 113 610 56 472 b 286 86 56 224 113 86 b 553 269 417 86 489 172 b 832 86 613 193 685 86 b 1061 349 1004 86 1061 224 b 831 610 1061 472 1004 610 z m 274 197 b 111 349 182 197 111 238 b 289 526 111 458 182 526 b 532 378 401 526 460 468 b 274 197 469 275 403 197 z m 828 169 b 585 318 715 169 657 228 b 843 499 647 421 714 499 b 1006 349 935 499 1006 458 b 828 169 1006 238 935 169 z "},"∫":{"ha":553,"x_min":0,"x_max":0,"o":"m 396 931 b 424 853 415 931 450 919 l 479 825 b 404 1014 531 957 463 1014 b 157 -139 38 1014 385 -139 b 129 -61 138 -139 103 -128 l 74 -33 b 149 -222 22 -165 90 -222 b 396 931 515 -222 168 931 z "},"∏":{"ha":811,"x_min":0,"x_max":0,"o":"m 686 -75 l 686 1000 l 125 1000 l 125 -75 b 56 -181 125 -142 114 -181 l 56 -208 l 278 -208 l 278 -181 b 208 -75 219 -181 208 -142 l 208 944 l 603 944 l 603 -75 b 533 -181 603 -142 592 -181 l 533 -208 l 756 -208 l 756 -181 b 686 -75 697 -181 686 -142 z "},"∑":{"ha":800,"x_min":0,"x_max":0,"o":"m 718 1 b 601 -125 708 -103 668 -125 l 122 -125 l 482 404 l 153 944 l 576 944 b 697 817 643 944 685 921 l 725 821 l 707 969 l 703 1000 l 56 1000 l 56 944 l 400 382 l 56 -125 l 56 -208 l 728 -208 l 733 -150 l 744 0 z "},"√":{"ha":825,"x_min":0,"x_max":0,"o":"m 713 1000 l 438 -115 l 424 -115 l 224 310 l 56 310 l 56 254 l 158 254 l 375 -208 l 471 -208 l 769 1000 z "},"∂":{"ha":750,"x_min":0,"x_max":0,"o":"m 207 1000 l 179 944 b 610 504 513 882 596 683 b 357 596 554 553 468 596 b 56 274 203 596 56 508 b 354 -14 56 158 115 -14 b 694 440 625 -14 694 238 b 207 1000 694 604 657 917 z m 357 42 b 139 293 169 42 139 175 b 363 540 139 454 235 540 b 611 446 467 540 546 500 b 357 42 611 282 585 42 z "},"%":{"ha":1217,"x_min":0,"x_max":0,"o":"m 356 918 b 279 931 333 926 307 931 b 56 682 124 931 56 801 b 279 433 56 563 124 433 b 506 682 435 433 506 563 b 422 881 506 756 479 832 b 793 1000 653 808 674 1000 l 364 -83 l 424 -83 l 853 1000 b 356 918 560 1126 590 851 z m 281 489 b 181 682 182 489 181 585 b 281 875 181 779 182 875 b 381 682 379 875 381 779 b 281 489 381 585 378 489 z m 935 483 b 711 235 779 483 711 354 b 935 -14 711 115 779 -14 b 1161 235 1090 -14 1161 115 b 935 483 1161 354 1090 483 z m 936 42 b 836 235 838 42 836 138 b 936 428 836 332 838 428 b 1036 235 1035 428 1036 332 b 936 42 1036 138 1033 42 z "},"‰":{"ha":1736,"x_min":0,"x_max":0,"o":"m 356 918 b 279 931 333 926 307 931 b 56 682 124 931 56 801 b 279 433 56 563 124 433 b 506 682 435 433 506 563 b 422 881 506 756 479 832 b 793 1000 653 808 674 1000 l 364 -83 l 424 -83 l 853 1000 b 356 918 560 1126 590 851 z m 281 489 b 181 682 182 489 181 585 b 281 875 181 779 182 875 b 381 682 379 875 381 779 b 281 489 381 585 378 489 z m 935 483 b 711 235 779 483 711 354 b 935 -14 711 115 779 -14 b 1161 235 1090 -14 1161 115 b 935 483 1161 354 1090 483 z m 1454 483 b 1231 235 1299 483 1231 354 b 1454 -14 1231 115 1299 -14 b 1681 235 1610 -14 1681 115 b 1454 483 1681 354 1610 483 z m 936 42 b 836 235 838 42 836 138 b 936 428 836 332 838 428 b 1036 235 1035 428 1036 332 b 936 42 1036 138 1033 42 z m 1456 42 b 1356 235 1357 42 1356 138 b 1456 428 1356 332 1357 428 b 1556 235 1554 428 1556 332 b 1456 42 1556 138 1553 42 z "},"↑":{"ha":650,"x_min":0,"x_max":0,"o":"m 367 617 l 283 617 b 56 354 211 488 140 414 l 118 299 b 297 513 186 342 242 400 b 283 388 297 467 283 454 l 283 78 l 367 78 l 367 388 b 353 513 367 454 353 467 b 532 299 408 400 464 342 l 594 354 b 367 617 510 414 439 488 z "},"↗":{"ha":551,"x_min":0,"x_max":0,"o":"m 496 508 l 438 568 b 90 543 294 528 193 525 l 96 460 b 374 485 174 442 254 444 b 275 406 340 451 322 453 l 56 186 l 115 128 l 333 347 b 413 444 381 393 381 413 b 388 167 372 326 371 246 l 471 163 b 496 508 454 264 456 367 z "},"→":{"ha":650,"x_min":0,"x_max":0,"o":"m 332 617 l 276 554 b 490 375 319 486 378 431 b 365 389 444 375 432 389 l 56 389 l 56 306 l 365 306 b 490 319 432 306 444 319 b 276 140 378 264 319 208 l 332 78 b 594 306 392 163 465 233 l 594 389 b 332 617 465 461 392 532 z "},"↘":{"ha":551,"x_min":0,"x_max":0,"o":"m 471 532 l 388 528 b 413 250 371 449 372 368 b 333 347 381 282 381 301 l 115 567 l 56 508 l 275 289 b 374 210 322 242 340 243 b 96 235 254 250 174 253 l 90 151 b 438 126 193 169 294 167 l 496 186 b 471 532 456 328 454 431 z "},"↓":{"ha":650,"x_min":0,"x_max":0,"o":"m 532 396 b 353 182 464 353 408 294 b 367 307 353 228 367 240 l 367 617 l 283 617 l 283 307 b 297 182 283 240 297 228 b 118 396 242 294 186 353 l 56 340 b 283 78 140 281 211 207 l 367 78 b 594 340 439 207 510 281 z "},"↙":{"ha":551,"x_min":0,"x_max":0,"o":"m 178 210 b 276 289 211 243 229 242 l 496 508 l 436 567 l 218 347 b 139 250 171 301 171 282 b 164 528 179 368 181 449 l 81 532 b 56 186 97 431 96 328 l 114 126 b 461 151 257 167 358 169 l 456 235 b 178 210 378 253 297 250 z "},"←":{"ha":650,"x_min":0,"x_max":0,"o":"m 594 306 l 594 389 l 285 389 b 160 375 218 389 206 375 b 374 554 272 431 331 486 l 318 617 b 56 389 258 532 185 461 l 56 306 b 318 78 185 233 258 163 l 374 140 b 160 319 331 208 272 264 b 285 306 206 319 218 306 z "},"↖":{"ha":551,"x_min":0,"x_max":0,"o":"m 276 406 b 178 485 229 453 211 451 b 456 460 297 444 378 442 l 461 543 b 114 568 358 525 257 528 l 56 508 b 81 163 96 367 97 264 l 164 167 b 139 444 181 246 179 326 b 218 347 171 413 171 393 l 436 128 l 496 186 z "},"↔":{"ha":972,"x_min":0,"x_max":0,"o":"m 654 617 l 599 554 b 813 375 642 486 700 431 b 688 389 767 375 754 389 l 285 389 b 160 375 218 389 206 375 b 374 554 272 431 331 486 l 318 617 b 56 389 258 532 185 461 l 56 306 b 318 78 185 233 258 163 l 374 140 b 160 319 331 208 272 264 b 285 306 206 319 218 306 l 688 306 b 813 319 754 306 767 319 b 599 140 700 264 642 208 l 654 78 b 917 306 714 163 788 233 l 917 389 b 654 617 788 461 714 532 z "},"↕":{"ha":650,"x_min":0,"x_max":0,"o":"m 353 21 b 367 146 353 67 367 79 l 367 549 b 353 674 367 615 353 628 b 532 460 408 561 464 503 l 594 515 b 367 778 510 575 439 649 l 283 778 b 56 515 211 649 140 575 l 118 460 b 297 674 186 503 242 561 b 283 549 297 628 283 615 l 283 146 b 297 21 283 79 297 67 b 118 235 242 133 186 192 l 56 179 b 283 -83 140 119 211 46 l 367 -83 b 594 179 439 46 510 119 l 532 235 b 353 21 464 192 408 133 z "},"◊":{"ha":639,"x_min":0,"x_max":0,"o":"m 363 1000 l 279 1000 l 56 478 l 279 -44 l 363 -44 l 583 478 z m 363 167 b 326 39 333 99 328 69 l 314 39 b 279 167 314 69 308 99 l 146 478 l 279 789 b 314 917 308 857 314 886 l 326 917 b 363 789 328 886 333 857 l 494 478 z "},"@":{"ha":1208,"x_min":0,"x_max":0,"o":"m 279 389 b 535 28 261 161 376 28 b 792 217 661 28 754 93 l 806 217 b 944 46 796 122 858 46 b 1153 375 1086 46 1153 160 b 629 931 1153 688 979 931 b 56 347 279 931 56 688 b 646 -215 56 74 243 -215 b 1153 -8 793 -215 990 -183 l 1125 42 b 646 -160 972 -133 788 -160 b 111 347 281 -160 111 97 b 629 875 111 658 313 875 b 1097 375 946 875 1097 658 b 968 101 1097 175 1046 101 b 906 289 911 101 899 175 l 931 681 b 817 578 869 681 819 676 l 815 533 l 801 533 b 576 694 764 629 703 694 b 279 389 404 694 293 561 z m 404 389 b 618 639 417 499 467 639 b 792 361 756 639 808 499 b 576 83 775 224 728 83 b 404 389 439 83 385 224 z "},"&":{"ha":1006,"x_min":0,"x_max":0,"o":"m 950 560 b 824 674 950 614 910 674 b 683 532 729 674 664 618 l 808 560 b 839 618 786 594 808 618 b 894 569 869 618 894 597 b 315 292 894 442 315 533 b 442 178 315 238 356 178 b 582 319 536 178 601 233 l 457 292 b 426 233 479 257 457 233 b 371 282 396 233 371 254 b 640 375 371 343 503 354 b 715 239 674 358 715 310 b 454 42 715 115 606 42 b 181 288 264 42 181 157 b 467 528 181 433 292 500 l 467 583 b 250 722 292 569 250 639 b 421 875 250 818 317 875 b 531 672 526 875 603 807 l 656 644 b 408 931 728 850 565 931 b 125 725 257 931 125 860 b 269 539 125 632 181 568 b 56 279 149 497 56 422 b 438 -14 56 99 210 -14 b 771 229 632 -14 771 72 b 696 385 771 310 725 361 b 950 560 828 408 950 449 z "},"¶":{"ha":707,"x_min":0,"x_max":0,"o":"m 332 1000 b 56 708 222 1000 56 944 b 332 417 56 472 222 417 l 388 528 l 401 528 l 401 -208 l 485 -208 l 485 1000 l 401 1000 l 401 889 l 388 889 z m 568 1000 l 568 -208 l 651 -208 l 651 1000 z "},"§":{"ha":721,"x_min":0,"x_max":0,"o":"m 529 251 b 665 415 610 271 665 317 b 369 646 665 567 539 601 b 194 774 247 678 194 688 b 354 875 194 824 238 875 b 503 718 440 875 558 843 l 628 690 b 356 931 683 869 513 931 b 69 738 192 931 69 876 b 218 568 69 643 124 601 b 69 392 128 543 69 488 b 369 179 69 254 185 228 b 540 40 476 151 540 133 b 381 -82 540 -31 483 -82 b 190 131 267 -82 135 -50 l 65 158 b 379 -137 10 -76 194 -137 b 665 69 529 -137 665 -83 b 529 251 665 167 613 217 z m 194 421 b 369 525 194 478 238 558 b 540 404 476 497 540 493 b 369 300 540 329 496 267 b 194 421 247 332 194 342 z "},"©":{"ha":1206,"x_min":0,"x_max":0,"o":"m 603 -215 b 1150 358 951 -215 1150 42 b 603 931 1150 674 951 931 b 56 358 254 931 56 674 b 603 -215 56 42 254 -215 z m 603 -160 b 111 358 285 -160 111 71 b 603 875 111 643 285 875 b 1094 358 922 875 1094 643 b 603 -160 1094 71 922 -160 z m 268 358 b 615 -3 268 171 372 -3 b 938 317 815 -3 944 128 l 813 289 b 615 53 826 147 738 53 b 393 358 457 53 393 189 b 615 664 393 528 457 664 b 799 442 738 664 813 569 l 924 414 b 615 719 931 589 815 719 b 268 358 372 719 268 546 z "},"®":{"ha":735,"x_min":0,"x_max":0,"o":"m 368 1014 b 56 704 153 1014 56 860 b 368 394 56 550 153 394 b 679 704 582 394 679 550 b 368 1014 679 860 582 1014 z m 111 704 b 368 958 111 829 186 958 b 624 704 549 958 624 829 b 624 703 624 704 624 704 b 624 701 624 703 624 701 b 624 700 624 700 624 700 b 501 594 622 558 521 463 b 442 711 492 660 471 693 b 493 790 471 722 493 744 b 353 881 493 881 397 881 l 232 881 l 232 867 b 267 814 261 867 267 847 l 267 614 b 232 561 267 581 261 561 l 232 547 l 357 547 l 357 561 b 322 614 328 561 322 581 l 322 700 l 331 700 b 447 594 401 700 435 682 b 529 499 457 525 458 471 b 368 450 490 468 436 450 b 111 704 186 450 111 579 z m 371 728 l 344 728 l 331 728 l 322 728 l 322 853 l 371 853 b 438 790 425 853 438 826 b 371 728 438 753 425 728 z "},"™":{"ha":929,"x_min":0,"x_max":0,"o":"m 365 1000 l 65 1000 l 56 922 l 67 921 b 115 978 72 968 89 978 l 190 978 l 190 686 b 163 644 190 660 186 644 l 163 633 l 268 633 l 268 644 b 240 686 244 644 240 660 l 240 978 l 314 978 b 364 921 342 978 358 968 l 375 922 z m 874 989 l 874 1000 l 840 1000 b 772 944 822 999 794 993 l 642 660 l 506 944 b 433 1000 481 996 468 1000 l 400 1000 l 400 989 b 428 947 424 989 428 974 l 428 686 b 400 644 428 660 424 644 l 400 633 l 478 633 l 478 644 b 450 686 454 644 450 660 l 450 944 l 600 633 l 654 633 l 796 944 l 796 686 b 768 644 796 660 792 644 l 768 633 l 874 633 l 874 644 b 846 686 850 644 846 660 l 846 947 b 874 989 846 974 850 989 z "},"°":{"ha":614,"x_min":0,"x_max":0,"o":"m 307 513 b 558 764 460 513 558 625 b 307 1014 558 901 460 1014 b 56 764 154 1014 56 901 b 307 513 56 625 154 513 z m 307 596 b 139 764 204 596 139 671 b 307 931 139 856 204 931 b 475 764 410 931 475 856 b 307 596 475 671 410 596 z "},"|":{"ha":194,"x_min":0,"x_max":0,"o":"m 56 1000 l 56 -208 l 139 -208 l 139 1000 z "},"¦":{"ha":194,"x_min":0,"x_max":0,"o":"m 56 569 l 139 569 l 139 1000 l 56 1000 z m 56 -208 l 139 -208 l 139 222 l 56 222 z "},"†":{"ha":633,"x_min":0,"x_max":0,"o":"m 439 781 b 347 769 390 781 369 774 b 358 861 351 792 358 813 l 358 1000 l 275 1000 l 275 861 b 286 769 275 813 282 792 b 194 781 264 774 243 781 l 56 781 l 56 697 l 194 697 b 286 708 243 697 264 704 b 275 617 282 686 275 665 l 275 157 l 358 157 l 358 617 b 347 708 358 665 351 686 b 439 697 369 704 390 697 l 578 697 l 578 781 z "},"‡":{"ha":633,"x_min":0,"x_max":0,"o":"m 578 697 l 578 781 l 439 781 b 347 769 390 781 369 774 b 358 861 351 792 358 813 l 358 1000 l 275 1000 l 275 861 b 286 769 275 813 282 792 b 194 781 264 774 243 781 l 56 781 l 56 697 l 194 697 b 286 708 243 697 264 704 b 275 617 282 686 275 665 l 275 540 b 286 449 275 492 282 471 b 194 460 264 453 243 460 l 56 460 l 56 376 l 194 376 b 286 388 243 376 264 383 b 275 296 282 365 275 344 l 275 157 l 358 157 l 358 296 b 347 388 358 344 351 365 b 439 376 369 383 390 376 l 578 376 l 578 460 l 439 460 b 347 449 390 460 369 453 b 358 540 351 471 358 492 l 358 617 b 347 708 358 665 351 686 b 439 697 369 704 390 697 z "},"̈":{"ha":0,"x_min":0,"x_max":0,"o":"m -344 824 b -272 897 -307 824 -272 856 b -344 968 -272 935 -307 968 b -417 897 -383 968 -417 935 b -344 824 -417 856 -383 824 z m -128 824 b -56 897 -90 824 -56 856 b -128 968 -56 935 -90 968 b -200 897 -167 968 -200 935 b -128 824 -200 856 -167 824 z "},"̇":{"ha":0,"x_min":0,"x_max":0,"o":"m -128 824 b -56 897 -90 824 -56 856 b -128 968 -56 935 -90 968 b -200 897 -167 968 -200 935 b -128 824 -200 856 -167 824 z "},"̀":{"ha":0,"x_min":0,"x_max":0,"o":"m -56 819 b -161 972 -119 844 -161 885 l -300 1000 b -97 792 -300 869 -189 815 z "},"́":{"ha":0,"x_min":0,"x_max":0,"o":"m -300 819 l -258 792 b -56 1000 -167 815 -56 869 l -194 972 b -300 819 -194 885 -236 844 z "},"̋":{"ha":0,"x_min":0,"x_max":0,"o":"m -300 847 l -258 819 b -56 1028 -167 843 -56 897 l -194 1000 b -300 847 -194 913 -236 872 z m -508 819 l -467 792 b -264 1000 -375 815 -264 869 l -403 972 b -508 819 -403 885 -444 844 z "},"̂":{"ha":0,"x_min":0,"x_max":0,"o":"m -56 861 b -181 1000 -135 889 -167 935 l -306 1000 b -431 861 -319 935 -351 889 l -403 792 b -250 917 -337 806 -278 851 l -236 917 b -83 792 -208 851 -149 806 z "},"̌":{"ha":0,"x_min":0,"x_max":0,"o":"m -56 932 l -83 1001 b -236 876 -149 988 -208 942 l -250 876 b -403 1001 -278 942 -337 988 l -431 932 b -306 793 -351 904 -319 858 l -181 793 b -56 932 -167 858 -135 904 z "},"̆":{"ha":0,"x_min":0,"x_max":0,"o":"m -56 1000 l -111 1000 b -208 847 -111 894 -139 847 b -306 1000 -278 847 -306 894 l -431 1000 b -236 792 -431 903 -382 792 b -56 1000 -90 792 -56 903 z "},"̊":{"ha":0,"x_min":0,"x_max":0,"o":"m -187 792 b -56 896 -100 792 -56 838 b -187 1000 -56 951 -100 1000 b -319 896 -276 1000 -319 951 b -187 792 -319 838 -276 792 z m -187 847 b -236 896 -221 847 -236 861 b -187 944 -236 931 -221 944 b -139 896 -154 944 -139 931 b -187 847 -139 861 -154 847 z "},"̃":{"ha":0,"x_min":0,"x_max":0,"o":"m -164 792 b -64 958 -87 792 -33 860 l -147 986 b -172 875 -117 903 -135 875 b -400 1000 -235 875 -274 1000 b -500 833 -476 1000 -531 932 l -417 806 b -392 917 -447 889 -429 917 b -164 792 -329 917 -290 792 z "},"̄":{"ha":0,"x_min":0,"x_max":0,"o":"m -454 924 l -454 868 l -56 868 l -56 924 z "},"̒":{"ha":0,"x_min":0,"x_max":0,"o":"m -69 1015 l -75 1043 b -201 906 -162 1025 -201 964 b -126 813 -201 839 -168 813 b -56 882 -83 813 -56 844 b -112 953 -56 919 -75 953 b -149 942 -129 953 -140 949 b -69 1015 -149 972 -117 1000 z "},"̦":{"ha":0,"x_min":0,"x_max":0,"o":"m -187 -300 l -182 -342 b -56 -204 -94 -314 -56 -274 b -131 -111 -56 -137 -89 -111 b -201 -181 -174 -111 -201 -143 b -144 -251 -201 -218 -182 -251 b -108 -240 -128 -251 -117 -247 b -187 -300 -114 -268 -140 -285 z "},"̧":{"ha":0,"x_min":0,"x_max":0,"o":"m -164 -83 b -246 -106 -196 -83 -224 -92 l -260 -106 l -199 0 l -282 0 l -311 -153 l -283 -161 b -193 -139 -260 -147 -228 -139 b -139 -189 -156 -139 -139 -158 b -222 -262 -139 -237 -172 -262 b -269 -210 -247 -262 -289 -250 l -353 -185 b -217 -318 -376 -278 -293 -318 b -56 -187 -132 -318 -56 -278 b -164 -83 -56 -111 -112 -83 z "},"̨":{"ha":0,"x_min":0,"x_max":0,"o":"m -358 -186 b -56 -247 -358 -319 -171 -351 l -83 -192 b -261 -156 -174 -257 -261 -224 b -129 0 -261 -122 -240 -72 l -199 0 l -199 -14 b -358 -186 -310 -65 -358 -125 z "},"̵":{"ha":0,"x_min":0,"x_max":0,"o":"m -472 375 l -472 319 l -56 319 l -56 375 z "},"̶":{"ha":0,"x_min":0,"x_max":0,"o":"m -944 375 l -944 319 l -56 319 l -56 375 z "},"̷":{"ha":0,"x_min":0,"x_max":0,"o":"m -56 1000 l -115 1000 l -544 -83 l -485 -83 z "},"̸":{"ha":0,"x_min":0,"x_max":0,"o":"m -56 1000 l -115 1000 l -544 -83 l -485 -83 z "},"´":{"ha":356,"x_min":0,"x_max":0,"o":"m 56 819 l 97 792 b 300 1000 189 815 300 869 l 161 972 b 56 819 161 885 119 844 z "},"˘":{"ha":486,"x_min":0,"x_max":0,"o":"m 431 1000 l 375 1000 b 278 847 375 894 347 847 b 181 1000 208 847 181 894 l 56 1000 b 250 792 56 903 104 792 b 431 1000 396 792 431 903 z "},"ˇ":{"ha":486,"x_min":0,"x_max":0,"o":"m 431 932 l 403 1001 b 250 876 338 988 278 942 l 236 876 b 83 1001 208 942 149 988 l 56 932 b 181 793 135 904 167 858 l 306 793 b 431 932 319 858 351 904 z "},"¸":{"ha":413,"x_min":0,"x_max":0,"o":"m 249 -83 b 167 -106 217 -83 189 -92 l 153 -106 l 214 0 l 131 0 l 101 -153 l 129 -161 b 219 -139 153 -147 185 -139 b 274 -189 257 -139 274 -158 b 190 -262 274 -237 240 -262 b 143 -210 165 -262 124 -250 l 60 -185 b 196 -318 36 -278 119 -318 b 357 -187 281 -318 357 -278 b 249 -83 357 -111 300 -83 z "},"ˆ":{"ha":486,"x_min":0,"x_max":0,"o":"m 431 861 b 306 1000 351 889 319 935 l 181 1000 b 56 861 167 935 135 889 l 83 792 b 236 917 149 806 208 851 l 250 917 b 403 792 278 851 338 806 z "},"¨":{"ha":472,"x_min":0,"x_max":0,"o":"m 128 824 b 200 897 165 824 200 856 b 128 968 200 935 165 968 b 56 897 89 968 56 935 b 128 824 56 856 89 824 z m 344 824 b 417 897 382 824 417 856 b 344 968 417 935 382 968 b 272 897 306 968 272 935 b 344 824 272 856 306 824 z "},"˙":{"ha":256,"x_min":0,"x_max":0,"o":"m 128 824 b 200 897 165 824 200 856 b 128 968 200 935 165 968 b 56 897 89 968 56 935 b 128 824 56 856 89 824 z "},"`":{"ha":356,"x_min":0,"x_max":0,"o":"m 300 819 b 194 972 236 844 194 885 l 56 1000 b 258 792 56 869 167 815 z "},"˝":{"ha":564,"x_min":0,"x_max":0,"o":"m 264 847 l 306 819 b 508 1028 397 843 508 897 l 369 1000 b 264 847 369 913 328 872 z m 56 819 l 97 792 b 300 1000 189 815 300 869 l 161 972 b 56 819 161 885 119 844 z "},"¯":{"ha":510,"x_min":0,"x_max":0,"o":"m 56 924 l 56 868 l 454 868 l 454 924 z "},"˛":{"ha":414,"x_min":0,"x_max":0,"o":"m 56 -186 b 358 -247 56 -319 243 -351 l 331 -192 b 153 -156 240 -257 153 -224 b 285 0 153 -122 174 -72 l 215 0 l 215 -14 b 56 -186 104 -65 56 -125 z "},"˚":{"ha":375,"x_min":0,"x_max":0,"o":"m 188 792 b 319 896 275 792 319 838 b 188 1000 319 951 275 1000 b 56 896 99 1000 56 951 b 188 792 56 838 99 792 z m 188 847 b 139 896 154 847 139 861 b 188 944 139 931 154 944 b 236 896 221 944 236 931 b 188 847 236 861 221 847 z "},"˜":{"ha":564,"x_min":0,"x_max":0,"o":"m 400 792 b 500 958 476 792 531 860 l 417 986 b 392 875 447 903 429 875 b 164 1000 329 875 290 1000 b 64 833 88 1000 33 932 l 147 806 b 172 917 117 889 135 917 b 400 792 235 917 274 792 z "}}}
